<svg>
    <path d="M505.065 3H8.5V328.174M505.065 3V328.174H8.5M505.065 3L521.5 19.4348V344.608H24.9348L8.5 328.174" stroke="#FF419C" fill='white'/>
    <path d="M9.5 328.5L25.5 344.608H521.5L505.4 328.5H9.5Z" fill="#E61B7C"/>
    <path d="M521.5 344.608V19.4348L505.065 3L505.4 328.5L521.5 344.608Z" fill="#FF419C"/>
    <path d="M142.891 195.524V169.698H254.413L228.587 195.524H142.891Z" fill="#FF419C"/>
    <path d="M365.935 169.698V195.524H297.261L310.174 182.611L323.087 169.698H365.935Z" fill="#FF419C"/>
    <path fillRule="evenodd" clipRule="evenodd" d="M226.475 213.455C222.17 223.629 220.136 241.16 246.431 229.89L310.996 162.977C310.996 162.977 342.692 172.368 343.866 138.325C337.996 138.325 328.605 146.542 328.605 146.542C321.562 145.368 316.866 147.716 316.866 127.76L330.953 117.194C330.953 117.194 291.04 105.455 295.736 147.716L226.475 213.455ZM237.5 213.455C231.63 214.629 228.109 222.847 237.5 226.368C246.891 226.368 246.891 214.629 237.5 213.455Z" fill="#FF419C"/>
    <path d="M0.5 368V345H521.926V0H545V368H0.5Z" fill="white"/>
</svg>
