<svg>
    <path d="M505.065 3H8.5V328.174M505.065 3V328.174H8.5M505.065 3L521.5 19.4348V344.608H24.9348L8.5 328.174" stroke="#FF419C" fill='white'/>
    <path d="M9.5 328.5L25.5 344.608H521.5L505.4 328.5H9.5Z" fill="#E61B7C"/>
    <path d="M521.5 344.608V19.4348L505.065 3L505.4 328.5L521.5 344.608Z" fill="#FF419C"/>
    <path d="M152.891 195.524V169.698H264.413L238.587 195.524H152.891Z" fill="#FF419C"/>
    <path d="M375.935 169.698V195.524H307.261L320.174 182.611L333.087 169.698H375.935Z" fill="#FF419C"/>
    <path fillRule="evenodd" clipRule="evenodd" d="M236.475 213.455C232.17 223.629 230.136 241.16 256.431 229.89L320.996 162.977C320.996 162.977 352.692 172.368 353.866 138.325C347.996 138.325 338.605 146.542 338.605 146.542C331.562 145.368 326.866 147.716 326.866 127.76L340.953 117.194C340.953 117.194 301.04 105.455 305.736 147.716L236.475 213.455ZM247.5 213.455C241.63 214.629 238.109 222.847 247.5 226.368C256.891 226.368 256.891 214.629 247.5 213.455Z" fill="#FF419C"/>
    <path d="M0.5 368V345H521.926V0H545V368H0.5Z" fill="white"/>
</svg>
