<svg>
    <path d="M521.065 20H24.5V345.174H521.065V20Z" fill="#E51B7C" stroke="#E51B7C"/>
    <path d="M168.891 212.524V186.698H280.413L254.587 212.524H168.891Z" fill="#FF419C"/>
    <path d="M391.935 186.698V212.524H323.261L336.174 199.611L349.087 186.698H391.935Z" fill="#FF419C"/>
    <path fillRule="evenodd" clipRule="evenodd" d="M252.475 230.455C248.17 240.629 246.136 258.16 272.431 246.89L336.996 179.977C336.996 179.977 368.692 189.368 369.866 155.325C363.996 155.325 354.605 163.542 354.605 163.542C347.562 162.368 342.866 164.716 342.866 144.759L356.953 134.194C356.953 134.194 317.04 122.455 321.736 164.716L252.475 230.455ZM263.5 230.455C257.63 231.629 254.109 239.846 263.5 243.368C272.891 243.368 272.891 231.629 263.5 230.455Z" fill="#FF419C"/>
    <path d="M57.5373 53.1999C60.4973 53.1999 63.0839 53.7732 65.2973 54.9199C67.5373 56.0399 69.2573 57.6665 70.4573 59.7999C71.6839 61.9065 72.2973 64.3732 72.2973 67.1999C72.2973 70.0265 71.6839 72.4799 70.4573 74.5599C69.2573 76.6399 67.5373 78.2399 65.2973 79.3599C63.0839 80.4532 60.4973 80.9999 57.5373 80.9999H48.4573V53.1999H57.5373ZM57.5373 77.2799C60.7906 77.2799 63.2839 76.3999 65.0173 74.6399C66.7506 72.8799 67.6173 70.3999 67.6173 67.1999C67.6173 63.9732 66.7506 61.4532 65.0173 59.6399C63.2839 57.8265 60.7906 56.9199 57.5373 56.9199H53.0173V77.2799H57.5373ZM97.0167 69.4399C97.0167 70.2665 96.9633 71.0132 96.8567 71.6799H80.0167C80.15 73.4399 80.8033 74.8532 81.9767 75.9199C83.15 76.9865 84.59 77.5199 86.2967 77.5199C88.75 77.5199 90.4833 76.4932 91.4967 74.4399H96.4167C95.75 76.4665 94.5367 78.1332 92.7767 79.4399C91.0433 80.7199 88.8833 81.3599 86.2967 81.3599C84.19 81.3599 82.2967 80.8932 80.6167 79.9599C78.9633 78.9999 77.6567 77.6665 76.6967 75.9599C75.7633 74.2265 75.2967 72.2265 75.2967 69.9599C75.2967 67.6932 75.75 65.7065 76.6567 63.9999C77.59 62.2665 78.8833 60.9332 80.5367 59.9999C82.2167 59.0665 84.1367 58.5999 86.2967 58.5999C88.3767 58.5999 90.23 59.0532 91.8567 59.9599C93.4833 60.8665 94.75 62.1465 95.6567 63.7999C96.5633 65.4265 97.0167 67.3065 97.0167 69.4399ZM92.2567 67.9999C92.23 66.3199 91.63 64.9732 90.4567 63.9599C89.2833 62.9465 87.83 62.4399 86.0967 62.4399C84.5233 62.4399 83.1767 62.9465 82.0567 63.9599C80.9367 64.9465 80.27 66.2932 80.0567 67.9999H92.2567ZM99.9842 69.9599C99.9842 67.6932 100.437 65.7065 101.344 63.9999C102.277 62.2665 103.557 60.9332 105.184 59.9999C106.811 59.0665 108.677 58.5999 110.784 58.5999C113.451 58.5999 115.651 59.2399 117.384 60.5199C119.144 61.7732 120.331 63.5732 120.944 65.9199H116.024C115.624 64.8265 114.984 63.9732 114.104 63.3599C113.224 62.7465 112.117 62.4399 110.784 62.4399C108.917 62.4399 107.424 63.1065 106.304 64.4399C105.211 65.7465 104.664 67.5865 104.664 69.9599C104.664 72.3332 105.211 74.1865 106.304 75.5199C107.424 76.8532 108.917 77.5199 110.784 77.5199C113.424 77.5199 115.171 76.3599 116.024 74.0399H120.944C120.304 76.2799 119.104 78.0665 117.344 79.3999C115.584 80.7065 113.397 81.3599 110.784 81.3599C108.677 81.3599 106.811 80.8932 105.184 79.9599C103.557 78.9999 102.277 77.6665 101.344 75.9599C100.437 74.2265 99.9842 72.2265 99.9842 69.9599ZM123.969 69.8799C123.969 67.6665 124.422 65.7065 125.329 63.9999C126.262 62.2932 127.515 60.9732 129.089 60.0399C130.689 59.0799 132.449 58.5999 134.369 58.5999C136.102 58.5999 137.609 58.9465 138.889 59.6399C140.195 60.3065 141.235 61.1465 142.009 62.1599V58.9599H146.609V80.9999H142.009V77.7199C141.235 78.7599 140.182 79.6265 138.849 80.3199C137.515 81.0132 135.995 81.3599 134.289 81.3599C132.395 81.3599 130.662 80.8799 129.089 79.9199C127.515 78.9332 126.262 77.5732 125.329 75.8399C124.422 74.0799 123.969 72.0932 123.969 69.8799ZM142.009 69.9599C142.009 68.4399 141.689 67.1199 141.049 65.9999C140.435 64.8799 139.622 64.0265 138.609 63.4399C137.595 62.8532 136.502 62.5599 135.329 62.5599C134.155 62.5599 133.062 62.8532 132.049 63.4399C131.035 63.9999 130.209 64.8399 129.569 65.9599C128.955 67.0532 128.649 68.3599 128.649 69.8799C128.649 71.3999 128.955 72.7332 129.569 73.8799C130.209 75.0265 131.035 75.9065 132.049 76.5199C133.089 77.1065 134.182 77.3999 135.329 77.3999C136.502 77.3999 137.595 77.1065 138.609 76.5199C139.622 75.9332 140.435 75.0799 141.049 73.9599C141.689 72.8132 142.009 71.4799 142.009 69.9599ZM172.438 58.9599L158.918 91.3599H154.198L158.678 80.6399L149.998 58.9599H155.078L161.278 75.7599L167.718 58.9599H172.438ZM190.83 77.3199H200.23V80.9999H186.27V53.1999H190.83V77.3199ZM224.243 69.4399C224.243 70.2665 224.19 71.0132 224.083 71.6799H207.243C207.377 73.4399 208.03 74.8532 209.203 75.9199C210.377 76.9865 211.817 77.5199 213.523 77.5199C215.977 77.5199 217.71 76.4932 218.723 74.4399H223.643C222.977 76.4665 221.763 78.1332 220.003 79.4399C218.27 80.7199 216.11 81.3599 213.523 81.3599C211.417 81.3599 209.523 80.8932 207.843 79.9599C206.19 78.9999 204.883 77.6665 203.923 75.9599C202.99 74.2265 202.523 72.2265 202.523 69.9599C202.523 67.6932 202.977 65.7065 203.883 63.9999C204.817 62.2665 206.11 60.9332 207.763 59.9999C209.443 59.0665 211.363 58.5999 213.523 58.5999C215.603 58.5999 217.457 59.0532 219.083 59.9599C220.71 60.8665 221.977 62.1465 222.883 63.7999C223.79 65.4265 224.243 67.3065 224.243 69.4399ZM219.483 67.9999C219.457 66.3199 218.857 64.9732 217.683 63.9599C216.51 62.9465 215.057 62.4399 213.323 62.4399C211.75 62.4399 210.403 62.9465 209.283 63.9599C208.163 64.9465 207.497 66.2932 207.283 67.9999H219.483ZM237.251 76.9199L243.491 58.9599H248.331L239.931 80.9999H234.491L226.131 58.9599H231.011L237.251 76.9199ZM271.978 69.4399C271.978 70.2665 271.924 71.0132 271.818 71.6799H254.978C255.111 73.4399 255.764 74.8532 256.938 75.9199C258.111 76.9865 259.551 77.5199 261.258 77.5199C263.711 77.5199 265.444 76.4932 266.458 74.4399H271.378C270.711 76.4665 269.498 78.1332 267.738 79.4399C266.004 80.7199 263.844 81.3599 261.258 81.3599C259.151 81.3599 257.258 80.8932 255.578 79.9599C253.924 78.9999 252.618 77.6665 251.658 75.9599C250.724 74.2265 250.258 72.2265 250.258 69.9599C250.258 67.6932 250.711 65.7065 251.618 63.9999C252.551 62.2665 253.844 60.9332 255.498 59.9999C257.178 59.0665 259.098 58.5999 261.258 58.5999C263.338 58.5999 265.191 59.0532 266.818 59.9599C268.444 60.8665 269.711 62.1465 270.618 63.7999C271.524 65.4265 271.978 67.3065 271.978 69.4399ZM267.218 67.9999C267.191 66.3199 266.591 64.9732 265.418 63.9599C264.244 62.9465 262.791 62.4399 261.058 62.4399C259.484 62.4399 258.138 62.9465 257.018 63.9599C255.898 64.9465 255.231 66.2932 255.018 67.9999H267.218ZM281.025 51.3999V80.9999H276.465V51.3999H281.025ZM315.363 53.1999V56.9199H307.963V80.9999H303.403V56.9199H295.963V53.1999H315.363ZM329.541 81.3599C327.461 81.3599 325.581 80.8932 323.901 79.9599C322.221 78.9999 320.901 77.6665 319.941 75.9599C318.981 74.2265 318.501 72.2265 318.501 69.9599C318.501 67.7199 318.994 65.7332 319.981 63.9999C320.967 62.2665 322.314 60.9332 324.021 59.9999C325.727 59.0665 327.634 58.5999 329.741 58.5999C331.847 58.5999 333.754 59.0665 335.461 59.9999C337.167 60.9332 338.514 62.2665 339.501 63.9999C340.487 65.7332 340.981 67.7199 340.981 69.9599C340.981 72.1999 340.474 74.1865 339.461 75.9199C338.447 77.6532 337.061 78.9999 335.301 79.9599C333.567 80.8932 331.647 81.3599 329.541 81.3599ZM329.541 77.3999C330.714 77.3999 331.807 77.1199 332.821 76.5599C333.861 75.9999 334.701 75.1599 335.341 74.0399C335.981 72.9199 336.301 71.5599 336.301 69.9599C336.301 68.3599 335.994 67.0132 335.381 65.9199C334.767 64.7999 333.954 63.9599 332.941 63.3999C331.927 62.8399 330.834 62.5599 329.661 62.5599C328.487 62.5599 327.394 62.8399 326.381 63.3999C325.394 63.9599 324.607 64.7999 324.021 65.9199C323.434 67.0132 323.141 68.3599 323.141 69.9599C323.141 72.3332 323.741 74.1732 324.941 75.4799C326.167 76.7599 327.701 77.3999 329.541 77.3999ZM355.049 81.3599C352.969 81.3599 351.089 80.8932 349.409 79.9599C347.729 78.9999 346.409 77.6665 345.449 75.9599C344.489 74.2265 344.009 72.2265 344.009 69.9599C344.009 67.7199 344.502 65.7332 345.489 63.9999C346.475 62.2665 347.822 60.9332 349.529 59.9999C351.235 59.0665 353.142 58.5999 355.249 58.5999C357.355 58.5999 359.262 59.0665 360.969 59.9999C362.675 60.9332 364.022 62.2665 365.009 63.9999C365.995 65.7332 366.489 67.7199 366.489 69.9599C366.489 72.1999 365.982 74.1865 364.969 75.9199C363.955 77.6532 362.569 78.9999 360.809 79.9599C359.075 80.8932 357.155 81.3599 355.049 81.3599ZM355.049 77.3999C356.222 77.3999 357.315 77.1199 358.329 76.5599C359.369 75.9999 360.209 75.1599 360.849 74.0399C361.489 72.9199 361.809 71.5599 361.809 69.9599C361.809 68.3599 361.502 67.0132 360.889 65.9199C360.275 64.7999 359.462 63.9599 358.449 63.3999C357.435 62.8399 356.342 62.5599 355.169 62.5599C353.995 62.5599 352.902 62.8399 351.889 63.3999C350.902 63.9599 350.115 64.7999 349.529 65.9199C348.942 67.0132 348.649 68.3599 348.649 69.9599C348.649 72.3332 349.249 74.1732 350.449 75.4799C351.675 76.7599 353.209 77.3999 355.049 77.3999ZM375.556 51.3999V80.9999H370.996V51.3999H375.556Z" fill="white"/>
    <path d="M410.979 315.8C413.539 313.587 415.552 311.773 417.019 310.36C418.512 308.92 419.752 307.427 420.739 305.88C421.726 304.333 422.219 302.787 422.219 301.24C422.219 299.64 421.832 298.387 421.059 297.48C420.312 296.573 419.126 296.12 417.499 296.12C415.926 296.12 414.699 296.627 413.819 297.64C412.966 298.627 412.512 299.96 412.459 301.64H408.059C408.139 298.6 409.046 296.28 410.779 294.68C412.539 293.053 414.766 292.24 417.459 292.24C420.366 292.24 422.632 293.04 424.259 294.64C425.912 296.24 426.739 298.373 426.739 301.04C426.739 302.96 426.246 304.813 425.259 306.6C424.299 308.36 423.139 309.947 421.779 311.36C420.446 312.747 418.739 314.36 416.659 316.2L414.859 317.8H427.539V321.6H408.099V318.28L410.979 315.8ZM431.545 307.04C431.545 302.427 432.318 298.827 433.865 296.24C435.438 293.627 438.131 292.32 441.945 292.32C445.758 292.32 448.438 293.627 449.985 296.24C451.558 298.827 452.345 302.427 452.345 307.04C452.345 311.707 451.558 315.36 449.985 318C448.438 320.613 445.758 321.92 441.945 321.92C438.131 321.92 435.438 320.613 433.865 318C432.318 315.36 431.545 311.707 431.545 307.04ZM447.865 307.04C447.865 304.88 447.718 303.053 447.425 301.56C447.158 300.067 446.598 298.853 445.745 297.92C444.891 296.96 443.625 296.48 441.945 296.48C440.265 296.48 438.998 296.96 438.145 297.92C437.291 298.853 436.718 300.067 436.425 301.56C436.158 303.053 436.025 304.88 436.025 307.04C436.025 309.28 436.158 311.16 436.425 312.68C436.691 314.2 437.251 315.427 438.105 316.36C438.985 317.293 440.265 317.76 441.945 317.76C443.625 317.76 444.891 317.293 445.745 316.36C446.625 315.427 447.198 314.2 447.465 312.68C447.731 311.16 447.865 309.28 447.865 307.04ZM459.69 315.8C462.25 313.587 464.263 311.773 465.73 310.36C467.223 308.92 468.463 307.427 469.45 305.88C470.436 304.333 470.93 302.787 470.93 301.24C470.93 299.64 470.543 298.387 469.77 297.48C469.023 296.573 467.836 296.12 466.21 296.12C464.636 296.12 463.41 296.627 462.53 297.64C461.676 298.627 461.223 299.96 461.17 301.64H456.77C456.85 298.6 457.756 296.28 459.49 294.68C461.25 293.053 463.476 292.24 466.17 292.24C469.076 292.24 471.343 293.04 472.97 294.64C474.623 296.24 475.45 298.373 475.45 301.04C475.45 302.96 474.956 304.813 473.97 306.6C473.01 308.36 471.85 309.947 470.49 311.36C469.156 312.747 467.45 314.36 465.37 316.2L463.57 317.8H476.25V321.6H456.81V318.28L459.69 315.8ZM482.776 315.8C485.336 313.587 487.349 311.773 488.816 310.36C490.309 308.92 491.549 307.427 492.536 305.88C493.522 304.333 494.016 302.787 494.016 301.24C494.016 299.64 493.629 298.387 492.856 297.48C492.109 296.573 490.922 296.12 489.296 296.12C487.722 296.12 486.496 296.627 485.616 297.64C484.762 298.627 484.309 299.96 484.256 301.64H479.856C479.936 298.6 480.842 296.28 482.576 294.68C484.336 293.053 486.562 292.24 489.256 292.24C492.162 292.24 494.429 293.04 496.056 294.64C497.709 296.24 498.536 298.373 498.536 301.04C498.536 302.96 498.042 304.813 497.056 306.6C496.096 308.36 494.936 309.947 493.576 311.36C492.242 312.747 490.536 314.36 488.456 316.2L486.656 317.8H499.336V321.6H479.896V318.28L482.776 315.8Z" fill="white"/>
</svg>
