<svg>
    <path d="M521.045 19.3299H24.4799V344.504H521.045V19.3299Z" fill="#E51B7C" stroke="#E51B7C"/>
    <path d="M158.871 211.854V186.028H270.393L244.567 211.854H158.871Z" fill="#FF419C"/>
    <path d="M381.915 186.028V211.854H313.241L326.154 198.941L339.067 186.028H381.915Z" fill="#FF419C"/>
    <path fillRule="evenodd" clipRule="evenodd" d="M242.454 229.785C238.15 239.959 236.115 257.49 262.411 246.22L326.976 179.307C326.976 179.307 358.672 188.698 359.846 154.655C353.976 154.655 344.585 162.872 344.585 162.872C337.541 161.698 332.846 164.046 332.846 144.089L346.933 133.524C346.933 133.524 307.02 121.785 311.715 164.046L242.454 229.785ZM253.48 229.785C247.61 230.959 244.088 239.177 253.48 242.698C262.871 242.698 262.871 230.959 253.48 229.785Z" fill="#FF419C"/>
    <path d="M57.517 52.5298C60.477 52.5298 63.0637 53.1031 65.277 54.2498C67.517 55.3698 69.237 56.9964 70.437 59.1298C71.6637 61.2364 72.277 63.7031 72.277 66.5298C72.277 69.3564 71.6637 71.8098 70.437 73.8898C69.237 75.9698 67.517 77.5698 65.277 78.6898C63.0637 79.7831 60.477 80.3298 57.517 80.3298H48.437V52.5298H57.517ZM57.517 76.6098C60.7703 76.6098 63.2637 75.7298 64.997 73.9698C66.7303 72.2098 67.597 69.7298 67.597 66.5298C67.597 63.3031 66.7303 60.7831 64.997 58.9698C63.2637 57.1564 60.7703 56.2498 57.517 56.2498H52.997V76.6098H57.517ZM96.9964 68.7698C96.9964 69.5964 96.9431 70.3431 96.8364 71.0098H79.9964C80.1297 72.7698 80.7831 74.1831 81.9564 75.2498C83.1297 76.3164 84.5697 76.8498 86.2764 76.8498C88.7297 76.8498 90.4631 75.8231 91.4764 73.7698H96.3964C95.7297 75.7964 94.5164 77.4631 92.7564 78.7698C91.0231 80.0498 88.8631 80.6898 86.2764 80.6898C84.1697 80.6898 82.2764 80.2231 80.5964 79.2898C78.9431 78.3298 77.6364 76.9964 76.6764 75.2898C75.7431 73.5564 75.2764 71.5564 75.2764 69.2898C75.2764 67.0231 75.7297 65.0364 76.6364 63.3298C77.5697 61.5964 78.8631 60.2631 80.5164 59.3298C82.1964 58.3964 84.1164 57.9298 86.2764 57.9298C88.3564 57.9298 90.2097 58.3831 91.8364 59.2898C93.4631 60.1964 94.7297 61.4764 95.6364 63.1298C96.5431 64.7564 96.9964 66.6364 96.9964 68.7698ZM92.2364 67.3298C92.2097 65.6498 91.6097 64.3031 90.4364 63.2898C89.2631 62.2764 87.8097 61.7698 86.0764 61.7698C84.5031 61.7698 83.1564 62.2764 82.0364 63.2898C80.9164 64.2764 80.2497 65.6231 80.0364 67.3298H92.2364ZM99.9639 69.2898C99.9639 67.0231 100.417 65.0364 101.324 63.3298C102.257 61.5964 103.537 60.2631 105.164 59.3298C106.791 58.3964 108.657 57.9298 110.764 57.9298C113.431 57.9298 115.631 58.5698 117.364 59.8498C119.124 61.1031 120.311 62.9031 120.924 65.2498H116.004C115.604 64.1564 114.964 63.3031 114.084 62.6898C113.204 62.0764 112.097 61.7698 110.764 61.7698C108.897 61.7698 107.404 62.4364 106.284 63.7698C105.191 65.0764 104.644 66.9164 104.644 69.2898C104.644 71.6631 105.191 73.5164 106.284 74.8498C107.404 76.1831 108.897 76.8498 110.764 76.8498C113.404 76.8498 115.151 75.6898 116.004 73.3698H120.924C120.284 75.6098 119.084 77.3964 117.324 78.7298C115.564 80.0364 113.377 80.6898 110.764 80.6898C108.657 80.6898 106.791 80.2231 105.164 79.2898C103.537 78.3298 102.257 76.9964 101.324 75.2898C100.417 73.5564 99.9639 71.5564 99.9639 69.2898ZM123.948 69.2098C123.948 66.9964 124.402 65.0364 125.308 63.3298C126.242 61.6231 127.495 60.3031 129.068 59.3698C130.668 58.4098 132.428 57.9298 134.348 57.9298C136.082 57.9298 137.588 58.2764 138.868 58.9698C140.175 59.6364 141.215 60.4764 141.988 61.4898V58.2898H146.588V80.3298H141.988V77.0498C141.215 78.0898 140.162 78.9564 138.828 79.6498C137.495 80.3431 135.975 80.6898 134.268 80.6898C132.375 80.6898 130.642 80.2098 129.068 79.2498C127.495 78.2631 126.242 76.9031 125.308 75.1698C124.402 73.4098 123.948 71.4231 123.948 69.2098ZM141.988 69.2898C141.988 67.7698 141.668 66.4498 141.028 65.3298C140.415 64.2098 139.602 63.3564 138.588 62.7698C137.575 62.1831 136.482 61.8898 135.308 61.8898C134.135 61.8898 133.042 62.1831 132.028 62.7698C131.015 63.3298 130.188 64.1698 129.548 65.2898C128.935 66.3831 128.628 67.6898 128.628 69.2098C128.628 70.7298 128.935 72.0631 129.548 73.2098C130.188 74.3564 131.015 75.2364 132.028 75.8498C133.068 76.4364 134.162 76.7298 135.308 76.7298C136.482 76.7298 137.575 76.4364 138.588 75.8498C139.602 75.2631 140.415 74.4098 141.028 73.2898C141.668 72.1431 141.988 70.8098 141.988 69.2898ZM172.418 58.2898L158.898 90.6898H154.178L158.658 79.9698L149.978 58.2898H155.058L161.258 75.0898L167.698 58.2898H172.418ZM190.81 76.6498H200.21V80.3298H186.25V52.5298H190.81V76.6498ZM224.223 68.7698C224.223 69.5964 224.17 70.3431 224.063 71.0098H207.223C207.356 72.7698 208.01 74.1831 209.183 75.2498C210.356 76.3164 211.796 76.8498 213.503 76.8498C215.956 76.8498 217.69 75.8231 218.703 73.7698H223.623C222.956 75.7964 221.743 77.4631 219.983 78.7698C218.25 80.0498 216.09 80.6898 213.503 80.6898C211.396 80.6898 209.503 80.2231 207.823 79.2898C206.17 78.3298 204.863 76.9964 203.903 75.2898C202.97 73.5564 202.503 71.5564 202.503 69.2898C202.503 67.0231 202.956 65.0364 203.863 63.3298C204.796 61.5964 206.09 60.2631 207.743 59.3298C209.423 58.3964 211.343 57.9298 213.503 57.9298C215.583 57.9298 217.436 58.3831 219.063 59.2898C220.69 60.1964 221.956 61.4764 222.863 63.1298C223.77 64.7564 224.223 66.6364 224.223 68.7698ZM219.463 67.3298C219.436 65.6498 218.836 64.3031 217.663 63.2898C216.49 62.2764 215.036 61.7698 213.303 61.7698C211.73 61.7698 210.383 62.2764 209.263 63.2898C208.143 64.2764 207.476 65.6231 207.263 67.3298H219.463ZM237.23 76.2498L243.47 58.2898H248.31L239.91 80.3298H234.47L226.11 58.2898H230.99L237.23 76.2498ZM271.957 68.7698C271.957 69.5964 271.904 70.3431 271.797 71.0098H254.957C255.091 72.7698 255.744 74.1831 256.917 75.2498C258.091 76.3164 259.531 76.8498 261.237 76.8498C263.691 76.8498 265.424 75.8231 266.437 73.7698H271.357C270.691 75.7964 269.477 77.4631 267.717 78.7698C265.984 80.0498 263.824 80.6898 261.237 80.6898C259.131 80.6898 257.237 80.2231 255.557 79.2898C253.904 78.3298 252.597 76.9964 251.637 75.2898C250.704 73.5564 250.237 71.5564 250.237 69.2898C250.237 67.0231 250.691 65.0364 251.597 63.3298C252.531 61.5964 253.824 60.2631 255.477 59.3298C257.157 58.3964 259.077 57.9298 261.237 57.9298C263.317 57.9298 265.171 58.3831 266.797 59.2898C268.424 60.1964 269.691 61.4764 270.597 63.1298C271.504 64.7564 271.957 66.6364 271.957 68.7698ZM267.197 67.3298C267.171 65.6498 266.571 64.3031 265.397 63.2898C264.224 62.2764 262.771 61.7698 261.037 61.7698C259.464 61.7698 258.117 62.2764 256.997 63.2898C255.877 64.2764 255.211 65.6231 254.997 67.3298H267.197ZM281.005 50.7298V80.3298H276.445V50.7298H281.005ZM315.342 52.5298V56.2498H307.942V80.3298H303.382V56.2498H295.942V52.5298H315.342ZM329.52 80.6898C327.44 80.6898 325.56 80.2231 323.88 79.2898C322.2 78.3298 320.88 76.9964 319.92 75.2898C318.96 73.5564 318.48 71.5564 318.48 69.2898C318.48 67.0498 318.974 65.0631 319.96 63.3298C320.947 61.5964 322.294 60.2631 324 59.3298C325.707 58.3964 327.614 57.9298 329.72 57.9298C331.827 57.9298 333.734 58.3964 335.44 59.3298C337.147 60.2631 338.494 61.5964 339.48 63.3298C340.467 65.0631 340.96 67.0498 340.96 69.2898C340.96 71.5298 340.454 73.5164 339.44 75.2498C338.427 76.9831 337.04 78.3298 335.28 79.2898C333.547 80.2231 331.627 80.6898 329.52 80.6898ZM329.52 76.7298C330.694 76.7298 331.787 76.4498 332.8 75.8898C333.84 75.3298 334.68 74.4898 335.32 73.3698C335.96 72.2498 336.28 70.8898 336.28 69.2898C336.28 67.6898 335.974 66.3431 335.36 65.2498C334.747 64.1298 333.934 63.2898 332.92 62.7298C331.907 62.1698 330.814 61.8898 329.64 61.8898C328.467 61.8898 327.374 62.1698 326.36 62.7298C325.374 63.2898 324.587 64.1298 324 65.2498C323.414 66.3431 323.12 67.6898 323.12 69.2898C323.12 71.6631 323.72 73.5031 324.92 74.8098C326.147 76.0898 327.68 76.7298 329.52 76.7298ZM355.028 80.6898C352.948 80.6898 351.068 80.2231 349.388 79.2898C347.708 78.3298 346.388 76.9964 345.428 75.2898C344.468 73.5564 343.988 71.5564 343.988 69.2898C343.988 67.0498 344.482 65.0631 345.468 63.3298C346.455 61.5964 347.802 60.2631 349.508 59.3298C351.215 58.3964 353.122 57.9298 355.228 57.9298C357.335 57.9298 359.242 58.3964 360.948 59.3298C362.655 60.2631 364.002 61.5964 364.988 63.3298C365.975 65.0631 366.468 67.0498 366.468 69.2898C366.468 71.5298 365.962 73.5164 364.948 75.2498C363.935 76.9831 362.548 78.3298 360.788 79.2898C359.055 80.2231 357.135 80.6898 355.028 80.6898ZM355.028 76.7298C356.202 76.7298 357.295 76.4498 358.308 75.8898C359.348 75.3298 360.188 74.4898 360.828 73.3698C361.468 72.2498 361.788 70.8898 361.788 69.2898C361.788 67.6898 361.482 66.3431 360.868 65.2498C360.255 64.1298 359.442 63.2898 358.428 62.7298C357.415 62.1698 356.322 61.8898 355.148 61.8898C353.975 61.8898 352.882 62.1698 351.868 62.7298C350.882 63.2898 350.095 64.1298 349.508 65.2498C348.922 66.3431 348.628 67.6898 348.628 69.2898C348.628 71.6631 349.228 73.5031 350.428 74.8098C351.655 76.0898 353.188 76.7298 355.028 76.7298ZM375.536 50.7298V80.3298H370.976V50.7298H375.536Z" fill="white"/>
    <path d="M410.959 315.13C413.519 312.917 415.532 311.103 416.999 309.69C418.492 308.25 419.732 306.757 420.719 305.21C421.705 303.663 422.199 302.117 422.199 300.57C422.199 298.97 421.812 297.717 421.039 296.81C420.292 295.903 419.105 295.45 417.479 295.45C415.905 295.45 414.679 295.957 413.799 296.97C412.945 297.957 412.492 299.29 412.439 300.97H408.039C408.119 297.93 409.025 295.61 410.759 294.01C412.519 292.383 414.745 291.57 417.439 291.57C420.345 291.57 422.612 292.37 424.239 293.97C425.892 295.57 426.719 297.703 426.719 300.37C426.719 302.29 426.225 304.143 425.239 305.93C424.279 307.69 423.119 309.277 421.759 310.69C420.425 312.077 418.719 313.69 416.639 315.53L414.839 317.13H427.519V320.93H408.079V317.61L410.959 315.13ZM431.525 306.37C431.525 301.757 432.298 298.157 433.845 295.57C435.418 292.957 438.111 291.65 441.925 291.65C445.738 291.65 448.418 292.957 449.965 295.57C451.538 298.157 452.325 301.757 452.325 306.37C452.325 311.037 451.538 314.69 449.965 317.33C448.418 319.943 445.738 321.25 441.925 321.25C438.111 321.25 435.418 319.943 433.845 317.33C432.298 314.69 431.525 311.037 431.525 306.37ZM447.845 306.37C447.845 304.21 447.698 302.383 447.405 300.89C447.138 299.397 446.578 298.183 445.725 297.25C444.871 296.29 443.605 295.81 441.925 295.81C440.245 295.81 438.978 296.29 438.125 297.25C437.271 298.183 436.698 299.397 436.405 300.89C436.138 302.383 436.005 304.21 436.005 306.37C436.005 308.61 436.138 310.49 436.405 312.01C436.671 313.53 437.231 314.757 438.085 315.69C438.965 316.623 440.245 317.09 441.925 317.09C443.605 317.09 444.871 316.623 445.725 315.69C446.605 314.757 447.178 313.53 447.445 312.01C447.711 310.49 447.845 308.61 447.845 306.37ZM459.67 315.13C462.23 312.917 464.243 311.103 465.71 309.69C467.203 308.25 468.443 306.757 469.43 305.21C470.416 303.663 470.91 302.117 470.91 300.57C470.91 298.97 470.523 297.717 469.75 296.81C469.003 295.903 467.816 295.45 466.19 295.45C464.616 295.45 463.39 295.957 462.51 296.97C461.656 297.957 461.203 299.29 461.15 300.97H456.75C456.83 297.93 457.736 295.61 459.47 294.01C461.23 292.383 463.456 291.57 466.15 291.57C469.056 291.57 471.323 292.37 472.95 293.97C474.603 295.57 475.43 297.703 475.43 300.37C475.43 302.29 474.936 304.143 473.95 305.93C472.99 307.69 471.83 309.277 470.47 310.69C469.136 312.077 467.43 313.69 465.35 315.53L463.55 317.13H476.23V320.93H456.79V317.61L459.67 315.13ZM482.755 315.13C485.315 312.917 487.329 311.103 488.795 309.69C490.289 308.25 491.529 306.757 492.515 305.21C493.502 303.663 493.995 302.117 493.995 300.57C493.995 298.97 493.609 297.717 492.835 296.81C492.089 295.903 490.902 295.45 489.275 295.45C487.702 295.45 486.475 295.957 485.595 296.97C484.742 297.957 484.289 299.29 484.235 300.97H479.835C479.915 297.93 480.822 295.61 482.555 294.01C484.315 292.383 486.542 291.57 489.235 291.57C492.142 291.57 494.409 292.37 496.035 293.97C497.689 295.57 498.515 297.703 498.515 300.37C498.515 302.29 498.022 304.143 497.035 305.93C496.075 307.69 494.915 309.277 493.555 310.69C492.222 312.077 490.515 313.69 488.435 315.53L486.635 317.13H499.315V320.93H479.875V317.61L482.755 315.13Z" fill="white"/>
</svg>
