<svg width="545" height="368" viewBox="0 0 545 368" fill="none" xmlns="http://www.w3.org/2000/svg">
<path d="M9 328.5L25 344.608H521L504.565 328.174L9 328.5Z" fill="#3600D0"/>
<path d="M521 344.608V19.4348L504.565 3V328.174L521 344.608Z" fill="#9069FF"/>
<path d="M504.565 3H8V328.174H504.565V3Z" fill="white"/>
<path d="M504.565 3H8V328.174M504.565 3V328.174H8M504.565 3L521 19.4348V344.608H24.4348L8 328.174" stroke="#9069FF"/>
<path d="M0 368V345H521.426V0H544.5V368H0Z" fill="white"/>
<path d="M239 56V223.476H261V56H239Z" fill="#9069FF"/>
<path d="M239 242.575H261V258H239V242.575Z" fill="#9069FF"/>
<path d="M239 56V223.476H261V56H239Z" stroke="#9069FF"/>
<path d="M239 242.575H261V258H239V242.575Z" stroke="#9069FF"/>
</svg>
