<svg>
    <path d="M521.565 20.0002H25V345.174H521.565V20.0002Z" fill="#B740EF" stroke="#C474EA"/>
    <path d="M236 97.0002V284M310 97.0002V284M179 153.75H367M179 227.25H273H367" stroke="#C474EA" stroke-width="10"/>
    <path d="M294 191C294 202.598 284.598 212 273 212C261.402 212 252 202.598 252 191C252 179.402 261.402 170 273 170C284.598 170 294 179.402 294 191Z" stroke="#C474EA" stroke-width="10"/>
    <path d="M71.3114 64.2002C70.5914 62.8136 69.5914 61.7736 68.3114 61.0802C67.0314 60.3602 65.5514 60.0002 63.8714 60.0002C62.0314 60.0002 60.3914 60.4136 58.9514 61.2402C57.5114 62.0669 56.3781 63.2402 55.5514 64.7602C54.7514 66.2802 54.3514 68.0402 54.3514 70.0402C54.3514 72.0402 54.7514 73.8136 55.5514 75.3602C56.3781 76.8802 57.5114 78.0536 58.9514 78.8802C60.3914 79.7069 62.0314 80.1202 63.8714 80.1202C66.3514 80.1202 68.3647 79.4269 69.9114 78.0402C71.4581 76.6536 72.4047 74.7736 72.7514 72.4002H62.3114V68.7602H77.6314V72.3202C77.3381 74.4802 76.5647 76.4669 75.3114 78.2802C74.0847 80.0936 72.4714 81.5469 70.4714 82.6402C68.4981 83.7069 66.2981 84.2402 63.8714 84.2402C61.2581 84.2402 58.8714 83.6402 56.7114 82.4402C54.5514 81.2136 52.8314 79.5202 51.5514 77.3602C50.2981 75.2002 49.6714 72.7602 49.6714 70.0402C49.6714 67.3202 50.2981 64.8802 51.5514 62.7202C52.8314 60.5602 54.5514 58.8802 56.7114 57.6802C58.8981 56.4536 61.2847 55.8402 63.8714 55.8402C66.8314 55.8402 69.4581 56.5736 71.7514 58.0402C74.0714 59.4802 75.7514 61.5336 76.7914 64.2002H71.3114ZM91.6889 84.3602C89.6089 84.3602 87.7289 83.8936 86.0489 82.9602C84.3689 82.0002 83.0489 80.6669 82.0889 78.9602C81.1289 77.2269 80.6489 75.2269 80.6489 72.9602C80.6489 70.7202 81.1422 68.7336 82.1289 67.0002C83.1156 65.2669 84.4622 63.9336 86.1689 63.0002C87.8756 62.0669 89.7822 61.6002 91.8889 61.6002C93.9956 61.6002 95.9022 62.0669 97.6089 63.0002C99.3156 63.9336 100.662 65.2669 101.649 67.0002C102.636 68.7336 103.129 70.7202 103.129 72.9602C103.129 75.2002 102.622 77.1869 101.609 78.9202C100.596 80.6536 99.2089 82.0002 97.4489 82.9602C95.7156 83.8936 93.7956 84.3602 91.6889 84.3602ZM91.6889 80.4002C92.8622 80.4002 93.9556 80.1202 94.9689 79.5602C96.0089 79.0002 96.8489 78.1602 97.4889 77.0402C98.1289 75.9202 98.4489 74.5602 98.4489 72.9602C98.4489 71.3602 98.1422 70.0136 97.5289 68.9202C96.9156 67.8002 96.1022 66.9602 95.0889 66.4002C94.0756 65.8402 92.9822 65.5602 91.8089 65.5602C90.6356 65.5602 89.5422 65.8402 88.5289 66.4002C87.5422 66.9602 86.7556 67.8002 86.1689 68.9202C85.5822 70.0136 85.2889 71.3602 85.2889 72.9602C85.2889 75.3336 85.8889 77.1736 87.0889 78.4802C88.3156 79.7602 89.8489 80.4002 91.6889 80.4002ZM112.197 65.2402C112.97 64.1736 114.023 63.3069 115.357 62.6402C116.717 61.9469 118.223 61.6002 119.877 61.6002C121.823 61.6002 123.583 62.0669 125.157 63.0002C126.73 63.9336 127.97 65.2669 128.877 67.0002C129.783 68.7069 130.237 70.6669 130.237 72.8802C130.237 75.0936 129.783 77.0802 128.877 78.8402C127.97 80.5736 126.717 81.9336 125.117 82.9202C123.543 83.8802 121.797 84.3602 119.877 84.3602C118.17 84.3602 116.65 84.0269 115.317 83.3602C114.01 82.6936 112.97 81.8402 112.197 80.8002V84.0002H107.637V54.4002H112.197V65.2402ZM125.597 72.8802C125.597 71.3602 125.277 70.0536 124.637 68.9602C124.023 67.8402 123.197 67.0002 122.157 66.4402C121.143 65.8536 120.05 65.5602 118.877 65.5602C117.73 65.5602 116.637 65.8536 115.597 66.4402C114.583 67.0269 113.757 67.8802 113.117 69.0002C112.503 70.1202 112.197 71.4402 112.197 72.9602C112.197 74.4802 112.503 75.8136 113.117 76.9602C113.757 78.0802 114.583 78.9336 115.597 79.5202C116.637 80.1069 117.73 80.4002 118.877 80.4002C120.05 80.4002 121.143 80.1069 122.157 79.5202C123.197 78.9069 124.023 78.0269 124.637 76.8802C125.277 75.7336 125.597 74.4002 125.597 72.8802ZM139.306 65.2402C140.079 64.1736 141.133 63.3069 142.466 62.6402C143.826 61.9469 145.333 61.6002 146.986 61.6002C148.933 61.6002 150.693 62.0669 152.266 63.0002C153.839 63.9336 155.079 65.2669 155.986 67.0002C156.893 68.7069 157.346 70.6669 157.346 72.8802C157.346 75.0936 156.893 77.0802 155.986 78.8402C155.079 80.5736 153.826 81.9336 152.226 82.9202C150.653 83.8802 148.906 84.3602 146.986 84.3602C145.279 84.3602 143.759 84.0269 142.426 83.3602C141.119 82.6936 140.079 81.8402 139.306 80.8002V84.0002H134.746V54.4002H139.306V65.2402ZM152.706 72.8802C152.706 71.3602 152.386 70.0536 151.746 68.9602C151.133 67.8402 150.306 67.0002 149.266 66.4402C148.253 65.8536 147.159 65.5602 145.986 65.5602C144.839 65.5602 143.746 65.8536 142.706 66.4402C141.693 67.0269 140.866 67.8802 140.226 69.0002C139.613 70.1202 139.306 71.4402 139.306 72.9602C139.306 74.4802 139.613 75.8136 140.226 76.9602C140.866 78.0802 141.693 78.9336 142.706 79.5202C143.746 80.1069 144.839 80.4002 145.986 80.4002C147.159 80.4002 148.253 80.1069 149.266 79.5202C150.306 78.9069 151.133 78.0269 151.746 76.8802C152.386 75.7336 152.706 74.4002 152.706 72.8802ZM166.415 54.4002V84.0002H161.855V54.4002H166.415ZM192.602 72.4402C192.602 73.2669 192.549 74.0136 192.442 74.6802H175.602C175.736 76.4402 176.389 77.8536 177.562 78.9202C178.736 79.9869 180.176 80.5202 181.882 80.5202C184.336 80.5202 186.069 79.4936 187.082 77.4402H192.002C191.336 79.4669 190.122 81.1336 188.362 82.4402C186.629 83.7202 184.469 84.3602 181.882 84.3602C179.776 84.3602 177.882 83.8936 176.202 82.9602C174.549 82.0002 173.242 80.6669 172.282 78.9602C171.349 77.2269 170.882 75.2269 170.882 72.9602C170.882 70.6936 171.336 68.7069 172.242 67.0002C173.176 65.2669 174.469 63.9336 176.122 63.0002C177.802 62.0669 179.722 61.6002 181.882 61.6002C183.962 61.6002 185.816 62.0536 187.442 62.9602C189.069 63.8669 190.336 65.1469 191.242 66.8002C192.149 68.4269 192.602 70.3069 192.602 72.4402ZM187.842 71.0002C187.816 69.3202 187.216 67.9736 186.042 66.9602C184.869 65.9469 183.416 65.4402 181.682 65.4402C180.109 65.4402 178.762 65.9469 177.642 66.9602C176.522 67.9469 175.856 69.2936 175.642 71.0002H187.842ZM201.65 65.1602C202.317 64.0402 203.197 63.1736 204.29 62.5602C205.41 61.9202 206.73 61.6002 208.25 61.6002V66.3202H207.09C205.303 66.3202 203.943 66.7736 203.01 67.6802C202.103 68.5869 201.65 70.1602 201.65 72.4002V84.0002H197.09V61.9602H201.65V65.1602ZM220.441 84.3602C218.708 84.3602 217.148 84.0536 215.761 83.4402C214.401 82.8002 213.321 81.9469 212.521 80.8802C211.721 79.7869 211.295 78.5736 211.241 77.2402H215.961C216.041 78.1736 216.481 78.9602 217.281 79.6002C218.108 80.2136 219.135 80.5202 220.361 80.5202C221.641 80.5202 222.628 80.2802 223.321 79.8002C224.041 79.2936 224.401 78.6536 224.401 77.8802C224.401 77.0536 224.001 76.4402 223.201 76.0402C222.428 75.6402 221.188 75.2002 219.481 74.7202C217.828 74.2669 216.481 73.8269 215.441 73.4002C214.401 72.9736 213.495 72.3202 212.721 71.4402C211.975 70.5602 211.601 69.4002 211.601 67.9602C211.601 66.7869 211.948 65.7202 212.641 64.7602C213.335 63.7736 214.321 63.0002 215.601 62.4402C216.908 61.8802 218.401 61.6002 220.081 61.6002C222.588 61.6002 224.601 62.2402 226.121 63.5202C227.668 64.7736 228.495 66.4936 228.601 68.6802H224.041C223.961 67.6936 223.561 66.9069 222.841 66.3202C222.121 65.7336 221.148 65.4402 219.921 65.4402C218.721 65.4402 217.801 65.6669 217.161 66.1202C216.521 66.5736 216.201 67.1736 216.201 67.9202C216.201 68.5069 216.415 69.0002 216.841 69.4002C217.268 69.8002 217.788 70.1202 218.401 70.3602C219.015 70.5736 219.921 70.8536 221.121 71.2002C222.721 71.6269 224.028 72.0669 225.041 72.5202C226.081 72.9469 226.975 73.5869 227.721 74.4402C228.468 75.2936 228.855 76.4269 228.881 77.8402C228.881 79.0936 228.535 80.2136 227.841 81.2002C227.148 82.1869 226.161 82.9602 224.881 83.5202C223.628 84.0802 222.148 84.3602 220.441 84.3602Z" fill="white"/>
    <path d="M416.529 318.8C419.089 316.587 421.103 314.774 422.569 313.36C424.063 311.92 425.303 310.427 426.289 308.88C427.276 307.334 427.769 305.787 427.769 304.24C427.769 302.64 427.383 301.387 426.609 300.48C425.863 299.574 424.676 299.12 423.049 299.12C421.476 299.12 420.249 299.627 419.369 300.64C418.516 301.627 418.063 302.96 418.009 304.64H413.609C413.689 301.6 414.596 299.28 416.329 297.68C418.089 296.054 420.316 295.24 423.009 295.24C425.916 295.24 428.183 296.04 429.809 297.64C431.463 299.24 432.289 301.374 432.289 304.04C432.289 305.96 431.796 307.814 430.809 309.6C429.849 311.36 428.689 312.947 427.329 314.36C425.996 315.747 424.289 317.36 422.209 319.2L420.409 320.8H433.089V324.6H413.649V321.28L416.529 318.8ZM437.095 310.04C437.095 305.427 437.869 301.827 439.415 299.24C440.989 296.627 443.682 295.32 447.495 295.32C451.309 295.32 453.989 296.627 455.535 299.24C457.109 301.827 457.895 305.427 457.895 310.04C457.895 314.707 457.109 318.36 455.535 321C453.989 323.614 451.309 324.92 447.495 324.92C443.682 324.92 440.989 323.614 439.415 321C437.869 318.36 437.095 314.707 437.095 310.04ZM453.415 310.04C453.415 307.88 453.269 306.054 452.975 304.56C452.709 303.067 452.149 301.854 451.295 300.92C450.442 299.96 449.175 299.48 447.495 299.48C445.815 299.48 444.549 299.96 443.695 300.92C442.842 301.854 442.269 303.067 441.975 304.56C441.709 306.054 441.575 307.88 441.575 310.04C441.575 312.28 441.709 314.16 441.975 315.68C442.242 317.2 442.802 318.427 443.655 319.36C444.535 320.294 445.815 320.76 447.495 320.76C449.175 320.76 450.442 320.294 451.295 319.36C452.175 318.427 452.749 317.2 453.015 315.68C453.282 314.16 453.415 312.28 453.415 310.04ZM465.24 318.8C467.8 316.587 469.814 314.774 471.28 313.36C472.774 311.92 474.014 310.427 475 308.88C475.987 307.334 476.48 305.787 476.48 304.24C476.48 302.64 476.094 301.387 475.32 300.48C474.574 299.574 473.387 299.12 471.76 299.12C470.187 299.12 468.96 299.627 468.08 300.64C467.227 301.627 466.774 302.96 466.72 304.64H462.32C462.4 301.6 463.307 299.28 465.04 297.68C466.8 296.054 469.027 295.24 471.72 295.24C474.627 295.24 476.894 296.04 478.52 297.64C480.174 299.24 481 301.374 481 304.04C481 305.96 480.507 307.814 479.52 309.6C478.56 311.36 477.4 312.947 476.04 314.36C474.707 315.747 473 317.36 470.92 319.2L469.12 320.8H481.8V324.6H462.36V321.28L465.24 318.8ZM485.206 300V295.84H493.526V325H488.926V300H485.206Z" fill="white"/>
</svg>
