<svg>
    <path d="M504.565 3.5H8V328.674M504.565 3.5V328.674H8M504.565 3.5L521 19.9348V345.108H24.4348L8 328.674" stroke="#32BB79" fill='white'/>
    <path d="M8.5 328.674L24.5 345.108H521L504.565 328.674H8.5Z" fill="#20955D"/>
    <path d="M521 345.108V19.9348L504.565 3.5V328.674L521 345.108Z" fill="#32BB79"/>
    <path fillRule="evenodd" clipRule="evenodd" d="M174 90H356V258.5H174L174 90ZM345.025 133.66V107H184.518V133.66H345.025ZM345.025 145.611H184.518V172.271H345.025V145.611ZM345.025 184.682H184.518V211.342H345.025V184.682ZM345.025 235.517H300.211V250.686H345.025V235.517Z" fill="#32BB79"/>
    <path d="M0 368.5V345.5H521.426V0.5H544.5V368.5H0Z" fill="white"/>
</svg>
