<svg>
    <path d="M521.065 19.5001H24.5002V344.674H521.065V19.5001Z" fill="#C22626" stroke="#FF4343"/>
    <path d="M182 106.064L225.332 149.415V230.548L182 273.899V106.064Z" fill="#FF4343"/>
    <path d="M186.561 100L230.643 144.102H313.385L357.467 100H186.561Z" fill="#FF4343"/>
    <path d="M363 105.09L318.696 149.415V230.548L363 274.873V105.09Z" fill="#FF4343"/>
    <path d="M187.523 279L230.643 235.861H313.385L356.505 279H187.523Z" fill="#FF4343"/>
    <path d="M63.2164 54.7201C64.7098 54.9868 65.9764 55.7735 67.0164 57.0801C68.0564 58.3868 68.5764 59.8668 68.5764 61.5201C68.5764 62.9335 68.2031 64.2135 67.4564 65.3601C66.7364 66.4801 65.6831 67.3735 64.2964 68.0401C62.9098 68.6801 61.2964 69.0001 59.4564 69.0001H48.3364V41.2001H58.9364C60.8298 41.2001 62.4564 41.5201 63.8164 42.1601C65.1764 42.8001 66.2031 43.6668 66.8964 44.7601C67.5898 45.8268 67.9364 47.0268 67.9364 48.3601C67.9364 49.9601 67.5098 51.2935 66.6564 52.3601C65.8031 53.4268 64.6564 54.2135 63.2164 54.7201ZM52.8964 52.8801H58.5364C60.0298 52.8801 61.1898 52.5468 62.0164 51.8801C62.8698 51.1868 63.2964 50.2001 63.2964 48.9201C63.2964 47.6668 62.8698 46.6935 62.0164 46.0001C61.1898 45.2801 60.0298 44.9201 58.5364 44.9201H52.8964V52.8801ZM59.0564 65.2801C60.6031 65.2801 61.8164 64.9068 62.6964 64.1601C63.5764 63.4135 64.0164 62.3735 64.0164 61.0401C64.0164 59.6801 63.5498 58.6001 62.6164 57.8001C61.6831 57.0001 60.4431 56.6001 58.8964 56.6001H52.8964V65.2801H59.0564ZM83.0917 69.3601C81.0117 69.3601 79.1317 68.8935 77.4517 67.9601C75.7717 67.0001 74.4517 65.6668 73.4917 63.9601C72.5317 62.2268 72.0517 60.2268 72.0517 57.9601C72.0517 55.7201 72.5451 53.7335 73.5317 52.0001C74.5184 50.2668 75.8651 48.9335 77.5717 48.0001C79.2784 47.0668 81.1851 46.6001 83.2917 46.6001C85.3984 46.6001 87.3051 47.0668 89.0117 48.0001C90.7184 48.9335 92.0651 50.2668 93.0517 52.0001C94.0384 53.7335 94.5317 55.7201 94.5317 57.9601C94.5317 60.2001 94.0251 62.1868 93.0117 63.9201C91.9984 65.6535 90.6117 67.0001 88.8517 67.9601C87.1184 68.8935 85.1984 69.3601 83.0917 69.3601ZM83.0917 65.4001C84.2651 65.4001 85.3584 65.1201 86.3717 64.5601C87.4117 64.0001 88.2517 63.1601 88.8917 62.0401C89.5317 60.9201 89.8517 59.5601 89.8517 57.9601C89.8517 56.3601 89.5451 55.0135 88.9317 53.9201C88.3184 52.8001 87.5051 51.9601 86.4917 51.4001C85.4784 50.8401 84.3851 50.5601 83.2117 50.5601C82.0384 50.5601 80.9451 50.8401 79.9317 51.4001C78.9451 51.9601 78.1584 52.8001 77.5717 53.9201C76.9851 55.0135 76.6917 56.3601 76.6917 57.9601C76.6917 60.3335 77.2917 62.1735 78.4917 63.4801C79.7184 64.7601 81.2517 65.4001 83.0917 65.4001ZM119 46.9601V69.0001H114.44V66.4001C113.72 67.3068 112.773 68.0268 111.6 68.5601C110.453 69.0668 109.226 69.3201 107.92 69.3201C106.186 69.3201 104.626 68.9601 103.24 68.2401C101.88 67.5201 100.8 66.4535 99.9996 65.0401C99.2262 63.6268 98.8396 61.9201 98.8396 59.9201V46.9601H103.36V59.2401C103.36 61.2135 103.853 62.7335 104.84 63.8001C105.826 64.8401 107.173 65.3601 108.88 65.3601C110.586 65.3601 111.933 64.8401 112.92 63.8001C113.933 62.7335 114.44 61.2135 114.44 59.2401V46.9601H119ZM136.136 46.6001C137.869 46.6001 139.416 46.9601 140.776 47.6801C142.163 48.4001 143.243 49.4668 144.016 50.8801C144.789 52.2935 145.176 54.0001 145.176 56.0001V69.0001H140.656V56.6801C140.656 54.7068 140.163 53.2001 139.176 52.1601C138.189 51.0935 136.843 50.5601 135.136 50.5601C133.429 50.5601 132.069 51.0935 131.056 52.1601C130.069 53.2001 129.576 54.7068 129.576 56.6801V69.0001H125.016V46.9601H129.576V49.4801C130.323 48.5735 131.269 47.8668 132.416 47.3601C133.589 46.8535 134.829 46.6001 136.136 46.6001ZM149.473 57.9601C149.473 55.6935 149.926 53.7068 150.833 52.0001C151.766 50.2668 153.046 48.9335 154.673 48.0001C156.299 47.0668 158.166 46.6001 160.273 46.6001C162.939 46.6001 165.139 47.2401 166.873 48.5201C168.633 49.7735 169.819 51.5735 170.433 53.9201H165.513C165.113 52.8268 164.473 51.9735 163.593 51.3601C162.713 50.7468 161.606 50.4401 160.273 50.4401C158.406 50.4401 156.913 51.1068 155.793 52.4401C154.699 53.7468 154.153 55.5868 154.153 57.9601C154.153 60.3335 154.699 62.1868 155.793 63.5201C156.913 64.8535 158.406 65.5201 160.273 65.5201C162.913 65.5201 164.659 64.3601 165.513 62.0401H170.433C169.793 64.2801 168.593 66.0668 166.833 67.4001C165.073 68.7068 162.886 69.3601 160.273 69.3601C158.166 69.3601 156.299 68.8935 154.673 67.9601C153.046 67.0001 151.766 65.6668 150.833 63.9601C149.926 62.2268 149.473 60.2268 149.473 57.9601ZM195.177 57.4401C195.177 58.2668 195.124 59.0135 195.017 59.6801H178.177C178.31 61.4401 178.964 62.8535 180.137 63.9201C181.31 64.9868 182.75 65.5201 184.457 65.5201C186.91 65.5201 188.644 64.4935 189.657 62.4401H194.577C193.91 64.4668 192.697 66.1335 190.937 67.4401C189.204 68.7201 187.044 69.3601 184.457 69.3601C182.35 69.3601 180.457 68.8935 178.777 67.9601C177.124 67.0001 175.817 65.6668 174.857 63.9601C173.924 62.2268 173.457 60.2268 173.457 57.9601C173.457 55.6935 173.91 53.7068 174.817 52.0001C175.75 50.2668 177.044 48.9335 178.697 48.0001C180.377 47.0668 182.297 46.6001 184.457 46.6001C186.537 46.6001 188.39 47.0535 190.017 47.9601C191.644 48.8668 192.91 50.1468 193.817 51.8001C194.724 53.4268 195.177 55.3068 195.177 57.4401ZM190.417 56.0001C190.39 54.3201 189.79 52.9735 188.617 51.9601C187.444 50.9468 185.99 50.4401 184.257 50.4401C182.684 50.4401 181.337 50.9468 180.217 51.9601C179.097 52.9468 178.43 54.2935 178.217 56.0001H190.417Z" fill="white"/>
    <path d="M414.378 303.8C416.938 301.587 418.951 299.773 420.418 298.36C421.911 296.92 423.151 295.427 424.138 293.88C425.124 292.333 425.618 290.787 425.618 289.24C425.618 287.64 425.231 286.387 424.458 285.48C423.711 284.573 422.524 284.12 420.898 284.12C419.324 284.12 418.098 284.627 417.218 285.64C416.364 286.627 415.911 287.96 415.858 289.64H411.458C411.538 286.6 412.444 284.28 414.178 282.68C415.938 281.053 418.164 280.24 420.858 280.24C423.764 280.24 426.031 281.04 427.658 282.64C429.311 284.24 430.138 286.373 430.138 289.04C430.138 290.96 429.644 292.813 428.658 294.6C427.698 296.36 426.538 297.947 425.178 299.36C423.844 300.747 422.138 302.36 420.058 304.2L418.258 305.8H430.938V309.6H411.498V306.28L414.378 303.8ZM434.943 295.04C434.943 290.427 435.717 286.827 437.263 284.24C438.837 281.627 441.53 280.32 445.343 280.32C449.157 280.32 451.837 281.627 453.383 284.24C454.957 286.827 455.743 290.427 455.743 295.04C455.743 299.707 454.957 303.36 453.383 306C451.837 308.613 449.157 309.92 445.343 309.92C441.53 309.92 438.837 308.613 437.263 306C435.717 303.36 434.943 299.707 434.943 295.04ZM451.263 295.04C451.263 292.88 451.117 291.053 450.823 289.56C450.557 288.067 449.997 286.853 449.143 285.92C448.29 284.96 447.023 284.48 445.343 284.48C443.663 284.48 442.397 284.96 441.543 285.92C440.69 286.853 440.117 288.067 439.823 289.56C439.557 291.053 439.423 292.88 439.423 295.04C439.423 297.28 439.557 299.16 439.823 300.68C440.09 302.2 440.65 303.427 441.503 304.36C442.383 305.293 443.663 305.76 445.343 305.76C447.023 305.76 448.29 305.293 449.143 304.36C450.023 303.427 450.597 302.2 450.863 300.68C451.13 299.16 451.263 297.28 451.263 295.04ZM459.968 285V280.84H468.288V310H463.688V285H459.968ZM480.233 302.08C480.499 303.413 481.073 304.427 481.953 305.12C482.833 305.813 484.019 306.16 485.513 306.16C487.406 306.16 488.793 305.413 489.673 303.92C490.553 302.427 490.993 299.88 490.993 296.28C490.353 297.187 489.446 297.893 488.273 298.4C487.126 298.88 485.873 299.12 484.513 299.12C482.779 299.12 481.206 298.773 479.793 298.08C478.379 297.36 477.259 296.307 476.433 294.92C475.633 293.507 475.233 291.8 475.233 289.8C475.233 286.867 476.086 284.533 477.793 282.8C479.526 281.04 481.899 280.16 484.913 280.16C488.539 280.16 491.113 281.373 492.633 283.8C494.18 286.2 494.953 289.893 494.953 294.88C494.953 298.32 494.66 301.133 494.073 303.32C493.513 305.507 492.526 307.16 491.113 308.28C489.7 309.4 487.739 309.96 485.233 309.96C482.379 309.96 480.179 309.213 478.633 307.72C477.086 306.227 476.219 304.347 476.033 302.08H480.233ZM485.313 295.28C486.913 295.28 488.166 294.787 489.073 293.8C490.006 292.787 490.473 291.453 490.473 289.8C490.473 287.96 489.98 286.533 488.993 285.52C488.033 284.48 486.713 283.96 485.033 283.96C483.353 283.96 482.019 284.493 481.033 285.56C480.073 286.6 479.593 287.973 479.593 289.68C479.593 291.307 480.059 292.653 480.993 293.72C481.953 294.76 483.393 295.28 485.313 295.28Z" fill="white"/>
</svg>
