<svg width="545" height="368" viewBox="0 0 545 368" fill="none" xmlns="http://www.w3.org/2000/svg">
<path d="M8 3H504.565L521 19.4348V344.608H24.4348L8 328.174V3Z" fill="white"/>
<path d="M504.565 3H8V328.174M504.565 3V328.174H8M504.565 3L521 19.4348V344.608H24.4348L8 328.174" stroke="#3E68FF"/>
<path d="M9 328.5L25 344.608C25 344.608 327.3 344.608 521 344.608C514.582 338.19 510.983 334.592 504.565 328.174C311.035 328.301 9 328.5 9 328.5Z" fill="#183AB2"/>
<path d="M521 344.608C521 217.62 521 19.4348 521 19.4348L504.565 3C504.565 3 504.565 201.185 504.565 328.174C510.983 334.592 514.582 338.19 521 344.608Z" fill="#3E68FF"/>
<path d="M0 368V345H521.426V0H544.5V368H0Z" fill="white"/>
<g clip-path="url(#clip0_1510_65)">
<path fill-rule="evenodd" clip-rule="evenodd" d="M39.123 165.995C39.123 144.521 56.6773 127.091 78.2985 127.091C99.9454 127.091 117.474 144.495 117.474 165.995C117.474 187.494 99.9454 204.899 78.2985 204.899C56.6516 204.899 39.123 187.469 39.123 165.995ZM85.1451 150.638H62.8034L59.4057 156.038H81.7476L85.1451 150.638ZM96.7536 172.214L100.151 177.589L100.126 177.615H106.535L89.5724 150.638L76.0078 172.214H60.6411L64.0388 166.814H74.4374L77.8351 161.413H56.0596L52.662 166.814H57.6554L50.8602 177.589H79.0448L89.5982 160.799L93.3817 166.814H90.2415L86.844 172.214H96.7536ZM308.865 161.416C310.475 159.004 313.44 157.506 316.891 157.506C323.306 157.506 326.909 162.127 326.909 168.374V184.804H320.06V168.907C320.06 165.429 317.633 163.067 314.464 163.067C311.294 163.067 308.865 165.53 308.865 168.628V184.779H302.017V158.09H308.865V161.416ZM261.587 162.915V158.09H254.736V184.779H261.587V170.66C261.587 167.028 264.807 163.219 270.301 164.083V157.607C266.162 157.125 263.197 159.435 261.587 162.915ZM174.486 184.804H167.637V147.348L174.486 145.215V184.804ZM284.764 157.556C276.894 157.556 270.555 163.397 270.555 171.472C270.555 179.548 276.92 185.338 284.764 185.338C292.611 185.338 298.975 179.497 298.975 171.472C298.975 163.448 292.611 157.556 284.764 157.556ZM284.764 179.192C280.624 179.192 277.327 176.043 277.327 171.549C277.327 167.054 280.624 163.829 284.764 163.829C288.906 163.829 292.201 166.927 292.201 171.549C292.201 176.17 288.93 179.192 284.764 179.192ZM177.501 171.422C177.501 163.346 183.763 157.506 191.456 157.506V157.531C198.126 157.531 205.461 162.381 205.461 172.666C205.461 172.825 205.449 172.979 205.437 173.137C205.423 173.308 205.41 173.484 205.41 173.682H184.683C185.603 177.034 188.619 179.294 192.273 179.294C194.369 179.294 196.311 178.481 197.436 176.831H205.026C202.982 181.96 200.222 185.338 192.146 185.338C184.07 185.338 177.501 179.497 177.501 171.422ZM191.456 163.448C188.286 163.448 185.654 165.53 184.734 168.806H198.024C197.436 165.632 194.625 163.448 191.456 163.448ZM244.307 150.294L237.584 152.427V177.897C237.584 182.011 240.498 184.804 245.456 184.804H252.128V178.76H247.399C245.303 178.76 244.332 177.795 244.332 176.018V163.879H252.153V158.09H244.332V150.268L244.307 150.294ZM228.436 168.577C227.362 165.708 224.832 163.88 221.816 163.88V163.854C217.753 163.854 214.532 167.079 214.532 171.574C214.532 176.069 218.801 179.218 221.816 179.218C224.832 179.218 227.362 177.415 228.436 174.52H235.387C234.084 180.995 229.56 185.338 221.816 185.338C214.072 185.338 207.76 179.548 207.76 171.472C207.76 163.397 215.146 157.556 221.816 157.556C228.487 157.556 234.084 162.102 235.387 168.577H228.436ZM426.558 162.915V158.09H419.71V184.779H426.558V170.66C426.558 167.028 429.779 163.219 435.273 164.083V157.607C431.133 157.125 428.168 159.435 426.558 162.915ZM164.544 184.804H137.172V147.348H164.544V153.925H144.711V162.711H160.761V169.187H144.711V178.328H164.544V184.804ZM379.299 184.804H386.941L390.648 176.83H406.365L410.2 184.804H418.07L398.672 145.748L379.274 184.804H379.299ZM393.357 171.117L398.418 160.197L403.631 171.117H393.357ZM460.6 165.124C460.6 167.104 463.437 167.841 466.785 168.704V168.679C471.36 169.872 476.854 171.802 476.854 176.932C476.854 182.062 472.663 185.338 465.815 185.338C458.964 185.338 453.905 181.249 453.316 175.535H459.553C459.911 178.303 463.309 180.182 465.789 180.182C468.268 180.182 470.057 179.497 470.057 177.567C470.057 175.69 467.399 174.99 464.244 174.159L463.974 174.088C459.399 172.92 453.905 170.812 453.905 165.683C453.905 160.553 457.687 157.506 464.307 157.506C470.925 157.506 475.833 161.543 476.419 167.257H470.185C469.75 164.489 467.374 162.661 464.204 162.661C462.313 162.661 460.6 163.143 460.6 165.124ZM444.344 150.294L437.621 152.427V177.897C437.621 182.011 440.535 184.804 445.494 184.804H452.165V178.76H447.436C445.34 178.76 444.369 177.795 444.369 176.018V163.879H452.19V158.09H444.369V150.268L444.344 150.294ZM330.716 158.115H337.564V184.804H330.716V158.115ZM334.116 146.002C331.74 146.002 329.745 147.983 329.745 150.395C329.745 152.808 331.74 154.788 334.116 154.788C336.494 154.788 338.537 152.808 338.537 150.395C338.537 147.983 336.545 146.002 334.116 146.002ZM361.258 168.577C360.185 165.708 357.655 163.88 354.64 163.88V163.854C350.6 163.854 347.382 167.079 347.382 171.574C347.382 176.069 351.624 179.218 354.64 179.218C357.655 179.218 360.185 177.415 361.258 174.52H368.211C366.933 180.995 362.384 185.338 354.64 185.338C346.895 185.338 340.582 179.548 340.582 171.472C340.582 163.397 347.968 157.556 354.64 157.556C361.309 157.556 366.907 162.102 368.211 168.577H361.258Z" fill="#3E68FF"/>
</g>
<defs>
<clipPath id="clip0_1510_65">
<rect width="438" height="78" fill="white" transform="translate(39 127)"/>
</clipPath>
</defs>
</svg>
