<svg xmlns="http://www.w3.org/2000/svg" width="183" height="72" viewBox="0 0 183 72" fill="none"><g clip-path="url(#a)"><path fill="#F55215" d="M39.394 72c6.849 0 12.4-5.552 12.4-12.4 0-6.849-5.551-12.4-12.4-12.4-6.848 0-12.4 5.551-12.4 12.4 0 6.848 5.552 12.4 12.4 12.4Z"></path><path fill="currentColor" d="M182.44 59.203c0-2.13-.461-4.134-1.462-5.978-1.002-1.844-2.274-3.307-4.07-4.388-1.796-1.08-3.768-1.621-6.041-1.621-2.273 0-4.372.556-6.216 1.653-1.844 1.113-3.291 2.607-4.324 4.515a12.842 12.842 0 0 0-1.574 6.216c0 2.242.525 4.324 1.574 6.216a11.912 11.912 0 0 0 4.34 4.499c1.844 1.113 3.927 1.67 6.2 1.67 1.86 0 3.545-.367 5.103-1.098a11.503 11.503 0 0 0 3.863-2.94c1.049-1.225 1.638-2.306 2.035-3.753l-5.612.112c-.286.477-.731 1.049-1.176 1.399-.525.413-1.145.794-1.892 1.017-.715.207-1.494.366-2.417.366-1.224 0-2.336-.302-3.338-.906-1.002-.605-1.796-1.479-2.369-2.624a7.773 7.773 0 0 1-.763-2.495h18.107c.016-.557.032-1.32.032-1.86Zm-17.932-2.385a5.881 5.881 0 0 1 .588-1.447c.62-1.129 1.431-1.955 2.432-2.512 1.002-.556 2.115-.826 3.323-.826 1.049 0 2.035.222 2.957.651.922.43 1.669 1.018 2.241 1.75.573.73.891 1.525.97 2.4l-12.511-.016ZM128.881 72c-2.066 0-3.926-.556-5.611-1.653-1.686-1.113-3.005-2.607-3.959-4.483-.954-1.876-1.431-3.975-1.431-6.248s.477-4.34 1.447-6.232c.97-1.892 2.273-3.402 3.958-4.499 1.67-1.113 3.53-1.653 5.581-1.653 1.271 0 2.464.19 3.545.572 1.097.381 2.273 1.145 3.1 1.844.81.684 1.494 1.622 1.78 3.005V47.93h5.231v23.37h-5.231v-4.166c-.54 1.209-.938 1.876-2.003 2.735a8.885 8.885 0 0 1-2.893 1.59c-1.097.35-2.258.54-3.514.54Zm1.304-5.087c1.272 0 2.432-.318 3.482-.954a6.729 6.729 0 0 0 2.48-2.64c.604-1.112.906-2.352.906-3.703 0-1.352-.302-2.56-.906-3.672-.604-1.113-1.431-2.004-2.496-2.655-1.05-.652-2.21-.97-3.466-.97-1.256 0-2.416.302-3.45.922a6.823 6.823 0 0 0-2.496 2.575c-.62 1.097-.922 2.369-.922 3.816 0 1.446.302 2.766.922 3.863.62 1.097 1.447 1.955 2.496 2.543 1.05.589 2.21.875 3.45.875ZM37.725 33.067c-2.067 0-3.927-.556-5.612-1.653-1.685-1.113-3.005-2.608-3.958-4.484-.954-1.875-1.431-3.974-1.431-6.247 0-2.274.477-4.34 1.447-6.232.97-1.892 2.289-3.402 3.958-4.5 1.67-1.112 3.53-1.652 5.58-1.652 1.272 0 2.448.19 3.545.572 1.097.381 2.29 1.144 3.1 1.844.81.684 1.495 1.621 1.78 3.005V8.982h5.231v23.37h-5.23v-4.166c-.54 1.209-.938 1.876-2.003 2.735a8.73 8.73 0 0 1-2.894 1.59 10.924 10.924 0 0 1-3.513.556Zm1.32-5.087c1.271 0 2.432-.318 3.48-.954a6.727 6.727 0 0 0 2.481-2.64c.604-1.128.906-2.352.906-3.703a7.54 7.54 0 0 0-.922-3.673c-.604-1.113-1.43-2.003-2.496-2.655a6.46 6.46 0 0 0-3.465-.985c-1.256 0-2.417.302-3.45.922a6.82 6.82 0 0 0-2.496 2.575c-.62 1.097-.922 2.369-.922 3.816 0 1.446.302 2.766.922 3.863.62 1.113 1.447 1.955 2.496 2.543a7.03 7.03 0 0 0 3.465.89ZM91.808 20.27c0-2.13-.46-4.134-1.462-5.978-1.002-1.844-2.274-3.29-4.07-4.388-1.796-1.08-3.768-1.621-6.041-1.621-2.273 0-4.372.556-6.216 1.653-1.844 1.113-3.29 2.607-4.324 4.515a12.849 12.849 0 0 0-1.574 6.216c0 2.241.525 4.324 1.574 6.216a11.913 11.913 0 0 0 4.34 4.499c1.844 1.113 3.91 1.669 6.2 1.669 1.86 0 3.561-.366 5.103-1.097a11.504 11.504 0 0 0 3.863-2.941c1.05-1.224 1.638-2.305 2.035-3.752l-5.612.111c-.286.477-.731 1.05-1.192 1.4-.525.413-1.145.794-1.892 1.017-.715.207-1.494.366-2.416.366-1.224 0-2.337-.303-3.339-.907-1.001-.604-1.796-1.478-2.385-2.623a7.763 7.763 0 0 1-.763-2.496h18.108c.063-.556.063-1.32.063-1.86Zm-17.932-2.385a6.26 6.26 0 0 1 .588-1.463c.62-1.129 1.43-1.955 2.433-2.512 1.001-.556 2.114-.826 3.338-.826 1.05 0 2.035.222 2.957.652.922.429 1.67 1.017 2.241 1.748.573.731.89 1.542.97 2.4H73.876ZM144.779 47.931h5.278v4.229c.382-.874.874-1.638 1.463-2.258a6.043 6.043 0 0 1 2.114-1.446c.811-.334 1.717-.509 2.703-.509h2.48v4.737h-2.21c-1.256 0-2.369.303-3.323.907-.954.604-1.701 1.494-2.225 2.654-.525 1.161-.795 2.576-.795 4.213v10.874h-5.501l.016-23.4ZM63.368 0c-1.829 0-3.244.445-4.181 1.304-.922.858-1.4 2.098-1.4 3.688l-.031 4.006h-4.722v4.706h4.706v18.68h5.421V13.687h4.706v-4.69H63.16v-3.37c0-.445.048-.716.159-.843.159-.19.556-.222.906-.222h3.64L67.899 0h-4.53ZM12.575 33.067c-2.814 0-5.167-.477-7.059-1.415-1.891-.938-3.274-2.178-4.165-3.688A9.381 9.381 0 0 1 0 23.084h5.66a3.99 3.99 0 0 0 .08.843 4.48 4.48 0 0 0 1.08 2.24c.588.652 1.367 1.177 2.337 1.558.97.382 2.098.573 3.386.573 1.542 0 2.83-.175 3.847-.51 1.018-.333 1.78-.858 2.29-1.525.508-.668.763-1.542.763-2.576 0-.906-.287-1.669-.859-2.273-.572-.604-1.367-1.097-2.384-1.479-1.018-.381-2.321-.715-3.88-1.001-2.177-.461-4.085-1.002-5.723-1.637a10.771 10.771 0 0 1-4.133-2.846C1.351 13.195.794 11.573.794 9.586c0-1.733.414-3.259 1.257-4.578.826-1.32 2.114-2.369 3.847-3.132C7.631 1.113 9.793.73 12.384.73c2.591 0 4.626.366 6.375 1.129 1.749.763 3.052 1.844 3.927 3.243.874 1.4 1.32 3.02 1.32 4.897h-5.66c0-.827-.223-1.574-.652-2.226-.43-.636-1.097-1.16-2.003-1.526-.906-.382-2.035-.573-3.402-.573-1.463 0-2.64.175-3.514.54-.874.367-1.462.844-1.812 1.416-.35.588-.509 1.24-.509 1.971 0 .843.287 1.558.859 2.146.572.588 1.415 1.065 2.543 1.463 1.13.397 2.576.731 4.372 1.017 2.13.382 4.007.922 5.612 1.622 1.606.7 2.893 1.7 3.88 2.989.985 1.287 1.478 2.909 1.478 4.864 0 1.956-.51 3.657-1.542 5.072-1.034 1.414-2.496 2.48-4.388 3.21-1.924.716-4.15 1.082-6.693 1.082ZM12.575 72c-2.814 0-5.167-.477-7.059-1.415-1.891-.938-3.274-2.178-4.165-3.688A9.381 9.381 0 0 1 0 62.017h5.66a3.99 3.99 0 0 0 .08.843 4.48 4.48 0 0 0 1.08 2.24c.588.652 1.367 1.177 2.337 1.558.97.382 2.098.573 3.386.573 1.542 0 2.83-.175 3.847-.509 1.018-.334 1.78-.858 2.29-1.526.508-.668.763-1.542.763-2.576 0-.906-.287-1.669-.859-2.273-.572-.604-1.367-1.097-2.384-1.478-1.018-.382-2.321-.716-3.88-1.002-2.177-.461-4.085-1.002-5.723-1.637a10.771 10.771 0 0 1-4.133-2.846c-1.113-1.256-1.67-2.877-1.67-4.865 0-1.733.414-3.259 1.257-4.578.826-1.32 2.114-2.369 3.847-3.132 1.733-.763 3.895-1.145 6.486-1.145 2.591 0 4.642.382 6.391 1.145 1.749.763 3.052 1.844 3.927 3.243.874 1.4 1.32 3.02 1.32 4.897h-5.66c0-.827-.223-1.574-.652-2.21-.43-.636-1.097-1.16-2.003-1.526-.906-.382-2.035-.573-3.402-.573-1.463 0-2.64.175-3.514.54-.874.367-1.478.843-1.812 1.416-.35.588-.509 1.24-.509 1.971 0 .843.286 1.574.859 2.146.572.588 1.415 1.065 2.543 1.447 1.13.381 2.576.715 4.372 1.017 2.13.382 4.006.922 5.612 1.622 1.606.7 2.893 1.7 3.879 2.989.986 1.287 1.479 2.909 1.479 4.864 0 1.956-.51 3.657-1.543 5.072-1.033 1.414-2.495 2.48-4.387 3.21-1.94.7-4.165 1.066-6.709 1.066ZM76.658 52.62h4.69v-4.705h-4.69v-8.918l-5.5 3.434v5.484H62.27v-3.354c0-.445.047-.716.159-.843.159-.19.556-.222.906-.222h3.64l.032-4.547h-4.53c-1.829 0-3.244.445-4.182 1.304-.922.858-1.399 2.098-1.399 3.688l-.032 3.974h-4.721v4.706h4.706V71.3h5.42V52.62h8.887v9.777c0 2.384.223 4.213.907 5.564.604 1.208 1.574 2.4 2.75 2.925 1.097.493 2.464.398 3.879.398h2.67v-4.658h-1.525c-.652 0-1.225-.032-1.717-.27-.493-.24-.89-.652-1.209-1.257-.318-.604-.238-1.43-.238-2.48l-.016-10ZM83.224 47.931h5.914l4.578 14.8.413 1.416h.064l.43-1.384 4.435-14.816h4.069l4.277 14.658.477 1.542h.063l.541-1.638 4.578-14.578h5.803l-7.885 23.37h-5.087l-4.865-15.135h-.016l-4.912 15.135h-5.008l-7.87-23.37Z"></path></g><defs><clipPath id="a"><path fill="#fff" d="M0 0h182.44v72H0z"></path></clipPath></defs></svg>