<svg xmlns="http://www.w3.org/2000/svg" width="420" height="56" viewBox="0 0 420 56" style="left: 0px; max-width: 1100px;"><path fill="#F55215" d="M222.69 43.158c7.093-7.093 7.093-18.592 0-25.685s-18.592-7.093-25.685 0c-7.092 7.093-7.092 18.592 0 25.685 7.093 7.092 18.592 7.092 25.685 0Z"></path><path fill="#000" d="M419.497 29.726c0-3.124-.676-6.062-2.145-8.766-1.469-2.705-3.334-4.85-5.968-6.435-2.635-1.585-5.526-2.378-8.86-2.378-3.334 0-6.411.816-9.116 2.425-2.704 1.631-4.826 3.823-6.341 6.62-1.539 2.799-2.309 5.83-2.309 9.117 0 3.287.77 6.341 2.309 9.116a17.466 17.466 0 0 0 6.364 6.598c2.705 1.632 5.759 2.448 9.093 2.448 2.728 0 5.199-.536 7.484-1.609a16.869 16.869 0 0 0 5.665-4.313c1.539-1.795 2.402-3.38 2.985-5.502l-8.23.163c-.42.7-1.073 1.539-1.726 2.051-.769.607-1.678 1.166-2.774 1.493-1.049.303-2.192.536-3.544.536-1.795 0-3.427-.443-4.896-1.329-1.469-.886-2.634-2.168-3.474-3.847-.559-1.096-.932-2.308-1.119-3.66h26.555c.047-.816.07-1.935.047-2.728Zm-26.299-3.497c.21-.77.49-1.492.863-2.122.909-1.655 2.098-2.867 3.567-3.683 1.469-.816 3.101-1.213 4.873-1.213 1.538 0 2.984.327 4.336.956 1.352.63 2.448 1.492 3.288 2.565.839 1.072 1.305 2.261 1.422 3.52l-18.349-.023ZM340.951 48.494c-3.031 0-5.759-.816-8.23-2.425-2.472-1.632-4.407-3.823-5.806-6.574-1.398-2.751-2.098-5.829-2.098-9.163 0-3.334.7-6.365 2.122-9.14 1.422-2.774 3.334-4.989 5.805-6.597 2.448-1.632 5.176-2.425 8.183-2.425 1.866 0 3.591.28 5.199.84 1.609.559 3.334 1.678 4.547 2.704 1.189 1.002 2.191 2.378 2.611 4.406v-6.924h7.67v34.272h-7.67V41.36c-.793 1.772-1.376 2.75-2.938 4.01-1.329 1.072-2.634 1.795-4.243 2.331a16.68 16.68 0 0 1-5.152.793Zm1.935-7.484c1.865 0 3.567-.466 5.106-1.399 1.538-.932 2.751-2.215 3.637-3.87.886-1.632 1.329-3.45 1.329-5.432 0-1.982-.443-3.754-1.329-5.386-.886-1.632-2.099-2.938-3.661-3.893-1.538-.956-3.24-1.423-5.082-1.423-1.842 0-3.544.443-5.059 1.353a9.997 9.997 0 0 0-3.661 3.777c-.909 1.608-1.352 3.474-1.352 5.595 0 2.122.443 4.057 1.352 5.666.909 1.608 2.122 2.867 3.661 3.73 1.538.862 3.24 1.282 5.059 1.282ZM364.265 13.173h7.74v6.201c.56-1.282 1.283-2.401 2.145-3.31a8.869 8.869 0 0 1 3.101-2.122c1.189-.49 2.518-.746 3.94-.746h3.661v6.948h-3.241c-1.842 0-3.474.443-4.873 1.329-1.399.886-2.494 2.191-3.264 3.893-.769 1.702-1.165 3.777-1.165 6.178v15.948h-8.044v-34.32ZM264.363 20.074h6.901v-6.901h-6.901V.117l-8.067 5.035v8.044h-13.033v-4.92c0-.652.07-1.049.233-1.235.233-.28.816-.326 1.329-.326h5.339l.047-6.668h-6.645c-2.681 0-4.756.652-6.132 1.911-1.352 1.26-2.051 3.055-2.051 5.41l-.047 5.828h-6.924v6.878h6.901v27.37h7.95v-27.37h13.033v14.338c0 3.497.326 6.178 1.329 8.16.886 1.772 2.308 3.52 4.033 4.29 1.609.723 3.614.583 5.689.583h3.917v-6.831h-2.238c-.956 0-1.796-.047-2.518-.397-.723-.35-1.306-.956-1.772-1.841-.467-.886-.35-2.099-.35-3.637l-.023-14.665ZM273.992 13.173h8.673l6.714 21.705.606 2.075h.094l.629-2.028 6.505-21.729h5.968l6.272 21.496.699 2.261h.094l.792-2.401 6.715-21.38h8.51l-11.564 34.273h-7.461l-7.134-22.195h-.024l-7.204 22.195h-7.297l-11.587-34.272ZM55.302 48.494c-3.031 0-5.759-.816-8.23-2.425-2.472-1.632-4.407-3.823-5.805-6.574-1.4-2.751-2.099-5.829-2.099-9.163 0-3.334.7-6.365 2.122-9.14 1.399-2.774 3.357-4.989 5.805-6.597 2.448-1.632 5.176-2.425 8.184-2.425 1.865 0 3.613.28 5.199.84 1.608.559 3.357 1.678 4.546 2.704 1.189 1.026 2.192 2.378 2.611 4.406v-6.924h7.67v34.272h-7.67V41.36c-.793 1.772-1.375 2.75-2.937 4.01-1.306 1.072-2.635 1.795-4.244 2.331-1.585.513-3.31.793-5.152.793Zm1.935-7.484c1.865 0 3.567-.466 5.106-1.399 1.539-.932 2.751-2.215 3.637-3.87.886-1.632 1.329-3.45 1.329-5.432 0-1.982-.443-3.754-1.33-5.386-.885-1.632-2.097-2.938-3.66-3.893-1.538-.956-3.24-1.423-5.082-1.423-1.842 0-3.544.443-5.06 1.353a10.001 10.001 0 0 0-3.66 3.777c-.909 1.608-1.352 3.474-1.352 5.595 0 2.122.443 4.057 1.352 5.666.91 1.632 2.122 2.867 3.66 3.73 1.54.862 3.218 1.282 5.06 1.282ZM134.618 29.726c0-3.124-.676-6.062-2.145-8.766-1.469-2.705-3.334-4.85-5.969-6.435-2.634-1.585-5.525-2.378-8.859-2.378-3.334 0-6.412.816-9.116 2.425-2.705 1.631-4.826 3.823-6.342 6.62-1.538 2.799-2.308 5.83-2.308 9.117 0 3.287.77 6.341 2.308 9.116a17.476 17.476 0 0 0 6.365 6.598c2.705 1.632 5.759 2.448 9.093 2.448 2.728 0 5.199-.536 7.484-1.609a16.878 16.878 0 0 0 5.665-4.313c1.539-1.795 2.401-3.38 2.984-5.502l-8.23.163c-.419.7-1.072 1.539-1.748 2.051-.77.607-1.679 1.166-2.775 1.493-1.049.303-2.191.536-3.543.536-1.796 0-3.428-.443-4.897-1.329-1.468-.886-2.634-2.168-3.497-3.847-.559-1.096-.932-2.308-1.119-3.66h26.555c.094-.816.094-1.935.094-2.728Zm-26.299-3.52c.21-.77.49-1.493.863-2.122.909-1.655 2.098-2.868 3.567-3.684 1.469-.816 3.101-1.212 4.896-1.212 1.538 0 2.984.326 4.336.956 1.352.63 2.448 1.492 3.288 2.564.839 1.073 1.305 2.262 1.422 3.52l-18.372-.023ZM92.908 0c-2.681 0-4.756.653-6.132 1.912-1.352 1.259-2.051 3.054-2.051 5.409l-.047 5.852h-6.924v6.9h6.9v27.372h7.951V20.074h6.901v-6.901h-6.901V8.23c0-.653.07-1.05.233-1.236.233-.28.816-.326 1.33-.326h5.338L99.553 0h-6.645ZM18.418 48.494c-4.126 0-7.577-.7-10.351-2.075-2.775-1.375-4.803-3.194-6.109-5.409C.653 38.795 0 36.417 0 33.876h8.3c0 .21.023.396.023.606.024.21.047.42.094.63a6.57 6.57 0 0 0 1.585 3.287c.862.98 2.005 1.725 3.427 2.285 1.422.56 3.078.839 4.966.839 2.262 0 4.15-.256 5.642-.746s2.611-1.259 3.358-2.238c.746-.98 1.119-2.262 1.119-3.777 0-1.33-.42-2.448-1.26-3.334-.839-.886-2.004-1.609-3.497-2.168-1.492-.56-3.404-1.05-5.688-1.47-3.194-.675-5.992-1.468-8.393-2.4-2.379-.933-4.407-2.332-6.062-4.174-1.656-1.842-2.472-4.22-2.472-7.134 0-2.541.607-4.78 1.842-6.715 1.213-1.935 3.101-3.474 5.642-4.593 2.542-1.119 5.712-1.678 9.513-1.678 3.8 0 6.808.56 9.372 1.678 2.565 1.12 4.476 2.705 5.759 4.757 1.282 2.051 1.935 4.43 1.935 7.18h-8.3c0-1.212-.327-2.308-.956-3.24-.63-.956-1.609-1.702-2.938-2.238-1.329-.56-2.984-.84-4.989-.84-2.145 0-3.87.257-5.152.793-1.283.536-2.169 1.236-2.658 2.075a5.74 5.74 0 0 0-.746 2.89c0 1.236.42 2.309 1.259 3.148.839.863 2.075 1.562 3.707 2.122 1.632.56 3.777 1.072 6.411 1.492 3.124.56 5.875 1.352 8.23 2.378 2.355 1.026 4.243 2.495 5.689 4.383 1.445 1.889 2.168 4.267 2.168 7.135 0 2.867-.746 5.362-2.261 7.437-1.516 2.075-3.66 3.637-6.435 4.71-2.821 1.002-6.085 1.538-9.816 1.538ZM170.802 48.494c-4.127 0-7.577-.7-10.352-2.075-2.774-1.375-4.803-3.194-6.108-5.409-1.306-2.215-1.959-4.593-1.959-7.134h8.3c0 .21 0 .396.024.606.023.21.046.42.093.63a6.575 6.575 0 0 0 1.585 3.287c.863.98 2.005 1.725 3.427 2.285 1.423.56 3.078.839 4.966.839 2.262 0 4.15-.256 5.642-.746 1.493-.49 2.612-1.259 3.358-2.238.746-.98 1.119-2.262 1.119-3.777 0-1.33-.42-2.448-1.259-3.334-.839-.886-2.005-1.609-3.497-2.168-1.492-.56-3.404-1.05-5.689-1.47-3.194-.675-5.992-1.468-8.393-2.4-2.378-.933-4.407-2.332-6.062-4.174-1.655-1.842-2.471-4.22-2.471-7.134 0-2.541.606-4.78 1.842-6.715 1.212-1.935 3.1-3.474 5.642-4.593 2.541-1.119 5.712-1.678 9.512-1.678 3.8 0 6.808.56 9.372 1.678 2.565 1.12 4.477 2.705 5.759 4.757 1.282 2.051 1.935 4.43 1.935 7.18h-8.3c0-1.212-.326-2.308-.956-3.24-.629-.956-1.608-1.702-2.937-2.238-1.329-.56-2.985-.84-4.99-.84-2.145 0-3.87.257-5.152.793s-2.168 1.236-2.658 2.075c-.513.863-.746 1.818-.746 2.89 0 1.236.42 2.309 1.259 3.148.839.863 2.075 1.562 3.73 2.122 1.656.56 3.777 1.072 6.412 1.492 3.124.56 5.875 1.352 8.23 2.378 2.354 1.026 4.243 2.495 5.688 4.383 1.446 1.889 2.169 4.267 2.169 7.135 0 2.867-.746 5.362-2.262 7.437-1.515 2.075-3.66 3.637-6.435 4.71-2.867 1.002-6.108 1.538-9.838 1.538Z"></path></svg>