<svg width="433" height="498" viewBox="0 0 433 498" fill="none" xmlns="http://www.w3.org/2000/svg">
<path d="M216.292 497.5C300.368 413.423 432.294 282.208 432.294 282.208L432.29 241L216.292 456.294V469.502C216.292 469.502 216.292 492.342 216.292 497.5Z" fill="white"/>
<path d="M216.292 456.294L0.289551 241L0.289551 282.197C84.3663 366.274 132.215 413.423 216.292 497.5C216.292 492.342 216.292 469.502 216.292 469.502V456.294Z" fill="white"/>
<path d="M216.292 458C300.368 373.923 432.294 242.708 432.294 242.708L432.29 216.29L216.292 431.584V444.792C216.292 444.792 216.292 452.842 216.292 458Z" fill="#7C349E"/>
<path d="M216.292 431.584L0.289551 216.29V242.697C84.3663 326.774 132.215 373.923 216.292 458C216.292 452.842 216.292 444.792 216.292 444.792V431.584Z" fill="#440861"/>
<path fill-rule="evenodd" clip-rule="evenodd" d="M216.291 0.292908L432.29 216.292L216.291 432.291L0.29248 216.292L216.291 0.292908ZM1.70669 216.292L216.291 430.877L430.876 216.292L216.291 1.70711L1.70669 216.292Z" fill="#7C349E"/>
<path fill-rule="evenodd" clip-rule="evenodd" d="M231.945 102.098C223.005 102.247 211.432 106.561 198.621 119.373L108.144 209.849L93.2949 195L183.771 104.524C199.358 88.9374 215.852 81.3641 231.594 81.1009C247.387 80.8368 260.937 87.9767 270.194 98.8784C288.611 120.57 290.299 157.133 263.34 184.092L255.916 176.668L248.491 169.243C267.76 149.974 265.486 125.78 254.185 112.47C248.583 105.871 240.835 101.949 231.945 102.098ZM255.916 176.668C248.491 169.243 248.491 169.243 248.491 169.243L248.49 169.244L248.486 169.248L170.563 247.171C155.941 261.793 148.698 277.486 148.198 292.529C147.696 307.604 154.033 320.813 164.208 329.938C184.697 348.315 219.425 349.522 246.17 322.777L337.5 231.448L330.076 224.022L322.65 216.598L231.321 307.928C211.837 327.412 189.77 324.656 178.23 314.305C172.39 309.067 168.903 301.721 169.186 293.228C169.47 284.703 173.619 273.814 185.413 262.02L263.339 184.094L263.34 184.092C263.34 184.092 263.34 184.092 255.916 176.668Z" fill="#7C349E"/>
<path fill-rule="evenodd" clip-rule="evenodd" d="M123.702 217.613C123.702 238.694 106.612 255.783 85.5314 255.783C64.4504 255.783 47.3608 238.694 47.3608 217.613C47.3608 196.532 64.4504 179.442 85.5314 179.442C106.612 179.442 123.702 196.532 123.702 217.613ZM85.5314 234.783C95.0144 234.783 102.702 227.096 102.702 217.613C102.702 208.13 95.0144 200.442 85.5314 200.442C76.0483 200.442 68.3608 208.13 68.3608 217.613C68.3608 227.096 76.0483 234.783 85.5314 234.783Z" fill="#7C349E"/>
<path fill-rule="evenodd" clip-rule="evenodd" d="M385.222 207.046C385.222 228.127 368.132 245.217 347.051 245.217C325.97 245.217 308.881 228.127 308.881 207.046C308.881 185.965 325.97 168.876 347.051 168.876C368.132 168.876 385.222 185.965 385.222 207.046ZM347.051 224.217C356.534 224.217 364.222 216.529 364.222 207.046C364.222 197.563 356.534 189.876 347.051 189.876C337.568 189.876 329.881 197.563 329.881 207.046C329.881 216.529 337.568 224.217 347.051 224.217Z" fill="#7C349E"/>
</svg>
