<svg width="433" height="499" viewBox="0 0 433 499" fill="none" xmlns="http://www.w3.org/2000/svg">
<path d="M216.5 498.706C300.576 414.629 432.889 283.414 432.889 283.414L432.5 242.5L216.5 457.5L0 242.206L0 283.403C84.0767 367.48 132.423 414.629 216.5 498.706Z" fill="white"/>
<path d="M216.292 458C300.369 373.923 432.295 242.708 432.295 242.708L432.29 216.29L216.292 431.584V444.792C216.292 444.792 216.292 452.842 216.292 458Z" fill="#7C349E"/>
<path d="M216.292 431.584L0.290039 216.29V242.697C84.3668 326.774 132.215 373.923 216.292 458C216.292 452.842 216.292 444.792 216.292 444.792V431.584Z" fill="#440861"/>
<path fill-rule="evenodd" clip-rule="evenodd" d="M216.292 0.292908L432.291 216.292L216.292 432.291L0.292969 216.292L216.292 0.292908ZM1.70718 216.292L216.292 430.877L430.877 216.292L216.292 1.70711L1.70718 216.292Z" fill="#7C349E"/>
<path fill-rule="evenodd" clip-rule="evenodd" d="M231.946 102.098C223.005 102.247 211.433 106.561 198.621 119.373L108.145 209.849L93.2954 195L183.772 104.524C199.358 88.9374 215.853 81.3641 231.595 81.1009C247.387 80.8368 260.938 87.9767 270.194 98.8784C288.612 120.57 290.3 157.133 263.341 184.092L255.916 176.668L248.492 169.243C267.761 149.974 265.487 125.78 254.186 112.47C248.583 105.871 240.836 101.949 231.946 102.098ZM255.916 176.668C248.492 169.243 248.492 169.243 248.492 169.243L248.49 169.244L248.487 169.248L170.564 247.171C155.942 261.793 148.699 277.486 148.198 292.529C147.696 307.604 154.034 320.813 164.209 329.938C184.698 348.315 219.426 349.522 246.17 322.777L337.5 231.448L330.076 224.022L322.651 216.598L231.321 307.928C211.837 327.412 189.77 324.656 178.23 314.305C172.39 309.067 168.904 301.721 169.186 293.228C169.47 284.703 173.619 273.814 185.413 262.02L263.34 184.094L263.341 184.092C263.341 184.092 263.341 184.092 255.916 176.668Z" fill="#7C349E"/>
<path fill-rule="evenodd" clip-rule="evenodd" d="M123.702 217.613C123.702 238.694 106.613 255.783 85.5318 255.783C64.4508 255.783 47.3613 238.694 47.3613 217.613C47.3613 196.532 64.4508 179.442 85.5318 179.442C106.613 179.442 123.702 196.532 123.702 217.613ZM85.5318 234.783C95.0149 234.783 102.702 227.096 102.702 217.613C102.702 208.13 95.0149 200.442 85.5318 200.442C76.0488 200.442 68.3613 208.13 68.3613 217.613C68.3613 227.096 76.0488 234.783 85.5318 234.783Z" fill="#7C349E"/>
<path fill-rule="evenodd" clip-rule="evenodd" d="M385.222 207.046C385.222 228.127 368.133 245.217 347.052 245.217C325.971 245.217 308.881 228.127 308.881 207.046C308.881 185.965 325.971 168.876 347.052 168.876C368.133 168.876 385.222 185.965 385.222 207.046ZM347.052 224.217C356.535 224.217 364.222 216.529 364.222 207.046C364.222 197.563 356.535 189.876 347.052 189.876C337.569 189.876 329.881 197.563 329.881 207.046C329.881 216.529 337.569 224.217 347.052 224.217Z" fill="#7C349E"/>
</svg>
