<svg>
<path d="M521.545 19.9901H24.98V345.164H521.545V19.9901Z" fill="#14B0D1" stroke="#2FC1FF"/>
<path d="M383.024 186.688V212.514H314.35H245.676H159.98V186.688H271.502H340.176H383.024Z" fill="#2FC1FF"/>
<path d="M60.349 56.1899C63.309 56.1899 65.8957 56.7633 68.109 57.9099C70.349 59.0299 72.069 60.6566 73.269 62.7899C74.4957 64.8966 75.109 67.3633 75.109 70.1899C75.109 73.0166 74.4957 75.4699 73.269 77.5499C72.069 79.6299 70.349 81.2299 68.109 82.3499C65.8957 83.4433 63.309 83.9899 60.349 83.9899H51.269V56.1899H60.349ZM60.349 80.2699C63.6024 80.2699 66.0957 79.3899 67.829 77.6299C69.5624 75.8699 70.429 73.3899 70.429 70.1899C70.429 66.9633 69.5624 64.4433 67.829 62.6299C66.0957 60.8166 63.6024 59.9099 60.349 59.9099H55.829V80.2699H60.349ZM99.8284 72.4299C99.8284 73.2566 99.7751 74.0033 99.6684 74.6699H82.8284C82.9618 76.4299 83.6151 77.8433 84.7884 78.9099C85.9618 79.9766 87.4018 80.5099 89.1084 80.5099C91.5618 80.5099 93.2951 79.4833 94.3084 77.4299H99.2284C98.5618 79.4566 97.3484 81.1233 95.5884 82.4299C93.8551 83.7099 91.6951 84.3499 89.1084 84.3499C87.0018 84.3499 85.1084 83.8833 83.4284 82.9499C81.7751 81.9899 80.4684 80.6566 79.5084 78.9499C78.5751 77.2166 78.1084 75.2166 78.1084 72.9499C78.1084 70.6833 78.5618 68.6966 79.4684 66.9899C80.4018 65.2566 81.6951 63.9233 83.3484 62.9899C85.0284 62.0566 86.9484 61.5899 89.1084 61.5899C91.1884 61.5899 93.0418 62.0433 94.6684 62.9499C96.2951 63.8566 97.5618 65.1366 98.4684 66.7899C99.3751 68.4166 99.8284 70.2966 99.8284 72.4299ZM95.0684 70.9899C95.0418 69.3099 94.4418 67.9633 93.2684 66.9499C92.0951 65.9366 90.6418 65.4299 88.9084 65.4299C87.3351 65.4299 85.9884 65.9366 84.8684 66.9499C83.7484 67.9366 83.0818 69.2833 82.8684 70.9899H95.0684ZM102.796 72.9499C102.796 70.6833 103.249 68.6966 104.156 66.9899C105.089 65.2566 106.369 63.9233 107.996 62.9899C109.623 62.0566 111.489 61.5899 113.596 61.5899C116.263 61.5899 118.463 62.2299 120.196 63.5099C121.956 64.7633 123.143 66.5633 123.756 68.9099H118.836C118.436 67.8166 117.796 66.9633 116.916 66.3499C116.036 65.7366 114.929 65.4299 113.596 65.4299C111.729 65.4299 110.236 66.0966 109.116 67.4299C108.023 68.7366 107.476 70.5766 107.476 72.9499C107.476 75.3233 108.023 77.1766 109.116 78.5099C110.236 79.8433 111.729 80.5099 113.596 80.5099C116.236 80.5099 117.983 79.3499 118.836 77.0299H123.756C123.116 79.2699 121.916 81.0566 120.156 82.3899C118.396 83.6966 116.209 84.3499 113.596 84.3499C111.489 84.3499 109.623 83.8833 107.996 82.9499C106.369 81.9899 105.089 80.6566 104.156 78.9499C103.249 77.2166 102.796 75.2166 102.796 72.9499ZM126.78 72.8699C126.78 70.6566 127.234 68.6966 128.14 66.9899C129.074 65.2833 130.327 63.9633 131.9 63.0299C133.5 62.0699 135.26 61.5899 137.18 61.5899C138.914 61.5899 140.42 61.9366 141.7 62.6299C143.007 63.2966 144.047 64.1366 144.82 65.1499V61.9499H149.42V83.9899H144.82V80.7099C144.047 81.7499 142.994 82.6166 141.66 83.3099C140.327 84.0033 138.807 84.3499 137.1 84.3499C135.207 84.3499 133.474 83.8699 131.9 82.9099C130.327 81.9233 129.074 80.5633 128.14 78.8299C127.234 77.0699 126.78 75.0833 126.78 72.8699ZM144.82 72.9499C144.82 71.4299 144.5 70.1099 143.86 68.9899C143.247 67.8699 142.434 67.0166 141.42 66.4299C140.407 65.8433 139.314 65.5499 138.14 65.5499C136.967 65.5499 135.874 65.8433 134.86 66.4299C133.847 66.9899 133.02 67.8299 132.38 68.9499C131.767 70.0433 131.46 71.3499 131.46 72.8699C131.46 74.3899 131.767 75.7233 132.38 76.8699C133.02 78.0166 133.847 78.8966 134.86 79.5099C135.9 80.0966 136.994 80.3899 138.14 80.3899C139.314 80.3899 140.407 80.0966 141.42 79.5099C142.434 78.9233 143.247 78.0699 143.86 76.9499C144.5 75.8033 144.82 74.4699 144.82 72.9499ZM175.25 61.9499L161.73 94.3499H157.01L161.49 83.6299L152.81 61.9499H157.89L164.09 78.7499L170.53 61.9499H175.25Z" fill="white"/>
<path d="M411.959 318.79C414.519 316.576 416.532 314.763 417.999 313.35C419.492 311.91 420.732 310.416 421.719 308.87C422.705 307.323 423.199 305.776 423.199 304.23C423.199 302.63 422.812 301.376 422.039 300.47C421.292 299.563 420.105 299.11 418.479 299.11C416.905 299.11 415.679 299.616 414.799 300.63C413.945 301.616 413.492 302.95 413.439 304.63H409.039C409.119 301.59 410.025 299.27 411.759 297.67C413.519 296.043 415.745 295.23 418.439 295.23C421.345 295.23 423.612 296.03 425.239 297.63C426.892 299.23 427.719 301.363 427.719 304.03C427.719 305.95 427.225 307.803 426.239 309.59C425.279 311.35 424.119 312.936 422.759 314.35C421.425 315.736 419.719 317.35 417.639 319.19L415.839 320.79H428.519V324.59H409.079V321.27L411.959 318.79ZM432.525 310.03C432.525 305.416 433.298 301.816 434.845 299.23C436.418 296.616 439.111 295.31 442.925 295.31C446.738 295.31 449.418 296.616 450.965 299.23C452.538 301.816 453.325 305.416 453.325 310.03C453.325 314.696 452.538 318.35 450.965 320.99C449.418 323.603 446.738 324.91 442.925 324.91C439.111 324.91 436.418 323.603 434.845 320.99C433.298 318.35 432.525 314.696 432.525 310.03ZM448.845 310.03C448.845 307.87 448.698 306.043 448.405 304.55C448.138 303.056 447.578 301.843 446.725 300.91C445.871 299.95 444.605 299.47 442.925 299.47C441.245 299.47 439.978 299.95 439.125 300.91C438.271 301.843 437.698 303.056 437.405 304.55C437.138 306.043 437.005 307.87 437.005 310.03C437.005 312.27 437.138 314.15 437.405 315.67C437.671 317.19 438.231 318.416 439.085 319.35C439.965 320.283 441.245 320.75 442.925 320.75C444.605 320.75 445.871 320.283 446.725 319.35C447.605 318.416 448.178 317.19 448.445 315.67C448.711 314.15 448.845 312.27 448.845 310.03ZM460.67 318.79C463.23 316.576 465.243 314.763 466.71 313.35C468.203 311.91 469.443 310.416 470.43 308.87C471.416 307.323 471.91 305.776 471.91 304.23C471.91 302.63 471.523 301.376 470.75 300.47C470.003 299.563 468.816 299.11 467.19 299.11C465.616 299.11 464.39 299.616 463.51 300.63C462.656 301.616 462.203 302.95 462.15 304.63H457.75C457.83 301.59 458.736 299.27 460.47 297.67C462.23 296.043 464.456 295.23 467.15 295.23C470.056 295.23 472.323 296.03 473.95 297.63C475.603 299.23 476.43 301.363 476.43 304.03C476.43 305.95 475.936 307.803 474.95 309.59C473.99 311.35 472.83 312.936 471.47 314.35C470.136 315.736 468.43 317.35 466.35 319.19L464.55 320.79H477.23V324.59H457.79V321.27L460.67 318.79ZM483.755 318.79C486.315 316.576 488.329 314.763 489.795 313.35C491.289 311.91 492.529 310.416 493.515 308.87C494.502 307.323 494.995 305.776 494.995 304.23C494.995 302.63 494.609 301.376 493.835 300.47C493.089 299.563 491.902 299.11 490.275 299.11C488.702 299.11 487.475 299.616 486.595 300.63C485.742 301.616 485.289 302.95 485.235 304.63H480.835C480.915 301.59 481.822 299.27 483.555 297.67C485.315 296.043 487.542 295.23 490.235 295.23C493.142 295.23 495.409 296.03 497.035 297.63C498.689 299.23 499.515 301.363 499.515 304.03C499.515 305.95 499.022 307.803 498.035 309.59C497.075 311.35 495.915 312.936 494.555 314.35C493.222 315.736 491.515 317.35 489.435 319.19L487.635 320.79H500.315V324.59H480.875V321.27L483.755 318.79Z" fill="white"/>
</svg>
