<svg width="545" height="368" viewBox="0 0 545 368" fill="none" xmlns="http://www.w3.org/2000/svg">
<path d="M521.415 19.3201H24.8501V344.494H521.415V19.3201Z" fill="#0099BA" stroke="#65D1FF"/>
<path d="M380.894 184.14V209.966H312.22H243.546H157.85V184.14H269.372H338.046H380.894Z" fill="#2FC1FF"/>
<path d="M60.2192 55.5199C63.1792 55.5199 65.7658 56.0933 67.9792 57.2399C70.2192 58.3599 71.9392 59.9866 73.1392 62.1199C74.3658 64.2266 74.9792 66.6933 74.9792 69.5199C74.9792 72.3466 74.3658 74.7999 73.1392 76.8799C71.9392 78.9599 70.2192 80.5599 67.9792 81.6799C65.7658 82.7733 63.1792 83.3199 60.2192 83.3199H51.1392V55.5199H60.2192ZM60.2192 79.5999C63.4725 79.5999 65.9658 78.7199 67.6992 76.9599C69.4325 75.1999 70.2992 72.7199 70.2992 69.5199C70.2992 66.2933 69.4325 63.7733 67.6992 61.9599C65.9658 60.1466 63.4725 59.2399 60.2192 59.2399H55.6992V79.5999H60.2192ZM99.6985 71.7599C99.6985 72.5866 99.6452 73.3333 99.5385 73.9999H82.6985C82.8319 75.7599 83.4852 77.1733 84.6585 78.2399C85.8319 79.3066 87.2719 79.8399 88.9785 79.8399C91.4319 79.8399 93.1652 78.8133 94.1785 76.7599H99.0985C98.4319 78.7866 97.2185 80.4533 95.4585 81.7599C93.7252 83.0399 91.5652 83.6799 88.9785 83.6799C86.8719 83.6799 84.9785 83.2133 83.2985 82.2799C81.6452 81.3199 80.3385 79.9866 79.3785 78.2799C78.4452 76.5466 77.9785 74.5466 77.9785 72.2799C77.9785 70.0133 78.4319 68.0266 79.3385 66.3199C80.2719 64.5866 81.5652 63.2533 83.2185 62.3199C84.8985 61.3866 86.8185 60.9199 88.9785 60.9199C91.0585 60.9199 92.9119 61.3733 94.5385 62.2799C96.1652 63.1866 97.4319 64.4666 98.3385 66.1199C99.2452 67.7466 99.6985 69.6266 99.6985 71.7599ZM94.9385 70.3199C94.9119 68.6399 94.3119 67.2933 93.1385 66.2799C91.9652 65.2666 90.5119 64.7599 88.7785 64.7599C87.2052 64.7599 85.8585 65.2666 84.7385 66.2799C83.6185 67.2666 82.9519 68.6133 82.7385 70.3199H94.9385ZM102.666 72.2799C102.666 70.0133 103.119 68.0266 104.026 66.3199C104.959 64.5866 106.239 63.2533 107.866 62.3199C109.493 61.3866 111.359 60.9199 113.466 60.9199C116.133 60.9199 118.333 61.5599 120.066 62.8399C121.826 64.0933 123.013 65.8933 123.626 68.2399H118.706C118.306 67.1466 117.666 66.2933 116.786 65.6799C115.906 65.0666 114.799 64.7599 113.466 64.7599C111.599 64.7599 110.106 65.4266 108.986 66.7599C107.893 68.0666 107.346 69.9066 107.346 72.2799C107.346 74.6533 107.893 76.5066 108.986 77.8399C110.106 79.1733 111.599 79.8399 113.466 79.8399C116.106 79.8399 117.853 78.6799 118.706 76.3599H123.626C122.986 78.5999 121.786 80.3866 120.026 81.7199C118.266 83.0266 116.079 83.6799 113.466 83.6799C111.359 83.6799 109.493 83.2133 107.866 82.2799C106.239 81.3199 104.959 79.9866 104.026 78.2799C103.119 76.5466 102.666 74.5466 102.666 72.2799ZM126.65 72.1999C126.65 69.9866 127.104 68.0266 128.01 66.3199C128.944 64.6133 130.197 63.2933 131.77 62.3599C133.37 61.3999 135.13 60.9199 137.05 60.9199C138.784 60.9199 140.29 61.2666 141.57 61.9599C142.877 62.6266 143.917 63.4666 144.69 64.4799V61.2799H149.29V83.3199H144.69V80.0399C143.917 81.0799 142.864 81.9466 141.53 82.6399C140.197 83.3333 138.677 83.6799 136.97 83.6799C135.077 83.6799 133.344 83.1999 131.77 82.2399C130.197 81.2533 128.944 79.8933 128.01 78.1599C127.104 76.3999 126.65 74.4133 126.65 72.1999ZM144.69 72.2799C144.69 70.7599 144.37 69.4399 143.73 68.3199C143.117 67.1999 142.304 66.3466 141.29 65.7599C140.277 65.1733 139.184 64.8799 138.01 64.8799C136.837 64.8799 135.744 65.1733 134.73 65.7599C133.717 66.3199 132.89 67.1599 132.25 68.2799C131.637 69.3733 131.33 70.6799 131.33 72.1999C131.33 73.7199 131.637 75.0533 132.25 76.1999C132.89 77.3466 133.717 78.2266 134.73 78.8399C135.77 79.4266 136.864 79.7199 138.01 79.7199C139.184 79.7199 140.277 79.4266 141.29 78.8399C142.304 78.2533 143.117 77.3999 143.73 76.2799C144.37 75.1333 144.69 73.7999 144.69 72.2799ZM175.12 61.2799L161.6 93.6799H156.88L161.36 82.9599L152.68 61.2799H157.76L163.96 78.0799L170.4 61.2799H175.12Z" fill="white"/>
<path d="M411.829 318.12C414.389 315.906 416.402 314.093 417.869 312.68C419.362 311.24 420.602 309.746 421.589 308.2C422.575 306.653 423.069 305.106 423.069 303.56C423.069 301.96 422.682 300.706 421.909 299.8C421.162 298.893 419.975 298.44 418.349 298.44C416.775 298.44 415.549 298.946 414.669 299.96C413.815 300.946 413.362 302.28 413.309 303.96H408.909C408.989 300.92 409.895 298.6 411.629 297C413.389 295.373 415.615 294.56 418.309 294.56C421.215 294.56 423.482 295.36 425.109 296.96C426.762 298.56 427.589 300.693 427.589 303.36C427.589 305.28 427.095 307.133 426.109 308.92C425.149 310.68 423.989 312.266 422.629 313.68C421.295 315.066 419.589 316.68 417.509 318.52L415.709 320.12H428.389V323.92H408.949V320.6L411.829 318.12ZM432.395 309.36C432.395 304.746 433.168 301.146 434.715 298.56C436.288 295.946 438.981 294.64 442.795 294.64C446.608 294.64 449.288 295.946 450.835 298.56C452.408 301.146 453.195 304.746 453.195 309.36C453.195 314.026 452.408 317.68 450.835 320.32C449.288 322.933 446.608 324.24 442.795 324.24C438.981 324.24 436.288 322.933 434.715 320.32C433.168 317.68 432.395 314.026 432.395 309.36ZM448.715 309.36C448.715 307.2 448.568 305.373 448.275 303.88C448.008 302.386 447.448 301.173 446.595 300.24C445.741 299.28 444.475 298.8 442.795 298.8C441.115 298.8 439.848 299.28 438.995 300.24C438.141 301.173 437.568 302.386 437.275 303.88C437.008 305.373 436.875 307.2 436.875 309.36C436.875 311.6 437.008 313.48 437.275 315C437.541 316.52 438.101 317.746 438.955 318.68C439.835 319.613 441.115 320.08 442.795 320.08C444.475 320.08 445.741 319.613 446.595 318.68C447.475 317.746 448.048 316.52 448.315 315C448.581 313.48 448.715 311.6 448.715 309.36ZM460.54 318.12C463.1 315.906 465.113 314.093 466.58 312.68C468.073 311.24 469.313 309.746 470.3 308.2C471.286 306.653 471.78 305.106 471.78 303.56C471.78 301.96 471.393 300.706 470.62 299.8C469.873 298.893 468.686 298.44 467.06 298.44C465.486 298.44 464.26 298.946 463.38 299.96C462.526 300.946 462.073 302.28 462.02 303.96H457.62C457.7 300.92 458.606 298.6 460.34 297C462.1 295.373 464.326 294.56 467.02 294.56C469.926 294.56 472.193 295.36 473.82 296.96C475.473 298.56 476.3 300.693 476.3 303.36C476.3 305.28 475.806 307.133 474.82 308.92C473.86 310.68 472.7 312.266 471.34 313.68C470.006 315.066 468.3 316.68 466.22 318.52L464.42 320.12H477.1V323.92H457.66V320.6L460.54 318.12ZM483.626 318.12C486.186 315.906 488.199 314.093 489.666 312.68C491.159 311.24 492.399 309.746 493.386 308.2C494.372 306.653 494.866 305.106 494.866 303.56C494.866 301.96 494.479 300.706 493.706 299.8C492.959 298.893 491.772 298.44 490.146 298.44C488.572 298.44 487.346 298.946 486.466 299.96C485.612 300.946 485.159 302.28 485.106 303.96H480.706C480.786 300.92 481.692 298.6 483.426 297C485.186 295.373 487.412 294.56 490.106 294.56C493.012 294.56 495.279 295.36 496.906 296.96C498.559 298.56 499.386 300.693 499.386 303.36C499.386 305.28 498.892 307.133 497.906 308.92C496.946 310.68 495.786 312.266 494.426 313.68C493.092 315.066 491.386 316.68 489.306 318.52L487.506 320.12H500.186V323.92H480.746V320.6L483.626 318.12Z" fill="white"/>
</svg>
