<svg width="117" height="127" viewBox="0 0 117 127" fill="none" xmlns="http://www.w3.org/2000/svg">
<path d="M58.5 114.8L112 61.2996L58.5 7.79956L5 61.2996L58.5 114.8Z" fill="#094B6B" stroke="#1293D2"/>
<path d="M69.3391 78.8H77V65.2435C77 58.5883 75.5678 53.4721 67.8028 53.4721C66.3458 53.4178 64.9014 53.7604 63.6235 54.4633C62.3455 55.1662 61.2818 56.2032 60.5456 57.4638H60.4465V54.086H53.0921V78.7991H60.7529V66.5687C60.7529 63.345 61.3639 60.2226 65.354 60.2226C69.2876 60.2226 69.3391 63.9132 69.3391 66.7793V78.8Z" fill="#1293D2"/>
<path d="M41.9768 49.9572C42.7081 50.4465 43.5679 50.7075 44.4473 50.7073C45.6264 50.707 46.7571 50.2377 47.5907 49.4025C48.4244 48.5673 48.8927 47.4347 48.8927 46.2537C48.8927 45.3728 48.6319 44.5117 48.1433 43.7793C47.6547 43.0469 46.9602 42.476 46.1477 42.139C45.3351 41.8019 44.4411 41.7138 43.5785 41.8857C42.716 42.0576 41.9238 42.4819 41.302 43.1048C40.6802 43.7278 40.2568 44.5214 40.0853 45.3854C39.9139 46.2494 40.0021 47.1449 40.3387 47.9587C40.6754 48.7725 41.2455 49.468 41.9768 49.9572Z" fill="#1293D2"/>
<path d="M40.609 78.7991H48.2778L48.2788 54.086H40.609V78.7991Z" fill="#1293D2"/>
</svg>
