<svg>
    <path d="M521.065 19.4991H24.5V344.673H521.065V19.4991Z" fill="#E19400" stroke="#FFA800"/>
    <path d="M228.993 260.549C202.877 226.75 213.197 190.135 221.622 176.053C220.178 173.513 218.892 171.049 217.755 168.659C206.789 159.356 205.935 142.955 206.879 135.917C221.801 81.813 326.926 107.399 275.327 181.334C285.436 175.419 306.918 178.869 316.396 181.334C322.293 165.279 336.404 154.929 350.093 152.816C382.738 187.671 366.942 237.312 356.412 256.324C329.032 268.998 294.282 285.898 228.993 260.549Z" fill="#FFA800"/>
    <path d="M167.757 135.756H197.259C197.259 135.756 192.224 157.295 208.056 169.373C164.879 171.666 167.757 135.756 167.757 135.756Z" fill="#FFA800"/>
    <path d="M57.131 56.1999C60.091 56.1999 62.6777 56.7732 64.891 57.9199C67.131 59.0399 68.851 60.6665 70.051 62.7999C71.2777 64.9065 71.891 67.3732 71.891 70.1999C71.891 73.0265 71.2777 75.4799 70.051 77.5599C68.851 79.6399 67.131 81.2399 64.891 82.3599C62.6777 83.4532 60.091 83.9999 57.131 83.9999H48.051V56.1999H57.131ZM57.131 80.2799C60.3844 80.2799 62.8777 79.3999 64.611 77.6399C66.3444 75.8799 67.211 73.3999 67.211 70.1999C67.211 66.9732 66.3444 64.4532 64.611 62.6399C62.8777 60.8265 60.3844 59.9199 57.131 59.9199H52.611V80.2799H57.131ZM96.3704 61.9599V83.9999H91.8104V81.3999C91.0904 82.3065 90.1437 83.0265 88.9704 83.5599C87.8237 84.0665 86.5971 84.3199 85.2904 84.3199C83.5571 84.3199 81.9971 83.9599 80.6104 83.2399C79.2504 82.5199 78.1704 81.4532 77.3704 80.0399C76.5971 78.6265 76.2104 76.9199 76.2104 74.9199V61.9599H80.7304V74.2399C80.7304 76.2132 81.2237 77.7332 82.2104 78.7999C83.1971 79.8399 84.5437 80.3599 86.2504 80.3599C87.9571 80.3599 89.3037 79.8399 90.2904 78.7999C91.3037 77.7332 91.8104 76.2132 91.8104 74.2399V61.9599H96.3704ZM100.867 72.9599C100.867 70.6932 101.32 68.7065 102.227 66.9999C103.16 65.2665 104.44 63.9332 106.067 62.9999C107.694 62.0665 109.56 61.5999 111.667 61.5999C114.334 61.5999 116.534 62.2399 118.267 63.5199C120.027 64.7732 121.214 66.5732 121.827 68.9199H116.907C116.507 67.8265 115.867 66.9732 114.987 66.3599C114.107 65.7465 113 65.4399 111.667 65.4399C109.8 65.4399 108.307 66.1065 107.187 67.4399C106.094 68.7465 105.547 70.5865 105.547 72.9599C105.547 75.3332 106.094 77.1865 107.187 78.5199C108.307 79.8532 109.8 80.5199 111.667 80.5199C114.307 80.5199 116.054 79.3599 116.907 77.0399H121.827C121.187 79.2799 119.987 81.0665 118.227 82.3999C116.467 83.7065 114.28 84.3599 111.667 84.3599C109.56 84.3599 107.694 83.8932 106.067 82.9599C104.44 81.9999 103.16 80.6665 102.227 78.9599C101.32 77.2265 100.867 75.2265 100.867 72.9599ZM135.091 72.9999L145.251 83.9999H139.091L130.931 74.5199V83.9999H126.371V54.3999H130.931V71.5999L138.931 61.9599H145.251L135.091 72.9999ZM181.11 56.1999V83.9999H176.55V71.8399H163.47V83.9999H158.91V56.1999H163.47V68.1199H176.55V56.1999H181.11ZM207.074 61.9599V83.9999H202.514V81.3999C201.794 82.3065 200.847 83.0265 199.674 83.5599C198.527 84.0665 197.3 84.3199 195.994 84.3199C194.26 84.3199 192.7 83.9599 191.314 83.2399C189.954 82.5199 188.874 81.4532 188.074 80.0399C187.3 78.6265 186.914 76.9199 186.914 74.9199V61.9599H191.434V74.2399C191.434 76.2132 191.927 77.7332 192.914 78.7999C193.9 79.8399 195.247 80.3599 196.954 80.3599C198.66 80.3599 200.007 79.8399 200.994 78.7999C202.007 77.7332 202.514 76.2132 202.514 74.2399V61.9599H207.074ZM224.21 61.5999C225.943 61.5999 227.49 61.9599 228.85 62.6799C230.237 63.3999 231.317 64.4665 232.09 65.8799C232.863 67.2932 233.25 68.9999 233.25 70.9999V83.9999H228.73V71.6799C228.73 69.7065 228.237 68.1999 227.25 67.1599C226.263 66.0932 224.917 65.5599 223.21 65.5599C221.503 65.5599 220.143 66.0932 219.13 67.1599C218.143 68.1999 217.65 69.7065 217.65 71.6799V83.9999H213.09V61.9599H217.65V64.4799C218.397 63.5732 219.343 62.8665 220.49 62.3599C221.663 61.8532 222.903 61.5999 224.21 61.5999ZM244.387 65.6799V77.8799C244.387 78.7065 244.573 79.3065 244.947 79.6799C245.347 80.0265 246.013 80.1999 246.947 80.1999H249.747V83.9999H246.147C244.093 83.9999 242.52 83.5199 241.427 82.5599C240.333 81.5999 239.787 80.0399 239.787 77.8799V65.6799H237.187V61.9599H239.787V56.4799H244.387V61.9599H249.747V65.6799H244.387Z" fill="white"/>
    <path d="M410.979 318.8C413.539 316.587 415.552 314.773 417.019 313.36C418.512 311.92 419.752 310.427 420.739 308.88C421.726 307.333 422.219 305.787 422.219 304.24C422.219 302.64 421.832 301.387 421.059 300.48C420.312 299.573 419.126 299.12 417.499 299.12C415.926 299.12 414.699 299.627 413.819 300.64C412.966 301.627 412.512 302.96 412.459 304.64H408.059C408.139 301.6 409.046 299.28 410.779 297.68C412.539 296.053 414.766 295.24 417.459 295.24C420.366 295.24 422.632 296.04 424.259 297.64C425.912 299.24 426.739 301.373 426.739 304.04C426.739 305.96 426.246 307.813 425.259 309.6C424.299 311.36 423.139 312.947 421.779 314.36C420.446 315.747 418.739 317.36 416.659 319.2L414.859 320.8H427.539V324.6H408.099V321.28L410.979 318.8ZM431.545 310.04C431.545 305.427 432.318 301.827 433.865 299.24C435.438 296.627 438.131 295.32 441.945 295.32C445.758 295.32 448.438 296.627 449.985 299.24C451.558 301.827 452.345 305.427 452.345 310.04C452.345 314.707 451.558 318.36 449.985 321C448.438 323.613 445.758 324.92 441.945 324.92C438.131 324.92 435.438 323.613 433.865 321C432.318 318.36 431.545 314.707 431.545 310.04ZM447.865 310.04C447.865 307.88 447.718 306.053 447.425 304.56C447.158 303.067 446.598 301.853 445.745 300.92C444.891 299.96 443.625 299.48 441.945 299.48C440.265 299.48 438.998 299.96 438.145 300.92C437.291 301.853 436.718 303.067 436.425 304.56C436.158 306.053 436.025 307.88 436.025 310.04C436.025 312.28 436.158 314.16 436.425 315.68C436.691 317.2 437.251 318.427 438.105 319.36C438.985 320.293 440.265 320.76 441.945 320.76C443.625 320.76 444.891 320.293 445.745 319.36C446.625 318.427 447.198 317.2 447.465 315.68C447.731 314.16 447.865 312.28 447.865 310.04ZM459.69 318.8C462.25 316.587 464.263 314.773 465.73 313.36C467.223 311.92 468.463 310.427 469.45 308.88C470.436 307.333 470.93 305.787 470.93 304.24C470.93 302.64 470.543 301.387 469.77 300.48C469.023 299.573 467.836 299.12 466.21 299.12C464.636 299.12 463.41 299.627 462.53 300.64C461.676 301.627 461.223 302.96 461.17 304.64H456.77C456.85 301.6 457.756 299.28 459.49 297.68C461.25 296.053 463.476 295.24 466.17 295.24C469.076 295.24 471.343 296.04 472.97 297.64C474.623 299.24 475.45 301.373 475.45 304.04C475.45 305.96 474.956 307.813 473.97 309.6C473.01 311.36 471.85 312.947 470.49 314.36C469.156 315.747 467.45 317.36 465.37 319.2L463.57 320.8H476.25V324.6H456.81V321.28L459.69 318.8ZM482.776 318.8C485.336 316.587 487.349 314.773 488.816 313.36C490.309 311.92 491.549 310.427 492.536 308.88C493.522 307.333 494.016 305.787 494.016 304.24C494.016 302.64 493.629 301.387 492.856 300.48C492.109 299.573 490.922 299.12 489.296 299.12C487.722 299.12 486.496 299.627 485.616 300.64C484.762 301.627 484.309 302.96 484.256 304.64H479.856C479.936 301.6 480.842 299.28 482.576 297.68C484.336 296.053 486.562 295.24 489.256 295.24C492.162 295.24 494.429 296.04 496.056 297.64C497.709 299.24 498.536 301.373 498.536 304.04C498.536 305.96 498.042 307.813 497.056 309.6C496.096 311.36 494.936 312.947 493.576 314.36C492.242 315.747 490.536 317.36 488.456 319.2L486.656 320.8H499.336V324.6H479.896V321.28L482.776 318.8Z" fill="white"/>
</svg>
