<svg>
    <path d="M505.065 3.5H8.5V328.674M505.065 3.5V328.674H8.5M505.065 3.5L521.5 19.9348V345.108H24.9348L8.5 328.674" stroke="#FFA800" fill='white'/>
    <path d="M9.5 329L25.1 345.11L521.5 345.108L505.065 328.674L9.5 329Z" fill="#E19400"/>
    <path d="M521.5 345.108V19.9348L505.065 3.5V328.674L521.5 345.108Z" fill="#FFA800"/>
    <path d="M212.993 244.55C186.877 210.751 197.197 174.136 205.621 160.054C204.178 157.514 202.892 155.049 201.755 152.66C190.789 143.357 189.935 126.956 190.879 119.918C205.801 65.8138 310.926 91.4003 259.327 165.335C269.436 159.42 290.918 162.87 300.396 165.335C306.293 149.28 320.404 138.929 334.093 136.817C366.738 171.672 350.942 221.313 340.411 240.325C313.032 252.999 278.282 269.898 212.993 244.55Z" fill="#FFA800"/>
    <path d="M151.757 119.756H181.259C181.259 119.756 176.224 141.296 192.056 153.373C148.879 155.666 151.757 119.756 151.757 119.756Z" fill="#FFA800"/>
    <path d="M0.5 368.5V345.5H521.926V0.5H545V368.5H0.5Z" fill="white"/>
</svg>
