<?xml version="1.0" encoding="UTF-8"?>
<!-- Generator: Adobe Illustrator 28.1.0, SVG Export Plug-In . SVG Version: 6.00 Build 0)  -->
<svg xmlns="http://www.w3.org/2000/svg" xmlns:xlink="http://www.w3.org/1999/xlink" version="1.1" id="Layer_1" x="0px" y="0px" viewBox="-20 -20 1166 484.4" style="enable-background:new 0 0 1126 444.4;" xml:space="preserve">
<style type="text/css">
	.st0{clip-path:url(#SVGID_00000158736945339547374890000008575842503047082659_);}
	.st1{fill:#F55215;}
	.st2{fill:#0D0D0C;}
</style>
<g>
	<defs>
		<rect id="SVGID_1_" width="1126" height="444.4"></rect>
	</defs>
	<clipPath id="SVGID_00000023261778208613081370000000602512498684070806_">
		<use xlink:href="#SVGID_1_" style="overflow:visible;"></use>
	</clipPath>
	<g style="clip-path:url(#SVGID_00000023261778208613081370000000602512498684070806_);">
		<path class="st1" d="M243.1,444.4c42.3,0,76.5-34.3,76.5-76.5c0-42.3-34.3-76.5-76.5-76.5c-42.3,0-76.5,34.3-76.5,76.5    C166.6,410.1,200.9,444.4,243.1,444.4z"></path>
		<path class="st2" d="M1126,365.4c0-13.1-2.8-25.5-9-36.9c-6.2-11.4-14-20.4-25.1-27.1c-11.1-6.7-23.3-10-37.3-10    s-27,3.4-38.4,10.2c-11.4,6.9-20.3,16.1-26.7,27.9c-6.4,11.8-9.8,25-9.7,38.4c0,13.8,3.2,26.7,9.7,38.4    c6.3,11.5,15.5,21.1,26.8,27.8c11.4,6.9,24.2,10.3,38.3,10.3c11.5,0,21.9-2.3,31.5-6.8c9.1-4.3,17.3-10.5,23.8-18.1    c6.5-7.6,10.1-14.2,12.6-23.2l-34.6,0.7c-1.8,2.9-4.5,6.5-7.3,8.6c-3.2,2.5-7.1,4.9-11.7,6.3c-4.4,1.3-9.2,2.3-14.9,2.3    c-7.6,0-14.4-1.9-20.6-5.6c-6.2-3.7-11.1-9.1-14.6-16.2c-2.4-4.8-4-10-4.7-15.4h111.8C1125.9,373.4,1126,368.7,1126,365.4    L1126,365.4z M1015.4,350.7c0.8-3.1,2-6.1,3.6-8.9c3.8-7,8.8-12.1,15-15.5c6.2-3.4,13.1-5.1,20.5-5.1c6.5,0,12.6,1.4,18.3,4    c5.7,2.7,10.3,6.3,13.8,10.8c3.5,4.5,5.5,9.4,6,14.8C1092.6,350.8,1015.4,350.7,1015.4,350.7z M795.5,444.4    c-12.8,0-24.2-3.4-34.6-10.2c-10.4-6.9-18.5-16.1-24.4-27.7c-5.9-11.6-8.8-24.5-8.8-38.6c0-14,2.9-26.8,8.9-38.5    c6-11.7,14-21,24.4-27.8c10.3-6.9,21.8-10.2,34.4-10.2c7.8,0,15.2,1.2,21.9,3.5c6.8,2.4,14,7.1,19.1,11.4c5,4.2,9.2,10,11,18.5    v-29.2h32.3v144.2h-32.3v-25.7c-3.3,7.5-5.8,11.6-12.4,16.9c-5.3,4.4-11.3,7.7-17.9,9.8C810.4,443.2,803.2,444.4,795.5,444.4    L795.5,444.4z M803.5,413c7.9,0,15-2,21.5-5.9c6.5-3.9,11.8-9.6,15.3-16.3c3.7-6.9,5.6-14.5,5.6-22.9c0-8.3-1.9-15.8-5.6-22.7    c-3.7-6.9-8.8-12.4-15.4-16.4c-6.5-4-13.6-6-21.4-6s-14.9,1.9-21.3,5.7c-6.5,3.8-11.8,9.3-15.4,15.9c-3.8,6.8-5.7,14.6-5.7,23.6    c0,8.9,1.9,17.1,5.7,23.8c3.8,6.8,8.9,12.1,15.4,15.7C788.7,411.2,795.9,413,803.5,413L803.5,413z M232.8,204.1    c-12.8,0-24.2-3.4-34.6-10.2c-10.4-6.9-18.5-16.1-24.4-27.7c-5.9-11.6-8.8-24.5-8.8-38.6c0-14,2.9-26.8,8.9-38.5    c6-11.7,14.1-21,24.4-27.8c10.3-6.9,21.8-10.2,34.4-10.2c7.9,0,15.1,1.2,21.9,3.5c6.8,2.4,14.1,7.1,19.1,11.4    c5,4.2,9.2,10,11,18.5V55.4H317v144.2h-32.3V174c-3.3,7.5-5.8,11.6-12.4,16.9c-5.3,4.4-11.3,7.7-17.9,9.8    C247.5,203,240.2,204.1,232.8,204.1z M241,172.7c7.8,0,15-2,21.5-5.9c6.5-3.9,11.8-9.6,15.3-16.3c3.7-7,5.6-14.5,5.6-22.9    c0.1-7.9-1.9-15.7-5.7-22.7c-3.7-6.9-8.8-12.4-15.4-16.4c-6.4-4-13.8-6.1-21.4-6.1c-7.8,0-14.9,1.9-21.3,5.7    c-6.5,3.8-11.8,9.3-15.4,15.9c-3.8,6.8-5.7,14.6-5.7,23.6c0,8.9,1.9,17.1,5.7,23.8c3.8,6.9,8.9,12.1,15.4,15.7    C226.1,170.8,233.5,172.7,241,172.7L241,172.7z M566.6,125.1c0-13.1-2.8-25.5-9-36.9c-6.2-11.4-14-20.3-25.1-27.1    c-11.1-6.7-23.3-10-37.3-10c-14,0-27,3.4-38.4,10.2c-11.4,6.9-20.3,16.1-26.7,27.9c-6.4,11.8-9.8,25-9.7,38.4    c0,13.8,3.2,26.7,9.7,38.4c6.3,11.5,15.5,21.1,26.8,27.8c11.4,6.9,24.1,10.3,38.3,10.3c11.5,0,22-2.3,31.5-6.8    c9.1-4.3,17.3-10.5,23.8-18.2c6.5-7.6,10.1-14.2,12.6-23.2l-34.6,0.7c-1.8,2.9-4.5,6.5-7.4,8.6c-3.2,2.5-7.1,4.9-11.7,6.3    c-4.4,1.3-9.2,2.3-14.9,2.3c-7.6,0-14.4-1.9-20.6-5.6c-6.2-3.7-11.1-9.1-14.7-16.2c-2.4-4.8-4-10-4.7-15.4h111.8    C566.6,133.2,566.6,128.4,566.6,125.1L566.6,125.1z M456,110.4c0.8-3.2,2-6.2,3.6-9c3.8-7,8.8-12.1,15-15.5    c6.2-3.4,13-5.1,20.6-5.1c6.5,0,12.6,1.4,18.3,4c5.7,2.6,10.3,6.3,13.8,10.8c3.5,4.5,5.5,9.5,6,14.8L456,110.4L456,110.4z     M893.6,295.8h32.6v26.1c2.4-5.4,5.4-10.1,9-13.9c3.7-3.9,8.1-6.9,13-8.9c5-2.1,10.6-3.1,16.7-3.1h15.3v29.2h-13.6    c-7.8,0-14.6,1.9-20.5,5.6c-5.9,3.7-10.5,9.2-13.7,16.4c-3.2,7.2-4.9,15.9-4.9,26v67.1h-34L893.6,295.8L893.6,295.8z M391.1,0    c-11.3,0-20,2.7-25.8,8c-5.7,5.3-8.6,12.9-8.6,22.8l-0.2,24.7h-29.1v29h29v115.3h33.5V84.5h29V55.5h-29.1V34.7    c0-2.7,0.3-4.4,1-5.2c1-1.2,3.4-1.4,5.6-1.4h22.5L419.1,0H391.1L391.1,0z M77.6,204.1c-17.4,0-31.9-2.9-43.6-8.7    c-11.7-5.8-20.2-13.4-25.7-22.8C2.9,163.5,0,153.1,0,142.5h34.9c0,1.7,0.1,3.5,0.5,5.2c0.9,5.1,3.2,9.9,6.7,13.8    c3.6,4,8.4,7.3,14.4,9.6c6,2.4,12.9,3.5,20.9,3.5c9.5,0,17.5-1.1,23.7-3.1c6.3-2.1,11-5.3,14.1-9.4c3.1-4.1,4.7-9.5,4.7-15.9    c0-5.6-1.8-10.3-5.3-14c-3.5-3.7-8.4-6.8-14.7-9.1c-6.3-2.4-14.3-4.4-23.9-6.2c-13.4-2.8-25.2-6.2-35.3-10.1    C30.9,103,22.2,97,15.2,89.2c-6.9-7.8-10.3-17.8-10.3-30c0-10.7,2.6-20.1,7.8-28.3c5.1-8.1,13-14.6,23.7-19.3s24-7.1,40-7.1    s28.6,2.3,39.3,7s18.8,11.4,24.2,20c5.4,8.6,8.1,18.6,8.1,30.2h-34.9c0-5.1-1.4-9.7-4-13.7c-2.7-3.9-6.8-7.2-12.4-9.4    c-5.6-2.4-12.6-3.5-21-3.5c-9,0-16.3,1.1-21.7,3.3c-5.4,2.3-9,5.2-11.2,8.7c-2.2,3.6-3.1,7.7-3.1,12.2c0,5.2,1.8,9.6,5.3,13.2    s8.7,6.6,15.7,9c7,2.5,15.9,4.5,27,6.3c13.1,2.4,24.7,5.7,34.6,10c9.9,4.3,17.9,10.5,23.9,18.4c6.1,7.9,9.1,18,9.1,30    c0,12.1-3.1,22.6-9.5,31.3c-6.4,8.7-15.4,15.3-27.1,19.8C107,201.8,93.3,204.1,77.6,204.1L77.6,204.1z M77.6,444.4    c-17.4,0-31.9-2.9-43.6-8.7c-11.7-5.8-20.2-13.4-25.7-22.8C2.9,403.8,0,393.4,0,382.8h34.9c0,1.7,0.1,3.5,0.5,5.2    c0.9,5.1,3.2,9.9,6.7,13.8c3.6,4,8.4,7.3,14.4,9.6c6,2.4,12.9,3.5,20.9,3.5c9.5,0,17.5-1.1,23.7-3.1c6.3-2.1,11-5.3,14.1-9.4    c3.1-4.1,4.7-9.5,4.7-15.9c0-5.6-1.8-10.3-5.3-14c-3.5-3.7-8.4-6.8-14.7-9.1c-6.3-2.4-14.3-4.4-23.9-6.2    c-13.4-2.8-25.2-6.2-35.3-10.1c-9.8-3.8-18.5-9.8-25.5-17.6c-6.9-7.8-10.3-17.8-10.3-30c0-10.7,2.6-20.1,7.8-28.3    c5.1-8.1,13-14.6,23.7-19.3s24-7.1,40-7.1s28.7,2.4,39.4,7.1s18.8,11.4,24.2,20c5.4,8.6,8.1,18.6,8.1,30.2h-34.9    c0-5.1-1.4-9.7-4-13.6c-2.7-3.9-6.8-7.2-12.4-9.4c-5.6-2.4-12.6-3.5-21-3.5c-9,0-16.3,1.1-21.7,3.3c-5.4,2.3-9.1,5.2-11.2,8.7    c-2.2,3.6-3.1,7.7-3.1,12.2c0,5.2,1.8,9.7,5.3,13.2c3.5,3.6,8.7,6.6,15.7,8.9c7,2.4,15.9,4.4,27,6.3c13.1,2.4,24.7,5.7,34.6,10    c9.9,4.3,17.9,10.5,23.9,18.4c6.1,7.9,9.1,18,9.1,30c0,12.1-3.1,22.6-9.5,31.3c-6.4,8.7-15.4,15.3-27.1,19.8    C107,442.1,93.3,444.4,77.6,444.4L77.6,444.4z M473.1,324.8h28.9v-29h-28.9v-55l-33.9,21.2v33.8h-54.9V275c0-2.7,0.3-4.4,1-5.2    c1-1.2,3.4-1.4,5.6-1.4h22.5l0.2-28.1h-28c-11.3,0-20,2.7-25.8,8c-5.7,5.3-8.6,12.9-8.6,22.8l-0.2,24.5h-29.1v29h29v115.3h33.5    V324.8h54.9v60.3c0,14.7,1.4,26,5.6,34.3c3.7,7.5,9.7,14.8,17,18.1c6.8,3,15.2,2.5,23.9,2.5h16.5v-28.7h-9.4    c-4,0-7.6-0.2-10.6-1.7c-3-1.5-5.5-4-7.5-7.8c-2-3.7-1.5-8.8-1.5-15.3L473.1,324.8L473.1,324.8z M513.7,295.8h36.5l28.3,91.3    l2.5,8.7h0.4l2.7-8.5l27.4-91.4h25.1l26.4,90.5l2.9,9.5h0.4l3.3-10.1l28.3-90h35.8L685,440.1h-31.4l-30-93.4h-0.1l-30.3,93.4    h-30.9L513.7,295.8L513.7,295.8z"></path>
	</g>
</g>
</svg>
