<svg>
    <path d="M504.565 3H8V328.174M504.565 3V328.174H8M504.565 3L521 19.4348V344.608H24.4348L8 328.174" stroke="#62E160" fill='white'/>
    <path d="M8.5 328.174L24.5 344.608H521L504.565 328.174H8.5Z" fill="#1F9801"/>
    <path d="M521 344.608V19.4348L504.565 3V328.174L521 344.608Z" fill="#62E160"/>
    <path d="M257.748 173.937L311.952 94.539C311.952 94.539 314.164 83.6624 314.846 78.2242C324.12 67.3477 338.5 80.3995 337.275 89.1007C330.757 97.8019 320.801 99.9772 320.801 99.9772C320.801 99.9772 283.19 152.184 265.491 179.376C242.261 248.985 232.306 254.423 214.606 278.351C200.226 275.089 192.483 269.65 184.739 257.686C198.014 229.842 238.943 190.252 257.748 173.937Z" fill="#62E160"/>
    <path d="M0 368V345H521.426V0H544.5V368H0Z" fill="white"/>
</svg>
