<svg>
    <path d="M521.565 19.4992H25V344.673H521.565V19.4992Z" fill="#57D442" stroke="#6FFF57"/>
    <path d="M271.748 187.437L325.952 108.038C325.952 108.038 328.164 97.1616 328.846 91.7235C338.12 80.8469 352.5 93.8987 351.275 102.6C344.757 111.301 334.801 113.476 334.801 113.476C334.801 113.476 297.191 165.684 279.491 192.875C256.261 262.484 246.306 267.922 228.607 291.851C214.226 288.588 206.483 283.149 198.739 271.185C212.014 243.342 252.943 203.751 271.748 187.437Z" fill="#6FFF57"/>
    <path d="M411.979 318.8C414.539 316.587 416.552 314.773 418.019 313.36C419.512 311.92 420.752 310.427 421.739 308.88C422.725 307.333 423.219 305.787 423.219 304.24C423.219 302.64 422.832 301.387 422.059 300.48C421.312 299.573 420.125 299.12 418.499 299.12C416.925 299.12 415.699 299.627 414.819 300.64C413.965 301.627 413.512 302.96 413.459 304.64H409.059C409.139 301.6 410.045 299.28 411.779 297.68C413.539 296.053 415.765 295.24 418.459 295.24C421.365 295.24 423.632 296.04 425.259 297.64C426.912 299.24 427.739 301.373 427.739 304.04C427.739 305.96 427.245 307.813 426.259 309.6C425.299 311.36 424.139 312.947 422.779 314.36C421.445 315.747 419.739 317.36 417.659 319.2L415.859 320.8H428.539V324.6H409.099V321.28L411.979 318.8ZM432.545 310.04C432.545 305.427 433.318 301.827 434.865 299.24C436.438 296.627 439.131 295.32 442.945 295.32C446.758 295.32 449.438 296.627 450.985 299.24C452.558 301.827 453.345 305.427 453.345 310.04C453.345 314.707 452.558 318.36 450.985 321C449.438 323.613 446.758 324.92 442.945 324.92C439.131 324.92 436.438 323.613 434.865 321C433.318 318.36 432.545 314.707 432.545 310.04ZM448.865 310.04C448.865 307.88 448.718 306.053 448.425 304.56C448.158 303.067 447.598 301.853 446.745 300.92C445.891 299.96 444.625 299.48 442.945 299.48C441.265 299.48 439.998 299.96 439.145 300.92C438.291 301.853 437.718 303.067 437.425 304.56C437.158 306.053 437.025 307.88 437.025 310.04C437.025 312.28 437.158 314.16 437.425 315.68C437.691 317.2 438.251 318.427 439.105 319.36C439.985 320.293 441.265 320.76 442.945 320.76C444.625 320.76 445.891 320.293 446.745 319.36C447.625 318.427 448.198 317.2 448.465 315.68C448.731 314.16 448.865 312.28 448.865 310.04ZM460.69 318.8C463.25 316.587 465.263 314.773 466.73 313.36C468.223 311.92 469.463 310.427 470.45 308.88C471.436 307.333 471.93 305.787 471.93 304.24C471.93 302.64 471.543 301.387 470.77 300.48C470.023 299.573 468.836 299.12 467.21 299.12C465.636 299.12 464.41 299.627 463.53 300.64C462.676 301.627 462.223 302.96 462.17 304.64H457.77C457.85 301.6 458.756 299.28 460.49 297.68C462.25 296.053 464.476 295.24 467.17 295.24C470.076 295.24 472.343 296.04 473.97 297.64C475.623 299.24 476.45 301.373 476.45 304.04C476.45 305.96 475.956 307.813 474.97 309.6C474.01 311.36 472.85 312.947 471.49 314.36C470.156 315.747 468.45 317.36 466.37 319.2L464.57 320.8H477.25V324.6H457.81V321.28L460.69 318.8ZM483.775 318.8C486.335 316.587 488.349 314.773 489.815 313.36C491.309 311.92 492.549 310.427 493.535 308.88C494.522 307.333 495.015 305.787 495.015 304.24C495.015 302.64 494.629 301.387 493.855 300.48C493.109 299.573 491.922 299.12 490.295 299.12C488.722 299.12 487.495 299.627 486.615 300.64C485.762 301.627 485.309 302.96 485.255 304.64H480.855C480.935 301.6 481.842 299.28 483.575 297.68C485.335 296.053 487.562 295.24 490.255 295.24C493.162 295.24 495.429 296.04 497.055 297.64C498.709 299.24 499.535 301.373 499.535 304.04C499.535 305.96 499.042 307.813 498.055 309.6C497.095 311.36 495.935 312.947 494.575 314.36C493.242 315.747 491.535 317.36 489.455 319.2L487.655 320.8H500.335V324.6H480.895V321.28L483.775 318.8Z" fill="white"/>
    <path d="M64.1378 69.7199C65.6311 69.9866 66.8978 70.7733 67.9378 72.0799C68.9778 73.3866 69.4978 74.8666 69.4978 76.5199C69.4978 77.9333 69.1245 79.2133 68.3778 80.3599C67.6578 81.4799 66.6045 82.3733 65.2178 83.0399C63.8311 83.6799 62.2178 83.9999 60.3778 83.9999H49.2578V56.1999H59.8578C61.7511 56.1999 63.3778 56.5199 64.7378 57.1599C66.0978 57.7999 67.1245 58.6666 67.8178 59.7599C68.5111 60.8266 68.8578 62.0266 68.8578 63.3599C68.8578 64.9599 68.4311 66.2933 67.5778 67.3599C66.7245 68.4266 65.5778 69.2133 64.1378 69.7199ZM53.8178 67.8799H59.4578C60.9511 67.8799 62.1111 67.5466 62.9378 66.8799C63.7911 66.1866 64.2178 65.1999 64.2178 63.9199C64.2178 62.6666 63.7911 61.6933 62.9378 60.9999C62.1111 60.2799 60.9511 59.9199 59.4578 59.9199H53.8178V67.8799ZM59.9778 80.2799C61.5245 80.2799 62.7378 79.9066 63.6178 79.1599C64.4978 78.4133 64.9378 77.3733 64.9378 76.0399C64.9378 74.6799 64.4711 73.5999 63.5378 72.7999C62.6045 71.9999 61.3645 71.5999 59.8178 71.5999H53.8178V80.2799H59.9778ZM84.0131 84.3599C81.9331 84.3599 80.0531 83.8933 78.3731 82.9599C76.6931 81.9999 75.3731 80.6666 74.4131 78.9599C73.4531 77.2266 72.9731 75.2266 72.9731 72.9599C72.9731 70.7199 73.4665 68.7333 74.4531 66.9999C75.4398 65.2666 76.7865 63.9333 78.4931 62.9999C80.1998 62.0666 82.1065 61.5999 84.2131 61.5999C86.3198 61.5999 88.2265 62.0666 89.9331 62.9999C91.6398 63.9333 92.9865 65.2666 93.9731 66.9999C94.9598 68.7333 95.4531 70.7199 95.4531 72.9599C95.4531 75.1999 94.9465 77.1866 93.9331 78.9199C92.9198 80.6533 91.5331 81.9999 89.7731 82.9599C88.0398 83.8933 86.1198 84.3599 84.0131 84.3599ZM84.0131 80.3999C85.1865 80.3999 86.2798 80.1199 87.2931 79.5599C88.3331 78.9999 89.1731 78.1599 89.8131 77.0399C90.4531 75.9199 90.7731 74.5599 90.7731 72.9599C90.7731 71.3599 90.4665 70.0133 89.8531 68.9199C89.2398 67.7999 88.4265 66.9599 87.4131 66.3999C86.3998 65.8399 85.3065 65.5599 84.1331 65.5599C82.9598 65.5599 81.8665 65.8399 80.8531 66.3999C79.8665 66.9599 79.0798 67.7999 78.4931 68.9199C77.9065 70.0133 77.6131 71.3599 77.6131 72.9599C77.6131 75.3333 78.2131 77.1733 79.4131 78.4799C80.6398 79.7599 82.1731 80.3999 84.0131 80.3999ZM98.4409 72.8799C98.4409 70.6666 98.8943 68.7066 99.8009 66.9999C100.734 65.2933 101.988 63.9733 103.561 63.0399C105.161 62.0799 106.921 61.5999 108.841 61.5999C110.574 61.5999 112.081 61.9466 113.361 62.6399C114.668 63.3066 115.708 64.1466 116.481 65.1599V61.9599H121.081V83.9999H116.481V80.7199C115.708 81.7599 114.654 82.6266 113.321 83.3199C111.988 84.0133 110.468 84.3599 108.761 84.3599C106.868 84.3599 105.134 83.8799 103.561 82.9199C101.988 81.9333 100.734 80.5733 99.8009 78.8399C98.8943 77.0799 98.4409 75.0933 98.4409 72.8799ZM116.481 72.9599C116.481 71.4399 116.161 70.1199 115.521 68.9999C114.908 67.8799 114.094 67.0266 113.081 66.4399C112.068 65.8533 110.974 65.5599 109.801 65.5599C108.628 65.5599 107.534 65.8533 106.521 66.4399C105.508 66.9999 104.681 67.8399 104.041 68.9599C103.428 70.0533 103.121 71.3599 103.121 72.8799C103.121 74.3999 103.428 75.7333 104.041 76.8799C104.681 78.0266 105.508 78.9066 106.521 79.5199C107.561 80.1066 108.654 80.3999 109.801 80.3999C110.974 80.3999 112.068 80.1066 113.081 79.5199C114.094 78.9333 114.908 78.0799 115.521 76.9599C116.161 75.8133 116.481 74.4799 116.481 72.9599ZM132.39 65.6799V77.8799C132.39 78.7066 132.577 79.3066 132.95 79.6799C133.35 80.0266 134.017 80.1999 134.95 80.1999H137.75V83.9999H134.15C132.097 83.9999 130.524 83.5199 129.43 82.5599C128.337 81.5999 127.79 80.0399 127.79 77.8799V65.6799H125.19V61.9599H127.79V56.4799H132.39V61.9599H137.75V65.6799H132.39ZM151.393 72.8399L158.513 83.9999H153.353L148.593 76.5199L144.113 83.9999H139.353L146.473 73.1599L139.353 61.9599H144.513L149.273 69.4399L153.753 61.9599H158.513L151.393 72.8399ZM165.954 80.2799H175.954V83.9999H160.674V80.2799L170.714 65.6799H160.674V61.9599H175.954V65.6799L165.954 80.2799Z" fill="white"/>
</svg>
