<svg>
    <path d="M504.565 3.5H8V328.674M504.565 3.5V328.674H8M504.565 3.5L521 19.9348V345.108H24.4348L8 328.674" stroke="#6FFF57" fill='white'/>
    <path d="M8.5 328.674L24.5 345.108H521L504.565 328.674H8.5Z" fill="#57D542"/>
    <path d="M521 345.108V19.9348L504.565 3.5V328.674L521 345.108Z" fill="#6FFF57"/>
    <path d="M254.748 171.437L308.952 92.0389C308.952 92.0389 311.164 81.1623 311.846 75.7242C321.12 64.8477 335.5 77.8994 334.275 86.6007C327.757 95.3018 317.801 97.4772 317.801 97.4772C317.801 97.4772 280.19 149.684 262.491 176.875C239.261 246.485 229.306 251.923 211.606 275.851C197.226 272.588 189.483 267.15 181.739 255.186C195.014 227.342 235.943 187.752 254.748 171.437Z" fill="#6FFF57"/>
    <path d="M0 368.5V345.5H521.426V0.5H544.5V368.5H0Z" fill="white"/>
</svg>
