<svg>
    <path d="M521.565 19.5H25V344.674H521.565V19.5Z" fill="#20955D" stroke="#32BB79"/>
    <path fillRule="evenodd" clipRule="evenodd" d="M182 106H364V274.5H182L182 106ZM353.025 149.66V123H192.518V149.66H353.025ZM353.025 161.611H192.518V188.271H353.025V161.611ZM353.025 200.682H192.518V227.342H353.025V200.682ZM353.025 251.517H308.211V266.686H353.025V251.517Z" fill="#32BB79"/>
    <path d="M60.2774 84.28C58.4108 84.28 56.7308 83.96 55.2374 83.32C53.7441 82.6533 52.5708 81.72 51.7174 80.52C50.8641 79.32 50.4374 77.92 50.4374 76.32H55.3174C55.4241 77.52 55.8908 78.5067 56.7174 79.28C57.5708 80.0533 58.7574 80.44 60.2774 80.44C61.8508 80.44 63.0774 80.0667 63.9574 79.32C64.8374 78.5467 65.2774 77.56 65.2774 76.36C65.2774 75.4267 64.9974 74.6667 64.4374 74.08C63.9041 73.4933 63.2241 73.04 62.3974 72.72C61.5974 72.4 60.4774 72.0533 59.0374 71.68C57.2241 71.2 55.7441 70.72 54.5974 70.24C53.4774 69.7333 52.5174 68.96 51.7174 67.92C50.9174 66.88 50.5174 65.4933 50.5174 63.76C50.5174 62.16 50.9174 60.76 51.7174 59.56C52.5174 58.36 53.6374 57.44 55.0774 56.8C56.5174 56.16 58.1841 55.84 60.0774 55.84C62.7708 55.84 64.9708 56.52 66.6774 57.88C68.4108 59.2133 69.3708 61.0533 69.5574 63.4H64.5174C64.4374 62.3867 63.9574 61.52 63.0774 60.8C62.1974 60.08 61.0374 59.72 59.5974 59.72C58.2908 59.72 57.2241 60.0533 56.3974 60.72C55.5708 61.3867 55.1574 62.3467 55.1574 63.6C55.1574 64.4533 55.4108 65.16 55.9174 65.72C56.4508 66.2533 57.1174 66.68 57.9174 67C58.7174 67.32 59.8108 67.6667 61.1974 68.04C63.0374 68.5467 64.5308 69.0533 65.6774 69.56C66.8508 70.0667 67.8374 70.8533 68.6374 71.92C69.4641 72.96 69.8774 74.36 69.8774 76.12C69.8774 77.5333 69.4908 78.8667 68.7174 80.12C67.9708 81.3733 66.8641 82.3867 65.3974 83.16C63.9574 83.9067 62.2508 84.28 60.2774 84.28ZM95.2181 61.96V84H90.6581V81.4C89.9381 82.3067 88.9914 83.0267 87.8181 83.56C86.6714 84.0667 85.4447 84.32 84.1381 84.32C82.4047 84.32 80.8447 83.96 79.4581 83.24C78.0981 82.52 77.0181 81.4533 76.2181 80.04C75.4447 78.6267 75.0581 76.92 75.0581 74.92V61.96H79.5781V74.24C79.5781 76.2133 80.0714 77.7333 81.0581 78.8C82.0447 79.84 83.3914 80.36 85.0981 80.36C86.8047 80.36 88.1514 79.84 89.1381 78.8C90.1514 77.7333 90.6581 76.2133 90.6581 74.24V61.96H95.2181ZM105.795 65.2C106.568 64.1867 107.621 63.3333 108.955 62.64C110.288 61.9467 111.795 61.6 113.475 61.6C115.395 61.6 117.141 62.08 118.715 63.04C120.315 63.9733 121.568 65.2933 122.475 67C123.381 68.7067 123.835 70.6667 123.835 72.88C123.835 75.0933 123.381 77.08 122.475 78.84C121.568 80.5733 120.315 81.9333 118.715 82.92C117.141 83.88 115.395 84.36 113.475 84.36C111.795 84.36 110.301 84.0267 108.995 83.36C107.688 82.6667 106.621 81.8133 105.795 80.8V94.48H101.235V61.96H105.795V65.2ZM119.195 72.88C119.195 71.36 118.875 70.0533 118.235 68.96C117.621 67.84 116.795 67 115.755 66.44C114.741 65.8533 113.648 65.56 112.475 65.56C111.328 65.56 110.235 65.8533 109.195 66.44C108.181 67.0267 107.355 67.88 106.715 69C106.101 70.12 105.795 71.44 105.795 72.96C105.795 74.48 106.101 75.8133 106.715 76.96C107.355 78.08 108.181 78.9333 109.195 79.52C110.235 80.1067 111.328 80.4 112.475 80.4C113.648 80.4 114.741 80.1067 115.755 79.52C116.795 78.9067 117.621 78.0267 118.235 76.88C118.875 75.7333 119.195 74.4 119.195 72.88ZM132.904 65.2C133.677 64.1867 134.731 63.3333 136.064 62.64C137.397 61.9467 138.904 61.6 140.584 61.6C142.504 61.6 144.251 62.08 145.824 63.04C147.424 63.9733 148.677 65.2933 149.584 67C150.491 68.7067 150.944 70.6667 150.944 72.88C150.944 75.0933 150.491 77.08 149.584 78.84C148.677 80.5733 147.424 81.9333 145.824 82.92C144.251 83.88 142.504 84.36 140.584 84.36C138.904 84.36 137.411 84.0267 136.104 83.36C134.797 82.6667 133.731 81.8133 132.904 80.8V94.48H128.344V61.96H132.904V65.2ZM146.304 72.88C146.304 71.36 145.984 70.0533 145.344 68.96C144.731 67.84 143.904 67 142.864 66.44C141.851 65.8533 140.757 65.56 139.584 65.56C138.437 65.56 137.344 65.8533 136.304 66.44C135.291 67.0267 134.464 67.88 133.824 69C133.211 70.12 132.904 71.44 132.904 72.96C132.904 74.48 133.211 75.8133 133.824 76.96C134.464 78.08 135.291 78.9333 136.304 79.52C137.344 80.1067 138.437 80.4 139.584 80.4C140.757 80.4 141.851 80.1067 142.864 79.52C143.904 78.9067 144.731 78.0267 145.344 76.88C145.984 75.7333 146.304 74.4 146.304 72.88ZM160.013 54.4V84H155.453V54.4H160.013ZM185.84 61.96L172.32 94.36H167.6L172.08 83.64L163.4 61.96H168.48L174.68 78.76L181.12 61.96H185.84ZM217.632 56.2V59.92H210.232V84H205.672V59.92H198.232V56.2H217.632ZM226.81 65.16C227.477 64.04 228.357 63.1733 229.45 62.56C230.57 61.92 231.89 61.6 233.41 61.6V66.32H232.25C230.464 66.32 229.104 66.7733 228.17 67.68C227.264 68.5867 226.81 70.16 226.81 72.4V84H222.25V61.96H226.81V65.16ZM236.082 72.88C236.082 70.6667 236.535 68.7067 237.442 67C238.375 65.2933 239.628 63.9733 241.202 63.04C242.802 62.08 244.562 61.6 246.482 61.6C248.215 61.6 249.722 61.9467 251.002 62.64C252.308 63.3067 253.348 64.1467 254.122 65.16V61.96H258.722V84H254.122V80.72C253.348 81.76 252.295 82.6267 250.962 83.32C249.628 84.0133 248.108 84.36 246.402 84.36C244.508 84.36 242.775 83.88 241.202 82.92C239.628 81.9333 238.375 80.5733 237.442 78.84C236.535 77.08 236.082 75.0933 236.082 72.88ZM254.122 72.96C254.122 71.44 253.802 70.12 253.162 69C252.548 67.88 251.735 67.0267 250.722 66.44C249.708 65.8533 248.615 65.56 247.442 65.56C246.268 65.56 245.175 65.8533 244.162 66.44C243.148 67 242.322 67.84 241.682 68.96C241.068 70.0533 240.762 71.36 240.762 72.88C240.762 74.4 241.068 75.7333 241.682 76.88C242.322 78.0267 243.148 78.9067 244.162 79.52C245.202 80.1067 246.295 80.4 247.442 80.4C248.615 80.4 249.708 80.1067 250.722 79.52C251.735 78.9333 252.548 78.08 253.162 76.96C253.802 75.8133 254.122 74.48 254.122 72.96ZM263.191 72.96C263.191 70.6933 263.645 68.7067 264.551 67C265.485 65.2667 266.765 63.9333 268.391 63C270.018 62.0667 271.885 61.6 273.991 61.6C276.658 61.6 278.858 62.24 280.591 63.52C282.351 64.7733 283.538 66.5733 284.151 68.92H279.231C278.831 67.8267 278.191 66.9733 277.311 66.36C276.431 65.7467 275.325 65.44 273.991 65.44C272.125 65.44 270.631 66.1067 269.511 67.44C268.418 68.7467 267.871 70.5867 267.871 72.96C267.871 75.3333 268.418 77.1867 269.511 78.52C270.631 79.8533 272.125 80.52 273.991 80.52C276.631 80.52 278.378 79.36 279.231 77.04H284.151C283.511 79.28 282.311 81.0667 280.551 82.4C278.791 83.7067 276.605 84.36 273.991 84.36C271.885 84.36 270.018 83.8933 268.391 82.96C266.765 82 265.485 80.6667 264.551 78.96C263.645 77.2267 263.191 75.2267 263.191 72.96ZM297.416 73L307.576 84H301.416L293.256 74.52V84H288.696V54.4H293.256V71.6L301.256 61.96H307.576L297.416 73ZM331.044 72.44C331.044 73.2667 330.991 74.0133 330.884 74.68H314.044C314.177 76.44 314.831 77.8533 316.004 78.92C317.177 79.9867 318.617 80.52 320.324 80.52C322.777 80.52 324.511 79.4933 325.524 77.44H330.444C329.777 79.4667 328.564 81.1333 326.804 82.44C325.071 83.72 322.911 84.36 320.324 84.36C318.217 84.36 316.324 83.8933 314.644 82.96C312.991 82 311.684 80.6667 310.724 78.96C309.791 77.2267 309.324 75.2267 309.324 72.96C309.324 70.6933 309.777 68.7067 310.684 67C311.617 65.2667 312.911 63.9333 314.564 63C316.244 62.0667 318.164 61.6 320.324 61.6C322.404 61.6 324.257 62.0533 325.884 62.96C327.511 63.8667 328.777 65.1467 329.684 66.8C330.591 68.4267 331.044 70.3067 331.044 72.44ZM326.284 71C326.257 69.32 325.657 67.9733 324.484 66.96C323.311 65.9467 321.857 65.44 320.124 65.44C318.551 65.44 317.204 65.9467 316.084 66.96C314.964 67.9467 314.297 69.2933 314.084 71H326.284ZM340.091 65.16C340.758 64.04 341.638 63.1733 342.731 62.56C343.851 61.92 345.171 61.6 346.691 61.6V66.32H345.531C343.745 66.32 342.385 66.7733 341.451 67.68C340.545 68.5867 340.091 70.16 340.091 72.4V84H335.531V61.96H340.091V65.16Z" fill="white"/>
    <path d="M416.529 318.8C419.089 316.587 421.103 314.773 422.569 313.36C424.063 311.92 425.303 310.427 426.289 308.88C427.276 307.333 427.769 305.787 427.769 304.24C427.769 302.64 427.383 301.387 426.609 300.48C425.863 299.573 424.676 299.12 423.049 299.12C421.476 299.12 420.249 299.627 419.369 300.64C418.516 301.627 418.063 302.96 418.009 304.64H413.609C413.689 301.6 414.596 299.28 416.329 297.68C418.089 296.053 420.316 295.24 423.009 295.24C425.916 295.24 428.183 296.04 429.809 297.64C431.463 299.24 432.289 301.373 432.289 304.04C432.289 305.96 431.796 307.813 430.809 309.6C429.849 311.36 428.689 312.947 427.329 314.36C425.996 315.747 424.289 317.36 422.209 319.2L420.409 320.8H433.089V324.6H413.649V321.28L416.529 318.8ZM437.095 310.04C437.095 305.427 437.869 301.827 439.415 299.24C440.989 296.627 443.682 295.32 447.495 295.32C451.309 295.32 453.989 296.627 455.535 299.24C457.109 301.827 457.895 305.427 457.895 310.04C457.895 314.707 457.109 318.36 455.535 321C453.989 323.613 451.309 324.92 447.495 324.92C443.682 324.92 440.989 323.613 439.415 321C437.869 318.36 437.095 314.707 437.095 310.04ZM453.415 310.04C453.415 307.88 453.269 306.053 452.975 304.56C452.709 303.067 452.149 301.853 451.295 300.92C450.442 299.96 449.175 299.48 447.495 299.48C445.815 299.48 444.549 299.96 443.695 300.92C442.842 301.853 442.269 303.067 441.975 304.56C441.709 306.053 441.575 307.88 441.575 310.04C441.575 312.28 441.709 314.16 441.975 315.68C442.242 317.2 442.802 318.427 443.655 319.36C444.535 320.293 445.815 320.76 447.495 320.76C449.175 320.76 450.442 320.293 451.295 319.36C452.175 318.427 452.749 317.2 453.015 315.68C453.282 314.16 453.415 312.28 453.415 310.04ZM465.24 318.8C467.8 316.587 469.814 314.773 471.28 313.36C472.774 311.92 474.014 310.427 475 308.88C475.987 307.333 476.48 305.787 476.48 304.24C476.48 302.64 476.094 301.387 475.32 300.48C474.574 299.573 473.387 299.12 471.76 299.12C470.187 299.12 468.96 299.627 468.08 300.64C467.227 301.627 466.774 302.96 466.72 304.64H462.32C462.4 301.6 463.307 299.28 465.04 297.68C466.8 296.053 469.027 295.24 471.72 295.24C474.627 295.24 476.894 296.04 478.52 297.64C480.174 299.24 481 301.373 481 304.04C481 305.96 480.507 307.813 479.52 309.6C478.56 311.36 477.4 312.947 476.04 314.36C474.707 315.747 473 317.36 470.92 319.2L469.12 320.8H481.8V324.6H462.36V321.28L465.24 318.8ZM485.206 300V295.84H493.526V325H488.926V300H485.206Z" fill="white"/>
</svg>
