<svg>
    <path d="M521.065 19.9992H24.4998V345.173H521.065V19.9992Z" fill="#B81D40" stroke="#EC204E"/>
    <path d="M281.783 119.005L237.374 231.304L281.783 193.738L326.195 231.304L281.783 119.005Z" fill="#EC204E"/>
    <path d="M415.529 315.8C418.089 313.587 420.103 311.773 421.569 310.36C423.063 308.92 424.303 307.427 425.289 305.88C426.276 304.333 426.769 302.787 426.769 301.24C426.769 299.64 426.383 298.387 425.609 297.48C424.863 296.573 423.676 296.12 422.049 296.12C420.476 296.12 419.249 296.627 418.369 297.64C417.516 298.627 417.063 299.96 417.009 301.64H412.609C412.689 298.6 413.596 296.28 415.329 294.68C417.089 293.053 419.316 292.24 422.009 292.24C424.916 292.24 427.183 293.04 428.809 294.64C430.463 296.24 431.289 298.373 431.289 301.04C431.289 302.96 430.796 304.813 429.809 306.6C428.849 308.36 427.689 309.947 426.329 311.36C424.996 312.747 423.289 314.36 421.209 316.2L419.409 317.8H432.089V321.6H412.649V318.28L415.529 315.8ZM436.095 307.04C436.095 302.427 436.869 298.827 438.415 296.24C439.989 293.627 442.682 292.32 446.495 292.32C450.309 292.32 452.989 293.627 454.535 296.24C456.109 298.827 456.895 302.427 456.895 307.04C456.895 311.707 456.109 315.36 454.535 318C452.989 320.613 450.309 321.92 446.495 321.92C442.682 321.92 439.989 320.613 438.415 318C436.869 315.36 436.095 311.707 436.095 307.04ZM452.415 307.04C452.415 304.88 452.269 303.053 451.975 301.56C451.709 300.067 451.149 298.853 450.295 297.92C449.442 296.96 448.175 296.48 446.495 296.48C444.815 296.48 443.549 296.96 442.695 297.92C441.842 298.853 441.269 300.067 440.975 301.56C440.709 303.053 440.575 304.88 440.575 307.04C440.575 309.28 440.709 311.16 440.975 312.68C441.242 314.2 441.802 315.427 442.655 316.36C443.535 317.293 444.815 317.76 446.495 317.76C448.175 317.76 449.442 317.293 450.295 316.36C451.175 315.427 451.749 314.2 452.015 312.68C452.282 311.16 452.415 309.28 452.415 307.04ZM464.24 315.8C466.8 313.587 468.814 311.773 470.28 310.36C471.774 308.92 473.014 307.427 474 305.88C474.987 304.333 475.48 302.787 475.48 301.24C475.48 299.64 475.094 298.387 474.32 297.48C473.574 296.573 472.387 296.12 470.76 296.12C469.187 296.12 467.96 296.627 467.08 297.64C466.227 298.627 465.774 299.96 465.72 301.64H461.32C461.4 298.6 462.307 296.28 464.04 294.68C465.8 293.053 468.027 292.24 470.72 292.24C473.627 292.24 475.894 293.04 477.52 294.64C479.174 296.24 480 298.373 480 301.04C480 302.96 479.507 304.813 478.52 306.6C477.56 308.36 476.4 309.947 475.04 311.36C473.707 312.747 472 314.36 469.92 316.2L468.12 317.8H480.8V321.6H461.36V318.28L464.24 315.8ZM484.206 297V292.84H492.526V322H487.926V297H484.206Z" fill="white"/>
    <path d="M52.8803 80.3199H62.2803V83.9999H48.3203V56.1999H52.8803V80.3199ZM64.5738 72.8799C64.5738 70.6666 65.0271 68.7066 65.9338 66.9999C66.8671 65.2933 68.1204 63.9733 69.6938 63.0399C71.2938 62.0799 73.0538 61.5999 74.9738 61.5999C76.7071 61.5999 78.2138 61.9466 79.4938 62.6399C80.8004 63.3066 81.8404 64.1466 82.6138 65.1599V61.9599H87.2138V83.9999H82.6138V80.7199C81.8404 81.7599 80.7871 82.6266 79.4538 83.3199C78.1204 84.0133 76.6004 84.3599 74.8938 84.3599C73.0004 84.3599 71.2671 83.8799 69.6938 82.9199C68.1204 81.9333 66.8671 80.5733 65.9338 78.8399C65.0271 77.0799 64.5738 75.0933 64.5738 72.8799ZM82.6138 72.9599C82.6138 71.4399 82.2938 70.1199 81.6538 68.9999C81.0404 67.8799 80.2271 67.0266 79.2138 66.4399C78.2004 65.8533 77.1071 65.5599 75.9338 65.5599C74.7604 65.5599 73.6671 65.8533 72.6538 66.4399C71.6404 66.9999 70.8138 67.8399 70.1738 68.9599C69.5604 70.0533 69.2538 71.3599 69.2538 72.8799C69.2538 74.3999 69.5604 75.7333 70.1738 76.8799C70.8138 78.0266 71.6404 78.9066 72.6538 79.5199C73.6938 80.1066 74.7871 80.3999 75.9338 80.3999C77.1071 80.3999 78.2004 80.1066 79.2138 79.5199C80.2271 78.9333 81.0404 78.0799 81.6538 76.9599C82.2938 75.8133 82.6138 74.4799 82.6138 72.9599ZM97.7631 65.1999C98.5365 64.1866 99.5898 63.3333 100.923 62.6399C102.256 61.9466 103.763 61.5999 105.443 61.5999C107.363 61.5999 109.11 62.0799 110.683 63.0399C112.283 63.9733 113.536 65.2933 114.443 66.9999C115.35 68.7066 115.803 70.6666 115.803 72.8799C115.803 75.0933 115.35 77.0799 114.443 78.8399C113.536 80.5733 112.283 81.9333 110.683 82.9199C109.11 83.8799 107.363 84.3599 105.443 84.3599C103.763 84.3599 102.27 84.0266 100.963 83.3599C99.6565 82.6666 98.5898 81.8133 97.7631 80.7999V94.4799H93.2031V61.9599H97.7631V65.1999ZM111.163 72.8799C111.163 71.3599 110.843 70.0533 110.203 68.9599C109.59 67.8399 108.763 66.9999 107.723 66.4399C106.71 65.8533 105.616 65.5599 104.443 65.5599C103.296 65.5599 102.203 65.8533 101.163 66.4399C100.15 67.0266 99.3231 67.8799 98.6831 68.9999C98.0698 70.1199 97.7631 71.4399 97.7631 72.9599C97.7631 74.4799 98.0698 75.8133 98.6831 76.9599C99.3231 78.0799 100.15 78.9333 101.163 79.5199C102.203 80.1066 103.296 80.3999 104.443 80.3999C105.616 80.3999 106.71 80.1066 107.723 79.5199C108.763 78.9066 109.59 78.0266 110.203 76.8799C110.843 75.7333 111.163 74.3999 111.163 72.8799ZM128.313 84.3599C126.579 84.3599 125.019 84.0533 123.633 83.4399C122.273 82.7999 121.193 81.9466 120.393 80.8799C119.593 79.7866 119.166 78.5733 119.113 77.2399H123.833C123.913 78.1733 124.353 78.9599 125.153 79.5999C125.979 80.2133 127.006 80.5199 128.233 80.5199C129.513 80.5199 130.499 80.2799 131.193 79.7999C131.913 79.2933 132.273 78.6533 132.273 77.8799C132.273 77.0533 131.873 76.4399 131.073 76.0399C130.299 75.6399 129.059 75.1999 127.353 74.7199C125.699 74.2666 124.353 73.8266 123.313 73.3999C122.273 72.9733 121.366 72.3199 120.593 71.4399C119.846 70.5599 119.473 69.3999 119.473 67.9599C119.473 66.7866 119.819 65.7199 120.513 64.7599C121.206 63.7733 122.193 62.9999 123.473 62.4399C124.779 61.8799 126.273 61.5999 127.953 61.5999C130.459 61.5999 132.473 62.2399 133.993 63.5199C135.539 64.7733 136.366 66.4933 136.473 68.6799H131.913C131.833 67.6933 131.433 66.9066 130.713 66.3199C129.993 65.7333 129.019 65.4399 127.793 65.4399C126.593 65.4399 125.673 65.6666 125.033 66.1199C124.393 66.5733 124.073 67.1733 124.073 67.9199C124.073 68.5066 124.286 68.9999 124.713 69.3999C125.139 69.7999 125.659 70.1199 126.273 70.3599C126.886 70.5733 127.793 70.8533 128.993 71.1999C130.593 71.6266 131.899 72.0666 132.913 72.5199C133.953 72.9466 134.846 73.5866 135.593 74.4399C136.339 75.2933 136.726 76.4266 136.753 77.8399C136.753 79.0933 136.406 80.2133 135.713 81.1999C135.019 82.1866 134.033 82.9599 132.753 83.5199C131.499 84.0799 130.019 84.3599 128.313 84.3599Z" fill="white"/>
    <path d="M0.140137 368.67V345.67H521.566V0.669983H544.64V368.67H0.140137Z" fill="white" fill-opacity="0.4"/>
</svg>
