<svg>
<path d="M505.065 3H8.5V328.174M505.065 3V328.174H8.5M505.065 3L521.5 19.4348V344.608H24.9348L8.5 328.174" stroke="#FE436D" fill='white'/>
<path d="M9.5 328.5L25.5 344.608C25.5 344.608 327.8 344.608 521.5 344.608C515.082 338.19 511.483 334.592 505.065 328.174C311.535 328.301 9.5 328.5 9.5 328.5Z" fill="#B81D40"/>
<path d="M521.5 344.608C521.5 217.62 521.5 19.4348 521.5 19.4348L505.065 3C505.065 3 505.065 201.185 505.065 328.174C511.483 334.592 515.082 338.19 521.5 344.608Z" fill="#FE436D"/>
<path d="M268.783 105.005L224.374 217.304L268.783 179.739L313.195 217.304L268.783 105.005Z" fill="#FE436D"/>
<path d="M0.5 368V345H521.926V0H545V368H0.5Z" fill="white"/>
</svg>
