<svg>
    <path d="M520.565 18.9992H24V344.173H520.565V18.9992Z" fill="#183AB2" stroke="#3E68FF"/>
    <path fillRule="evenodd" clipRule="evenodd" d="M280.064 89.4365L222.843 182.638C200.591 235.236 241.628 273.672 275.441 274.251C310.121 276.273 357.804 248.529 338.153 185.528C309.253 136.109 280.064 89.4365 280.064 89.4365ZM249.982 196.529L279.689 148.142C279.689 148.142 294.843 172.373 309.846 198.029C320.048 230.738 295.293 245.141 277.288 244.091C259.734 243.791 238.429 223.835 249.982 196.529Z" fill="#3E68FF"/>
    <path d="M279.465 167.484L259.188 200.51C251.303 219.149 265.845 232.769 277.827 232.974C290.116 233.691 307.013 223.859 300.049 201.534C289.809 184.023 279.465 167.484 279.465 167.484Z" fill="#3E68FF"/>
    <path d="M410.979 317.8C413.539 315.587 415.552 313.773 417.019 312.36C418.512 310.92 419.752 309.427 420.739 307.88C421.725 306.333 422.219 304.787 422.219 303.24C422.219 301.64 421.832 300.387 421.059 299.48C420.312 298.573 419.125 298.12 417.499 298.12C415.925 298.12 414.699 298.627 413.819 299.64C412.965 300.627 412.512 301.96 412.459 303.64H408.059C408.139 300.6 409.045 298.28 410.779 296.68C412.539 295.053 414.765 294.24 417.459 294.24C420.365 294.24 422.632 295.04 424.259 296.64C425.912 298.24 426.739 300.373 426.739 303.04C426.739 304.96 426.245 306.813 425.259 308.6C424.299 310.36 423.139 311.947 421.779 313.36C420.445 314.747 418.739 316.36 416.659 318.2L414.859 319.8H427.539V323.6H408.099V320.28L410.979 317.8ZM431.545 309.04C431.545 304.427 432.318 300.827 433.865 298.24C435.438 295.627 438.131 294.32 441.945 294.32C445.758 294.32 448.438 295.627 449.985 298.24C451.558 300.827 452.345 304.427 452.345 309.04C452.345 313.707 451.558 317.36 449.985 320C448.438 322.613 445.758 323.92 441.945 323.92C438.131 323.92 435.438 322.613 433.865 320C432.318 317.36 431.545 313.707 431.545 309.04ZM447.865 309.04C447.865 306.88 447.718 305.053 447.425 303.56C447.158 302.067 446.598 300.853 445.745 299.92C444.891 298.96 443.625 298.48 441.945 298.48C440.265 298.48 438.998 298.96 438.145 299.92C437.291 300.853 436.718 302.067 436.425 303.56C436.158 305.053 436.025 306.88 436.025 309.04C436.025 311.28 436.158 313.16 436.425 314.68C436.691 316.2 437.251 317.427 438.105 318.36C438.985 319.293 440.265 319.76 441.945 319.76C443.625 319.76 444.891 319.293 445.745 318.36C446.625 317.427 447.198 316.2 447.465 314.68C447.731 313.16 447.865 311.28 447.865 309.04ZM459.69 317.8C462.25 315.587 464.263 313.773 465.73 312.36C467.223 310.92 468.463 309.427 469.45 307.88C470.436 306.333 470.93 304.787 470.93 303.24C470.93 301.64 470.543 300.387 469.77 299.48C469.023 298.573 467.836 298.12 466.21 298.12C464.636 298.12 463.41 298.627 462.53 299.64C461.676 300.627 461.223 301.96 461.17 303.64H456.77C456.85 300.6 457.756 298.28 459.49 296.68C461.25 295.053 463.476 294.24 466.17 294.24C469.076 294.24 471.343 295.04 472.97 296.64C474.623 298.24 475.45 300.373 475.45 303.04C475.45 304.96 474.956 306.813 473.97 308.6C473.01 310.36 471.85 311.947 470.49 313.36C469.156 314.747 467.45 316.36 465.37 318.2L463.57 319.8H476.25V323.6H456.81V320.28L459.69 317.8ZM482.775 317.8C485.335 315.587 487.349 313.773 488.815 312.36C490.309 310.92 491.549 309.427 492.535 307.88C493.522 306.333 494.015 304.787 494.015 303.24C494.015 301.64 493.629 300.387 492.855 299.48C492.109 298.573 490.922 298.12 489.295 298.12C487.722 298.12 486.495 298.627 485.615 299.64C484.762 300.627 484.309 301.96 484.255 303.64H479.855C479.935 300.6 480.842 298.28 482.575 296.68C484.335 295.053 486.562 294.24 489.255 294.24C492.162 294.24 494.429 295.04 496.055 296.64C497.709 298.24 498.535 300.373 498.535 303.04C498.535 304.96 498.042 306.813 497.055 308.6C496.095 310.36 494.935 311.947 493.575 313.36C492.242 314.747 490.535 316.36 488.455 318.2L486.655 319.8H499.335V323.6H479.895V320.28L482.775 317.8Z" fill="white"/>
    <path d="M84.243 55.1999L76.003 82.9999H70.843L65.003 61.9599L58.803 82.9999L53.683 83.0399L45.803 55.1999H50.643L56.403 77.8399L62.643 55.1999H67.763L73.563 77.7199L79.363 55.1999H84.243ZM86.4839 71.8799C86.4839 69.6666 86.9372 67.7066 87.8439 65.9999C88.7772 64.2933 90.0306 62.9733 91.6039 62.0399C93.2039 61.0799 94.9639 60.5999 96.8839 60.5999C98.6172 60.5999 100.124 60.9466 101.404 61.6399C102.711 62.3066 103.751 63.1466 104.524 64.1599V60.9599H109.124V82.9999H104.524V79.7199C103.751 80.7599 102.697 81.6266 101.364 82.3199C100.031 83.0133 98.5106 83.3599 96.8039 83.3599C94.9106 83.3599 93.1772 82.8799 91.6039 81.9199C90.0306 80.9333 88.7772 79.5733 87.8439 77.8399C86.9372 76.0799 86.4839 74.0933 86.4839 71.8799ZM104.524 71.9599C104.524 70.4399 104.204 69.1199 103.564 67.9999C102.951 66.8799 102.137 66.0266 101.124 65.4399C100.111 64.8533 99.0172 64.5599 97.8439 64.5599C96.6706 64.5599 95.5772 64.8533 94.5639 65.4399C93.5506 65.9999 92.7239 66.8399 92.0839 67.9599C91.4706 69.0533 91.1639 70.3599 91.1639 71.8799C91.1639 73.3999 91.4706 74.7333 92.0839 75.8799C92.7239 77.0266 93.5506 77.9066 94.5639 78.5199C95.6039 79.1066 96.6972 79.3999 97.8439 79.3999C99.0172 79.3999 100.111 79.1066 101.124 78.5199C102.137 77.9333 102.951 77.0799 103.564 75.9599C104.204 74.8133 104.524 73.4799 104.524 71.9599ZM120.433 64.6799V76.8799C120.433 77.7066 120.62 78.3066 120.993 78.6799C121.393 79.0266 122.06 79.1999 122.993 79.1999H125.793V82.9999H122.193C120.14 82.9999 118.567 82.5199 117.473 81.5599C116.38 80.5999 115.833 79.0399 115.833 76.8799V64.6799H113.233V60.9599H115.833V55.4799H120.433V60.9599H125.793V64.6799H120.433ZM144.436 82.9999L138.036 71.8799H134.556V82.9999H129.996V55.1999H139.596C141.729 55.1999 143.529 55.5733 144.996 56.3199C146.489 57.0666 147.596 58.0666 148.316 59.3199C149.063 60.5733 149.436 61.9733 149.436 63.5199C149.436 65.3333 148.903 66.9866 147.836 68.4799C146.796 69.9466 145.183 70.9466 142.996 71.4799L149.876 82.9999H144.436ZM134.556 68.2399H139.596C141.303 68.2399 142.583 67.8133 143.436 66.9599C144.316 66.1066 144.756 64.9599 144.756 63.5199C144.756 62.0799 144.329 60.9599 143.476 60.1599C142.623 59.3333 141.329 58.9199 139.596 58.9199H134.556V68.2399ZM175.47 71.4399C175.47 72.2666 175.416 73.0133 175.31 73.6799H158.47C158.603 75.4399 159.256 76.8533 160.43 77.9199C161.603 78.9866 163.043 79.5199 164.75 79.5199C167.203 79.5199 168.936 78.4933 169.95 76.4399H174.87C174.203 78.4666 172.99 80.1333 171.23 81.4399C169.496 82.7199 167.336 83.3599 164.75 83.3599C162.643 83.3599 160.75 82.8933 159.07 81.9599C157.416 80.9999 156.11 79.6666 155.15 77.9599C154.216 76.2266 153.75 74.2266 153.75 71.9599C153.75 69.6933 154.203 67.7066 155.11 65.9999C156.043 64.2666 157.336 62.9333 158.99 61.9999C160.67 61.0666 162.59 60.5999 164.75 60.5999C166.83 60.5999 168.683 61.0533 170.31 61.9599C171.936 62.8666 173.203 64.1466 174.11 65.7999C175.016 67.4266 175.47 69.3066 175.47 71.4399ZM170.71 69.9999C170.683 68.3199 170.083 66.9733 168.91 65.9599C167.736 64.9466 166.283 64.4399 164.55 64.4399C162.976 64.4399 161.63 64.9466 160.51 65.9599C159.39 66.9466 158.723 68.2933 158.51 69.9999H170.71Z" fill="white"/>
</svg>
