<svg width="545" height="368" viewBox="0 0 545 368" fill="none" xmlns="http://www.w3.org/2000/svg">
<path d="M504.565 3H8V328.174M504.565 3V328.174H8M504.565 3L521 19.4348V344.608H24.4348L8 328.174" stroke="#3E68FF"/>
<path d="M8.5 328.174L24.5 344.608H521L504.565 328.174H8.5Z" fill="#183AB3"/>
<path d="M521 344.608V19.4348L504.565 3V328.174L521 344.608Z" fill="#3E68FF"/>
<path d="M0 368V345H521.426V0H544.5V368H0Z" fill="white"/>
<path fill-rule="evenodd" clip-rule="evenodd" d="M264.064 73.4373L206.843 166.639C184.591 219.237 225.628 257.673 259.441 258.251C294.121 260.274 341.804 232.53 322.153 169.528C293.253 120.11 264.064 73.4373 264.064 73.4373ZM233.982 180.53L263.689 132.143C263.689 132.143 278.843 156.374 293.846 182.03C304.048 214.738 279.293 229.142 261.288 228.092C243.734 227.792 222.429 207.836 233.982 180.53Z" fill="#3E68FF"/>
<path d="M263.465 151.484L243.188 184.511C235.303 203.15 249.845 216.77 261.827 216.975C274.116 217.691 291.013 207.86 284.049 185.535C273.809 168.024 263.465 151.484 263.465 151.484Z" fill="#3E68FF"/>
</svg>
