<svg width="545" height="368" viewBox="0 0 545 368" fill="none" xmlns="http://www.w3.org/2000/svg">
<path d="M8 3H504.565L521 19.4348V344.608H24.4348L8 328.174V3Z" fill="white"/>
<path d="M504.565 3H8V328.174M504.565 3V328.174H8M504.565 3L521 19.4348V344.608H24.4348L8 328.174" stroke="#FF9330"/>
<path d="M9 328.5L25 344.608C25 344.608 327.3 344.608 521 344.608C514.582 338.19 510.983 334.592 504.565 328.174C311.035 328.301 9 328.5 9 328.5Z" fill="#AF6018"/>
<path d="M521 344.608C521 217.62 521 19.4348 521 19.4348L504.565 3C504.565 3 504.565 201.185 504.565 328.174C510.983 334.592 514.582 338.19 521 344.608Z" fill="#FF9330"/>
<path d="M0 368V345H521.426V0H544.5V368H0Z" fill="white"/>
<path d="M150.864 238C164.75 238 176.003 226.819 176.003 213.028C176.003 199.235 164.75 188.056 150.864 188.056C136.981 188.056 125.726 199.235 125.726 213.028C125.726 226.819 136.981 238 150.864 238Z" fill="#FF9330"/>
<path d="M440.865 212.228C440.865 207.939 439.93 203.903 437.901 200.189C435.869 196.476 433.291 193.529 429.65 191.352C426.009 189.177 422.011 188.088 417.403 188.088C412.794 188.088 408.539 189.207 404.801 191.417C401.062 193.658 398.129 196.667 396.035 200.509C393.922 204.347 392.825 208.654 392.844 213.028C392.844 217.543 393.908 221.736 396.035 225.546C398.103 229.29 401.141 232.418 404.833 234.607C408.572 236.848 412.794 237.97 417.403 237.97C421.173 237.97 424.589 237.231 427.748 235.759C430.753 234.361 433.423 232.342 435.58 229.838C437.706 227.371 438.9 225.194 439.705 222.28L428.328 222.505C427.748 223.466 426.846 224.618 425.944 225.323C424.879 226.154 423.622 226.922 422.108 227.371C420.658 227.788 419.079 228.108 417.208 228.108C414.726 228.108 412.472 227.5 410.441 226.283C408.409 225.065 406.8 223.305 405.638 220.999C404.841 219.422 404.318 217.724 404.091 215.974H440.8C440.832 214.852 440.865 213.316 440.865 212.228ZM404.511 207.425C404.776 206.405 405.177 205.425 405.703 204.511C406.96 202.237 408.604 200.574 410.633 199.452C412.665 198.332 414.921 197.789 417.37 197.789C419.497 197.789 421.496 198.236 423.365 199.1C425.234 199.966 426.749 201.15 427.908 202.624C429.07 204.094 429.714 205.695 429.875 207.457L404.511 207.425ZM332.283 238C328.095 238 324.324 236.88 320.908 234.671C317.49 232.43 314.816 229.421 312.882 225.643C310.948 221.865 309.981 217.638 309.981 213.06C309.981 208.482 310.948 204.32 312.914 200.509C314.881 196.699 317.522 193.658 320.939 191.449C324.324 189.207 328.095 188.12 332.253 188.12C334.83 188.12 337.248 188.503 339.44 189.272C341.664 190.039 344.048 191.578 345.725 192.986C347.367 194.363 348.753 196.252 349.333 199.037V189.526H359.938V236.59H349.333V228.2C348.238 230.635 347.432 231.978 345.272 233.708C343.536 235.13 341.547 236.216 339.407 236.91C337.183 237.615 334.83 238 332.283 238ZM334.927 227.755C337.506 227.755 339.858 227.115 341.986 225.834C344.12 224.552 345.859 222.713 347.014 220.517C348.238 218.278 348.851 215.781 348.851 213.06C348.851 210.337 348.238 207.904 347.014 205.665C345.789 203.424 344.113 201.629 341.954 200.318C339.825 199.005 337.473 198.365 334.927 198.365C332.381 198.365 330.029 198.973 327.933 200.221C325.811 201.471 324.064 203.261 322.873 205.407C321.616 207.616 321.003 210.178 321.003 213.092C321.003 216.004 321.616 218.663 322.873 220.872C324.13 223.081 325.806 224.809 327.933 225.993C330.061 227.179 332.413 227.755 334.927 227.755ZM147.481 159.593C143.29 159.593 139.52 158.474 136.103 156.264C132.687 154.023 130.011 151.012 128.079 147.234C126.145 143.458 125.178 139.231 125.178 134.653C125.178 130.074 126.145 125.913 128.112 122.103C130.078 118.292 132.752 115.251 136.136 113.04C139.522 110.801 143.292 109.713 147.448 109.713C150.027 109.713 152.411 110.096 154.635 110.865C156.859 111.633 159.278 113.169 160.92 114.579C162.562 115.956 163.951 117.843 164.529 120.631V111.089H175.134V158.153H164.531V149.763C163.436 152.198 162.629 153.542 160.47 155.271C158.737 156.7 156.746 157.787 154.603 158.474C152.306 159.231 149.9 159.609 147.481 159.593ZM150.157 149.349C152.734 149.349 155.087 148.708 157.212 147.427C159.346 146.145 161.086 144.306 162.242 142.111C163.466 139.839 164.079 137.374 164.079 134.653C164.099 132.07 163.456 129.524 162.209 127.256C160.985 125.015 159.31 123.222 157.149 121.909C155.044 120.6 152.608 119.912 150.124 119.926C147.578 119.926 145.224 120.534 143.13 121.782C141.008 123.032 139.261 124.822 138.07 126.968C136.813 129.178 136.201 131.739 136.201 134.653C136.201 137.565 136.813 140.224 138.07 142.433C139.327 144.674 141.004 146.37 143.13 147.554C145.277 148.743 147.697 149.361 150.155 149.347L150.157 149.349ZM257.124 133.822C257.124 129.532 256.192 125.496 254.161 121.782C252.129 118.069 249.55 115.157 245.909 112.946C242.268 110.771 238.27 109.681 233.662 109.681C229.054 109.681 224.799 110.801 221.06 113.01C217.322 115.251 214.391 118.26 212.294 122.103C210.183 125.941 209.085 130.247 209.103 134.621C209.103 139.134 210.168 143.329 212.294 147.139C214.363 150.884 217.4 154.012 221.093 156.2C224.831 158.441 229.02 159.561 233.662 159.561C237.433 159.561 240.882 158.824 244.008 157.352C247.013 155.953 249.683 153.934 251.839 151.429C253.968 148.964 255.16 146.787 255.965 143.873L244.588 144.096C244.008 145.057 243.106 146.211 242.171 146.916C241.107 147.748 239.85 148.515 238.335 148.964C236.886 149.381 235.306 149.701 233.437 149.701C230.956 149.701 228.699 149.091 226.668 147.874C224.639 146.658 223.027 144.898 221.833 142.592C221.035 141.015 220.512 139.316 220.286 137.565H256.997C257.125 136.446 257.124 134.907 257.124 133.82V133.822ZM220.771 129.018C221.041 127.99 221.442 127 221.963 126.072C223.22 123.798 224.862 122.135 226.895 121.013C228.924 119.893 231.181 119.35 233.662 119.35C235.791 119.35 237.788 119.797 239.657 120.663C241.526 121.527 243.043 122.711 244.2 124.183C245.362 125.655 246.005 127.288 246.167 129.016L220.771 129.018ZM364.514 189.528H375.214V198.044C375.988 196.284 376.986 194.746 378.18 193.497C379.383 192.233 380.844 191.24 382.466 190.585C384.11 189.912 385.947 189.56 387.946 189.56H392.973V199.1H388.493C385.947 199.1 383.69 199.71 381.756 200.926C379.822 202.143 378.308 203.935 377.245 206.271C376.181 208.609 375.634 211.459 375.634 214.756V236.655H364.481L364.514 189.528ZM199.467 93C195.759 93 192.891 93.8962 190.991 95.6261C189.122 97.354 188.153 99.8512 188.153 103.053L188.09 111.121H178.517V120.598H188.058V158.218H199.048V120.564H208.588V111.119H199.046V104.332C199.046 103.436 199.143 102.89 199.368 102.634C199.69 102.252 200.495 102.187 201.205 102.187H208.584L208.653 93H199.467ZM96.4937 159.593C90.7888 159.593 86.0185 158.633 82.1828 156.744C78.3491 154.855 75.5454 152.357 73.739 149.316C71.9365 146.352 70.989 142.952 71.0001 139.489H82.4747C82.468 140.059 82.5224 140.628 82.6369 141.186C82.9236 142.865 83.6827 144.429 84.8264 145.697C86.0185 147.01 87.5978 148.068 89.5643 148.835C91.5308 149.604 93.8176 149.989 96.4288 149.989C99.5549 149.989 102.166 149.637 104.228 148.962C106.292 148.291 107.837 147.234 108.87 145.891C109.9 144.545 110.417 142.785 110.417 140.703C110.417 138.878 109.835 137.342 108.676 136.125C107.516 134.909 105.905 133.916 103.843 133.147C101.779 132.38 99.1373 131.707 95.9767 131.131C91.5632 130.203 87.6951 129.113 84.3743 127.834C81.1661 126.606 78.2952 124.642 75.9954 122.103C73.739 119.573 72.6098 116.307 72.6098 112.305C72.6098 108.815 73.4491 105.742 75.1581 103.086C76.8327 100.427 79.4439 98.3147 82.9572 96.7781C86.4706 95.2415 90.8537 94.4701 96.1065 94.4701C101.359 94.4701 105.485 95.2072 109.031 96.7438C112.576 98.2804 115.218 100.457 116.992 103.275C118.764 106.094 119.668 109.357 119.668 113.137H108.193C108.193 111.471 107.741 109.967 106.872 108.654C106 107.373 104.648 106.318 102.811 105.581C100.974 104.811 98.6852 104.427 95.9139 104.427C92.9479 104.427 90.5617 104.779 88.7898 105.514C87.018 106.253 85.8259 107.214 85.1163 108.366C84.4068 109.55 84.0844 110.863 84.0844 112.335C84.0844 114.033 84.6663 115.473 85.8259 116.657C86.9855 117.841 88.6946 118.802 90.9814 119.603C93.2723 120.403 96.2038 121.076 99.8448 121.652C104.163 122.421 107.968 123.508 111.222 124.918C114.478 126.328 117.087 128.342 119.088 130.938C121.085 133.53 122.085 136.796 122.085 140.733C122.085 144.672 121.051 148.098 118.958 150.948C116.862 153.795 113.898 155.942 110.063 157.412C106.162 158.854 101.649 159.593 96.4937 159.593ZM96.4937 238C90.7888 238 86.0185 237.039 82.1828 235.15C78.3491 233.261 75.5454 230.764 73.739 227.723C71.9365 224.759 70.989 221.359 71.0001 217.895H82.4747C82.468 218.465 82.5224 219.034 82.6369 219.593C82.9236 221.272 83.6827 222.836 84.8264 224.104C86.0185 225.417 87.5978 226.475 89.5643 227.242C91.5308 228.011 93.8176 228.396 96.4288 228.396C99.5549 228.396 102.166 228.043 104.228 227.371C106.292 226.698 107.837 225.643 108.87 224.297C109.9 222.952 110.417 221.192 110.417 219.11C110.417 217.285 109.835 215.749 108.676 214.532C107.516 213.316 105.905 212.323 103.843 211.556C101.779 210.786 99.1373 210.114 95.9767 209.538C91.5632 208.609 87.6951 207.52 84.3743 206.241C81.1661 205.012 78.2952 203.049 75.9954 200.509C73.739 197.98 72.6098 194.715 72.6098 190.712C72.6098 187.222 73.4491 184.149 75.1581 181.492C76.8327 178.834 79.4439 176.721 82.9572 175.185C86.4706 173.648 90.8537 172.879 96.1065 172.879C101.359 172.879 105.517 173.648 109.063 175.185C112.609 176.721 115.25 178.898 117.024 181.716C118.796 184.535 119.7 187.798 119.7 191.578H108.226C108.226 189.912 107.774 188.408 106.904 187.127C106.032 185.846 104.68 184.791 102.843 184.054C101.006 183.285 98.7176 182.9 95.9463 182.9C92.9803 182.9 90.5942 183.252 88.8223 183.987C87.0504 184.727 85.8259 185.685 85.1488 186.839C84.4392 188.023 84.1169 189.336 84.1169 190.809C84.1169 192.506 84.6967 193.978 85.8583 195.13C87.018 196.315 88.727 197.275 91.0138 198.044C93.3047 198.812 96.2362 199.484 99.8773 200.093C104.195 200.862 107.999 201.949 111.255 203.359C114.51 204.769 117.12 206.783 119.119 209.379C121.118 211.97 122.117 215.237 122.117 219.174C122.117 223.113 121.083 226.539 118.989 229.389C116.895 232.236 113.931 234.383 110.095 235.853C106.162 237.263 101.651 238 96.4937 238ZM226.411 198.971H235.919V189.495H226.411V171.536L215.26 178.451V189.495H197.241V182.741C197.241 181.845 197.337 181.299 197.564 181.043C197.886 180.661 198.691 180.596 199.401 180.596H206.78L206.845 171.439H197.661C193.953 171.439 191.084 172.335 189.183 174.065C187.314 175.793 186.347 178.29 186.347 181.492L186.282 189.495H176.711V198.973H186.251V236.59H197.239V198.971H215.256V218.661C215.256 223.462 215.708 227.145 217.095 229.866C218.32 232.299 220.286 234.699 222.67 235.757C224.894 236.749 227.665 236.558 230.534 236.558H235.947V227.177H232.855C231.534 227.177 230.372 227.113 229.375 226.634C228.375 226.15 227.57 225.321 226.923 224.102C226.279 222.886 226.441 221.222 226.441 219.108L226.409 198.969L226.411 198.971ZM239.722 189.528H251.712L260.993 219.333L261.83 222.185H261.96L262.831 219.398L271.823 189.56H280.072L288.743 219.08L289.71 222.185H289.837L290.934 218.886L300.215 189.528H311.98L295.994 236.592H285.681L275.818 206.112H275.786L265.828 236.592H255.675L239.722 189.528Z" fill="#FF9330"/>
</svg>
