<svg>
    <path d="M504.565 3H8V328.174M504.565 3V328.174H8M504.565 3L521 19.4348V344.608H24.4348L8 328.174" stroke="#C474EA" fill='white'/>
    <path d="M8.5 328.174L24.5 344.608H521L504.565 328.174H8.5Z" fill="#B740EF"/>
    <path d="M521 344.608V19.4348L504.565 3V328.174L521 344.608Z" fill="#C474EA"/>
    <path d="M0 368.1V345.1H521.426V0.100098H544.5V368.1H0Z" fill="white"/>
    <path d="M228 80V267M302 80V267M171 136.75H359M171 210.25H265H359" stroke="#C474EA" stroke-width="10"/>
    <path d="M286 174C286 185.598 276.598 195 265 195C253.402 195 244 185.598 244 174C244 162.402 253.402 153 265 153C276.598 153 286 162.402 286 174Z" stroke="#C474EA" stroke-width="10"/>
</svg>
