<svg>
    <path d="M520.925 19.3292H24.3601V344.503H520.925V19.3292Z" fill="#1F9801" stroke="#62E160"/>
    <path d="M268.189 184.377L322.392 104.978C322.392 104.978 324.605 94.1017 325.287 88.6635C334.56 77.787 348.941 90.8388 347.715 99.54C341.198 108.241 331.242 110.417 331.242 110.417C331.242 110.417 293.631 162.624 275.932 189.815C252.702 259.424 242.746 264.862 225.047 288.791C210.667 285.528 202.923 280.09 195.18 268.125C208.454 240.282 249.383 200.691 268.189 184.377Z" fill="#62E160"/>
    <path d="M411.339 318.63C413.899 316.417 415.912 314.603 417.379 313.19C418.872 311.75 420.112 310.256 421.099 308.71C422.085 307.163 422.579 305.616 422.579 304.07C422.579 302.47 422.192 301.216 421.419 300.31C420.672 299.403 419.485 298.95 417.859 298.95C416.285 298.95 415.059 299.456 414.179 300.47C413.325 301.456 412.872 302.79 412.819 304.47H408.419C408.499 301.43 409.405 299.11 411.139 297.51C412.899 295.883 415.125 295.07 417.819 295.07C420.725 295.07 422.992 295.87 424.619 297.47C426.272 299.07 427.099 301.203 427.099 303.87C427.099 305.79 426.605 307.643 425.619 309.43C424.659 311.19 423.499 312.777 422.139 314.19C420.805 315.577 419.099 317.19 417.019 319.03L415.219 320.63H427.899V324.43H408.459V321.11L411.339 318.63ZM431.905 309.87C431.905 305.256 432.678 301.656 434.225 299.07C435.798 296.456 438.491 295.15 442.305 295.15C446.118 295.15 448.798 296.456 450.345 299.07C451.918 301.656 452.705 305.256 452.705 309.87C452.705 314.537 451.918 318.19 450.345 320.83C448.798 323.443 446.118 324.75 442.305 324.75C438.491 324.75 435.798 323.443 434.225 320.83C432.678 318.19 431.905 314.537 431.905 309.87ZM448.225 309.87C448.225 307.71 448.078 305.883 447.785 304.39C447.518 302.896 446.958 301.683 446.105 300.75C445.251 299.79 443.985 299.31 442.305 299.31C440.625 299.31 439.358 299.79 438.505 300.75C437.651 301.683 437.078 302.896 436.785 304.39C436.518 305.883 436.385 307.71 436.385 309.87C436.385 312.11 436.518 313.99 436.785 315.51C437.051 317.03 437.611 318.257 438.465 319.19C439.345 320.123 440.625 320.59 442.305 320.59C443.985 320.59 445.251 320.123 446.105 319.19C446.985 318.257 447.558 317.03 447.825 315.51C448.091 313.99 448.225 312.11 448.225 309.87ZM460.05 318.63C462.61 316.417 464.623 314.603 466.09 313.19C467.583 311.75 468.823 310.256 469.81 308.71C470.796 307.163 471.29 305.616 471.29 304.07C471.29 302.47 470.903 301.216 470.13 300.31C469.383 299.403 468.196 298.95 466.57 298.95C464.996 298.95 463.77 299.456 462.89 300.47C462.036 301.456 461.583 302.79 461.53 304.47H457.13C457.21 301.43 458.116 299.11 459.85 297.51C461.61 295.883 463.836 295.07 466.53 295.07C469.436 295.07 471.703 295.87 473.33 297.47C474.983 299.07 475.81 301.203 475.81 303.87C475.81 305.79 475.316 307.643 474.33 309.43C473.37 311.19 472.21 312.777 470.85 314.19C469.516 315.577 467.81 317.19 465.73 319.03L463.93 320.63H476.61V324.43H457.17V321.11L460.05 318.63ZM483.136 318.63C485.696 316.417 487.709 314.603 489.176 313.19C490.669 311.75 491.909 310.256 492.896 308.71C493.882 307.163 494.376 305.616 494.376 304.07C494.376 302.47 493.989 301.216 493.216 300.31C492.469 299.403 491.282 298.95 489.656 298.95C488.082 298.95 486.856 299.456 485.976 300.47C485.122 301.456 484.669 302.79 484.616 304.47H480.216C480.296 301.43 481.202 299.11 482.936 297.51C484.696 295.883 486.922 295.07 489.616 295.07C492.522 295.07 494.789 295.87 496.416 297.47C498.069 299.07 498.896 301.203 498.896 303.87C498.896 305.79 498.402 307.643 497.416 309.43C496.456 311.19 495.296 312.777 493.936 314.19C492.602 315.577 490.896 317.19 488.816 319.03L487.016 320.63H499.696V324.43H480.256V321.11L483.136 318.63Z" fill="white"/>
    <path d="M63.4979 69.5499C64.9913 69.8166 66.2579 70.6032 67.2979 71.9099C68.3379 73.2166 68.8579 74.6966 68.8579 76.3499C68.8579 77.7632 68.4846 79.0432 67.7379 80.1899C67.0179 81.3099 65.9646 82.2032 64.5779 82.8699C63.1913 83.5099 61.5779 83.8299 59.7379 83.8299H48.6179V56.0299H59.2179C61.1113 56.0299 62.7379 56.3499 64.0979 56.9899C65.4579 57.6299 66.4846 58.4966 67.1779 59.5899C67.8713 60.6566 68.2179 61.8566 68.2179 63.1899C68.2179 64.7899 67.7913 66.1232 66.9379 67.1899C66.0846 68.2566 64.9379 69.0432 63.4979 69.5499ZM53.1779 67.7099H58.8179C60.3113 67.7099 61.4713 67.3766 62.2979 66.7099C63.1513 66.0166 63.5779 65.0299 63.5779 63.7499C63.5779 62.4966 63.1513 61.5232 62.2979 60.8299C61.4713 60.1099 60.3113 59.7499 58.8179 59.7499H53.1779V67.7099ZM59.3379 80.1099C60.8846 80.1099 62.0979 79.7366 62.9779 78.9899C63.8579 78.2432 64.2979 77.2032 64.2979 75.8699C64.2979 74.5099 63.8313 73.4299 62.8979 72.6299C61.9646 71.8299 60.7246 71.4299 59.1779 71.4299H53.1779V80.1099H59.3379ZM83.3732 84.1899C81.2932 84.1899 79.4132 83.7232 77.7332 82.7899C76.0532 81.8299 74.7332 80.4966 73.7732 78.7899C72.8132 77.0566 72.3332 75.0566 72.3332 72.7899C72.3332 70.5499 72.8266 68.5632 73.8132 66.8299C74.7999 65.0966 76.1466 63.7632 77.8532 62.8299C79.5599 61.8966 81.4666 61.4299 83.5732 61.4299C85.6799 61.4299 87.5866 61.8966 89.2932 62.8299C90.9999 63.7632 92.3466 65.0966 93.3332 66.8299C94.3199 68.5632 94.8132 70.5499 94.8132 72.7899C94.8132 75.0299 94.3066 77.0166 93.2932 78.7499C92.2799 80.4832 90.8932 81.8299 89.1332 82.7899C87.3999 83.7232 85.4799 84.1899 83.3732 84.1899ZM83.3732 80.2299C84.5466 80.2299 85.6399 79.9499 86.6532 79.3899C87.6932 78.8299 88.5332 77.9899 89.1732 76.8699C89.8132 75.7499 90.1332 74.3899 90.1332 72.7899C90.1332 71.1899 89.8266 69.8432 89.2132 68.7499C88.5999 67.6299 87.7866 66.7899 86.7732 66.2299C85.7599 65.6699 84.6666 65.3899 83.4932 65.3899C82.3199 65.3899 81.2266 65.6699 80.2132 66.2299C79.2266 66.7899 78.4399 67.6299 77.8532 68.7499C77.2666 69.8432 76.9732 71.1899 76.9732 72.7899C76.9732 75.1632 77.5732 77.0032 78.7732 78.3099C79.9999 79.5899 81.5332 80.2299 83.3732 80.2299ZM97.801 72.7099C97.801 70.4966 98.2544 68.5366 99.161 66.8299C100.094 65.1232 101.348 63.8032 102.921 62.8699C104.521 61.9099 106.281 61.4299 108.201 61.4299C109.934 61.4299 111.441 61.7766 112.721 62.4699C114.028 63.1366 115.068 63.9766 115.841 64.9899V61.7899H120.441V83.8299H115.841V80.5499C115.068 81.5899 114.014 82.4566 112.681 83.1499C111.348 83.8432 109.828 84.1899 108.121 84.1899C106.228 84.1899 104.494 83.7099 102.921 82.7499C101.348 81.7632 100.094 80.4032 99.161 78.6699C98.2544 76.9099 97.801 74.9232 97.801 72.7099ZM115.841 72.7899C115.841 71.2699 115.521 69.9499 114.881 68.8299C114.268 67.7099 113.454 66.8566 112.441 66.2699C111.428 65.6832 110.334 65.3899 109.161 65.3899C107.988 65.3899 106.894 65.6832 105.881 66.2699C104.868 66.8299 104.041 67.6699 103.401 68.7899C102.788 69.8832 102.481 71.1899 102.481 72.7099C102.481 74.2299 102.788 75.5632 103.401 76.7099C104.041 77.8566 104.868 78.7366 105.881 79.3499C106.921 79.9366 108.014 80.2299 109.161 80.2299C110.334 80.2299 111.428 79.9366 112.441 79.3499C113.454 78.7632 114.268 77.9099 114.881 76.7899C115.521 75.6432 115.841 74.3099 115.841 72.7899ZM131.75 65.5099V77.7099C131.75 78.5366 131.937 79.1366 132.31 79.5099C132.71 79.8566 133.377 80.0299 134.31 80.0299H137.11V83.8299H133.51C131.457 83.8299 129.884 83.3499 128.79 82.3899C127.697 81.4299 127.15 79.8699 127.15 77.7099V65.5099H124.55V61.7899H127.15V56.3099H131.75V61.7899H137.11V65.5099H131.75ZM150.753 72.6699L157.873 83.8299H152.713L147.953 76.3499L143.473 83.8299H138.713L145.833 72.9899L138.713 61.7899H143.873L148.633 69.2699L153.113 61.7899H157.873L150.753 72.6699ZM165.314 80.1099H175.314V83.8299H160.034V80.1099L170.074 65.5099H160.034V61.7899H175.314V65.5099L165.314 80.1099Z" fill="white"/>
</svg>
