<svg>
    <path d="M520.925 19.3292H24.3601V344.503H520.925V19.3292Z" fill="#1F9801" stroke="#62E160"/>
    <path d="M268.189 184.377L322.392 104.978C322.392 104.978 324.605 94.1017 325.287 88.6635C334.56 77.787 348.941 90.8388 347.715 99.54C341.198 108.241 331.242 110.417 331.242 110.417C331.242 110.417 293.631 162.624 275.932 189.815C252.702 259.424 242.746 264.862 225.047 288.791C210.667 285.528 202.923 280.09 195.18 268.125C208.454 240.282 249.383 200.691 268.189 184.377Z" fill="#62E160"/>
    <path d="M411.339 318.63C413.899 316.417 415.912 314.603 417.379 313.19C418.872 311.75 420.112 310.256 421.099 308.71C422.085 307.163 422.579 305.616 422.579 304.07C422.579 302.47 422.192 301.216 421.419 300.31C420.672 299.403 419.485 298.95 417.859 298.95C416.285 298.95 415.059 299.456 414.179 300.47C413.325 301.456 412.872 302.79 412.819 304.47H408.419C408.499 301.43 409.405 299.11 411.139 297.51C412.899 295.883 415.125 295.07 417.819 295.07C420.725 295.07 422.992 295.87 424.619 297.47C426.272 299.07 427.099 301.203 427.099 303.87C427.099 305.79 426.605 307.643 425.619 309.43C424.659 311.19 423.499 312.777 422.139 314.19C420.805 315.577 419.099 317.19 417.019 319.03L415.219 320.63H427.899V324.43H408.459V321.11L411.339 318.63ZM431.905 309.87C431.905 305.256 432.678 301.656 434.225 299.07C435.798 296.456 438.491 295.15 442.305 295.15C446.118 295.15 448.798 296.456 450.345 299.07C451.918 301.656 452.705 305.256 452.705 309.87C452.705 314.537 451.918 318.19 450.345 320.83C448.798 323.443 446.118 324.75 442.305 324.75C438.491 324.75 435.798 323.443 434.225 320.83C432.678 318.19 431.905 314.537 431.905 309.87ZM448.225 309.87C448.225 307.71 448.078 305.883 447.785 304.39C447.518 302.896 446.958 301.683 446.105 300.75C445.251 299.79 443.985 299.31 442.305 299.31C440.625 299.31 439.358 299.79 438.505 300.75C437.651 301.683 437.078 302.896 436.785 304.39C436.518 305.883 436.385 307.71 436.385 309.87C436.385 312.11 436.518 313.99 436.785 315.51C437.051 317.03 437.611 318.257 438.465 319.19C439.345 320.123 440.625 320.59 442.305 320.59C443.985 320.59 445.251 320.123 446.105 319.19C446.985 318.257 447.558 317.03 447.825 315.51C448.091 313.99 448.225 312.11 448.225 309.87ZM460.05 318.63C462.61 316.417 464.623 314.603 466.09 313.19C467.583 311.75 468.823 310.256 469.81 308.71C470.796 307.163 471.29 305.616 471.29 304.07C471.29 302.47 470.903 301.216 470.13 300.31C469.383 299.403 468.196 298.95 466.57 298.95C464.996 298.95 463.77 299.456 462.89 300.47C462.036 301.456 461.583 302.79 461.53 304.47H457.13C457.21 301.43 458.116 299.11 459.85 297.51C461.61 295.883 463.836 295.07 466.53 295.07C469.436 295.07 471.703 295.87 473.33 297.47C474.983 299.07 475.81 301.203 475.81 303.87C475.81 305.79 475.316 307.643 474.33 309.43C473.37 311.19 472.21 312.777 470.85 314.19C469.516 315.577 467.81 317.19 465.73 319.03L463.93 320.63H476.61V324.43H457.17V321.11L460.05 318.63ZM483.136 318.63C485.696 316.417 487.709 314.603 489.176 313.19C490.669 311.75 491.909 310.256 492.896 308.71C493.882 307.163 494.376 305.616 494.376 304.07C494.376 302.47 493.989 301.216 493.216 300.31C492.469 299.403 491.282 298.95 489.656 298.95C488.082 298.95 486.856 299.456 485.976 300.47C485.122 301.456 484.669 302.79 484.616 304.47H480.216C480.296 301.43 481.202 299.11 482.936 297.51C484.696 295.883 486.922 295.07 489.616 295.07C492.522 295.07 494.789 295.87 496.416 297.47C498.069 299.07 498.896 301.203 498.896 303.87C498.896 305.79 498.402 307.643 497.416 309.43C496.456 311.19 495.296 312.777 493.936 314.19C492.602 315.577 490.896 317.19 488.816 319.03L487.016 320.63H499.696V324.43H480.256V321.11L483.136 318.63Z" fill="white"/>
</svg>
