<svg>
    <path d="M505.065 3.5H8.5V328.674M505.065 3.5V328.674H8.5M505.065 3.5L521.5 19.9348V345.108H24.9348L8.5 328.674" stroke="#FF4343" fill='white'/>
    <path d="M9.5 329L25.5 345.108H521.5L505.065 328.674L9.5 329Z" fill="#C22626"/>
    <path d="M521.5 345.108V19.9348L505.065 3.5V328.674L521.5 345.108Z" fill="#FF4343"/>
    <path d="M175 90.0634L218.332 133.415V214.548L175 257.899V90.0634Z" fill="#FF4343"/>
    <path d="M179.561 84L223.642 128.101H306.385L350.466 84H179.561Z" fill="#FF4343"/>
    <path d="M356 89.0898L311.695 133.415V214.548L356 258.873V89.0898Z" fill="#FF4343"/>
    <path d="M180.523 263L223.642 219.861H306.385L349.504 263H180.523Z" fill="#FF4343"/>
    <path d="M0.5 368.5V345.5H521.926V0.5H545V368.5H0.5Z" fill="white"/>
</svg>
