<svg>
    <path d="M521.065 19.4991H24.4998V344.673H521.065V19.4991Z" fill="#E19400" stroke="#FFA800"/>
    <path d="M225.936 260.49C199.82 226.691 210.14 190.076 218.564 175.993C217.121 173.454 215.835 170.989 214.698 168.6C203.732 159.297 202.878 142.896 203.822 135.858C218.744 81.7538 323.869 107.34 272.27 181.275C282.379 175.36 303.861 178.81 313.338 181.275C319.235 165.22 333.346 154.869 347.036 152.757C379.68 187.612 363.885 237.253 353.354 256.265C325.975 268.939 291.224 285.838 225.936 260.49Z" fill="#FFC700"/>
    <path d="M164.7 135.696H194.202C194.202 135.696 189.167 157.236 204.999 169.313C161.821 171.606 164.7 135.696 164.7 135.696Z" fill="#FFC700"/>
    <path d="M225.936 260.49C199.82 226.691 210.14 190.076 218.564 175.993C217.121 173.454 215.835 170.989 214.698 168.6C203.732 159.297 202.878 142.896 203.822 135.858C218.744 81.7538 323.869 107.34 272.27 181.275C282.379 175.36 303.861 178.81 313.338 181.275C319.235 165.22 333.346 154.869 347.036 152.757C379.68 187.612 363.885 237.253 353.354 256.265C325.975 268.939 291.224 285.838 225.936 260.49Z" stroke="#FFA800"/>
    <path d="M164.7 135.696H194.202C194.202 135.696 189.167 157.236 204.999 169.313C161.821 171.606 164.7 135.696 164.7 135.696Z" stroke="#FFA800"/>
</svg>
