<svg width="545" height="368" viewBox="0 0 545 368" fill="none" xmlns="http://www.w3.org/2000/svg">
<path d="M520.565 19H24V344.174H520.565V19Z" fill="#183AB2" stroke="#808080"/>
<path fill-rule="evenodd" clip-rule="evenodd" d="M53 181.904C53 160.43 70.5543 143 92.1755 143C113.822 143 131.351 160.404 131.351 181.904C131.351 203.403 113.822 220.808 92.1755 220.808C70.5285 220.808 53 203.378 53 181.904ZM99.0221 166.547H76.6803L73.2826 171.948H95.6246L99.0221 166.547ZM110.631 188.123L114.028 193.498L114.002 193.524H120.412L103.449 166.547L89.8847 188.123H74.5181L77.9158 182.723H88.3144L91.7121 177.322H69.9365L66.5389 182.723H71.5324L64.7372 193.498H92.9218L103.475 176.708L107.259 182.723H104.118L100.721 188.123H110.631ZM322.742 177.325C324.352 174.913 327.317 173.415 330.768 173.415C337.183 173.415 340.786 178.036 340.786 184.283V200.713H333.937V184.817C333.937 181.338 331.51 178.976 328.341 178.976C325.171 178.976 322.742 181.439 322.742 184.537V200.688H315.894V173.999H322.742V177.325ZM275.464 178.824V173.999H268.613V200.688H275.464V186.569C275.464 182.937 278.684 179.128 284.178 179.992V173.516C280.039 173.034 277.074 175.345 275.464 178.824ZM188.363 200.713H181.514V163.257L188.363 161.124V200.713ZM298.641 173.465C290.771 173.465 284.432 179.306 284.432 187.381C284.432 195.457 290.797 201.247 298.641 201.247C306.488 201.247 312.852 195.406 312.852 187.381C312.852 179.357 306.488 173.465 298.641 173.465ZM298.641 195.101C294.501 195.101 291.204 191.952 291.204 187.458C291.204 182.963 294.501 179.738 298.641 179.738C302.783 179.738 306.078 182.836 306.078 187.458C306.078 192.079 302.807 195.101 298.641 195.101ZM191.378 187.331C191.378 179.255 197.64 173.415 205.332 173.415V173.44C212.003 173.44 219.338 178.291 219.338 188.575C219.338 188.734 219.326 188.888 219.314 189.046C219.3 189.217 219.287 189.394 219.287 189.591H198.56C199.48 192.943 202.496 195.203 206.15 195.203C208.246 195.203 210.188 194.39 211.313 192.74H218.903C216.859 197.869 214.099 201.247 206.023 201.247C197.947 201.247 191.378 195.406 191.378 187.331ZM205.332 179.357C202.163 179.357 199.531 181.439 198.611 184.715H211.901C211.313 181.541 208.502 179.357 205.332 179.357ZM258.184 166.203L251.461 168.336V193.806C251.461 197.92 254.375 200.713 259.333 200.713H266.005V194.669H261.276C259.18 194.669 258.209 193.704 258.209 191.927V179.788H266.03V173.999H258.209V166.177L258.184 166.203ZM242.313 184.487C241.239 181.617 238.709 179.789 235.693 179.789V179.763C231.63 179.763 228.409 182.988 228.409 187.483C228.409 191.978 232.678 195.127 235.693 195.127C238.709 195.127 241.239 193.324 242.313 190.429H249.264C247.961 196.904 243.437 201.247 235.693 201.247C227.949 201.247 221.637 195.457 221.637 187.381C221.637 179.306 229.023 173.465 235.693 173.465C242.364 173.465 247.961 178.011 249.264 184.487H242.313ZM440.435 178.824V173.999H433.587V200.688H440.435V186.569C440.435 182.937 443.656 179.128 449.15 179.992V173.516C445.01 173.034 442.045 175.345 440.435 178.824ZM178.421 200.713H151.049V163.257H178.421V169.834H158.588V178.62H174.638V185.096H158.588V194.238H178.421V200.713ZM393.176 200.713H400.818L404.525 192.739H420.242L424.077 200.713H431.947L412.549 161.657L393.151 200.713H393.176ZM407.234 187.026L412.295 176.107L417.508 187.026H407.234ZM474.477 181.033C474.477 183.014 477.314 183.75 480.662 184.613V184.588C485.237 185.781 490.731 187.712 490.731 192.841C490.731 197.971 486.54 201.247 479.692 201.247C472.841 201.247 467.782 197.158 467.193 191.444H473.43C473.788 194.212 477.186 196.092 479.666 196.092C482.145 196.092 483.934 195.406 483.934 193.476C483.934 191.599 481.276 190.899 478.121 190.068L477.851 189.997C473.276 188.829 467.782 186.721 467.782 181.592C467.782 176.462 471.564 173.415 478.184 173.415C484.802 173.415 489.71 177.452 490.296 183.166H484.062C483.627 180.398 481.251 178.57 478.081 178.57C476.19 178.57 474.477 179.052 474.477 181.033ZM458.221 166.203L451.498 168.336V193.806C451.498 197.92 454.412 200.713 459.37 200.713H466.042V194.669H461.313C459.217 194.669 458.246 193.704 458.246 191.927V179.788H466.067V173.999H458.246V166.177L458.221 166.203ZM344.593 174.024H351.441V200.713H344.593V174.024ZM347.993 161.911C345.616 161.911 343.622 163.892 343.622 166.304C343.622 168.717 345.616 170.697 347.993 170.697C350.371 170.697 352.414 168.717 352.414 166.304C352.414 163.892 350.422 161.911 347.993 161.911ZM375.135 184.487C374.062 181.617 371.532 179.789 368.517 179.789V179.763C364.477 179.763 361.259 182.988 361.259 187.483C361.259 191.978 365.501 195.127 368.517 195.127C371.532 195.127 374.062 193.324 375.135 190.429H382.088C380.81 196.904 376.261 201.247 368.517 201.247C360.772 201.247 354.459 195.457 354.459 187.381C354.459 179.306 361.845 173.465 368.517 173.465C375.186 173.465 380.784 178.011 382.088 184.487H375.135Z" fill="#3E68FF"/>
</svg>
