<svg width="117" height="127" viewBox="0 0 117 127" fill="none" xmlns="http://www.w3.org/2000/svg">
<path d="M58.5 108L112 54.5L58.5 1L5 54.5L58.5 108Z" fill="white"/>
<path d="M5 61.0644L58.5 114.564L112 61.0644V54.5L58.5 108L5 54.5V61.0644Z" fill="white"/>
<path d="M5 54.5V61.0644L58.5 114.564L112 61.0644V54.5M5 54.5L58.5 108L112 54.5M5 54.5L58.5 1L112 54.5" stroke="#12D253"/>
<path d="M58.5 114.564C79.393 93.6714 112 61.0644 112 61.0644V54.5517L58.5 108V111.282C58.5 111.282 58.5 113.283 58.5 114.564Z" fill="#12D253"/>
<path d="M58.5 108L5 54.5V61.0644C25.893 81.9575 37.607 93.6714 58.5 114.564C58.5 113.283 58.5 111.282 58.5 111.282V108Z" fill="#0B8133"/>
<path d="M36.2913 38.1667H80.7063L58.5 56.1637L36.2913 38.1667Z" fill="#12D253"/>
<path d="M45.9537 52.001L35.1667 65.329V43.2603L45.9537 52.001Z" fill="#12D253"/>
<path d="M49.5773 54.9387L58.5 62.1697L67.4367 54.927L80.5313 70.8333H36.7137L49.5773 54.9387Z" fill="#12D253"/>
<path d="M71.0627 51.9893L81.8333 43.2603V65.0723L71.0627 51.9893Z" fill="#12D253"/>
</svg>
