<svg width="117" height="127" viewBox="0 0 117 127" fill="none" xmlns="http://www.w3.org/2000/svg">
<path d="M58.5 114.8L112 61.2996L58.5 7.79956L5 61.2996L58.5 114.8Z" fill="#121111" stroke="#736E6E"/>
<path fill-rule="evenodd" clip-rule="evenodd" d="M58.4796 35C43.5812 35 31.5 47.1098 31.5 62.0492C31.5 74.0002 39.2304 84.1393 49.9504 87.7161C51.2985 87.9663 51.7938 87.1291 51.7938 86.4148C51.7938 85.77 51.7688 83.6388 51.7572 81.3787C44.2515 83.0151 42.6676 78.1872 42.6676 78.1872C41.4402 75.061 39.672 74.2294 39.672 74.2294C37.2239 72.5506 39.8565 72.585 39.8565 72.585C42.5655 72.7758 43.9922 75.3728 43.9922 75.3728C46.3985 79.5078 50.3038 78.3124 51.8434 77.6212C52.0857 75.8732 52.7845 74.6795 53.5564 74.0041C47.5638 73.3204 41.264 71.0008 41.264 60.6363C41.264 57.6833 42.3181 55.2702 44.0441 53.3759C43.764 52.6945 42.8404 49.9434 44.3055 46.2176C44.3055 46.2176 46.5712 45.491 51.7267 48.9906C53.879 48.3911 56.1869 48.0907 58.4798 48.0801C60.7725 48.0907 63.0823 48.3911 65.2386 48.9906C70.3883 45.4911 72.6505 46.2176 72.6505 46.2176C74.119 49.9436 73.1954 52.6945 72.9153 53.3759C74.6453 55.2702 75.6919 57.6833 75.6919 60.6363C75.6919 71.0256 69.3804 73.313 63.3725 73.9828C64.3402 74.8221 65.2024 76.4681 65.2024 78.9917C65.2024 82.611 65.1715 85.5238 65.1715 86.4148C65.1715 87.1347 65.6571 87.9781 67.0244 87.7127C77.7387 84.1319 85.4594 73.9963 85.4594 62.0492C85.4593 47.1098 73.3798 35 58.4796 35Z" fill="#736E6E"/>
<path d="M41.7186 73.8365C41.6592 73.9713 41.4481 74.0115 41.2562 73.9191C41.0603 73.8308 40.9508 73.6475 41.014 73.5128C41.0721 73.3746 41.2832 73.3361 41.4787 73.4283C41.6746 73.5167 41.7862 73.7017 41.7186 73.8365Z" fill="#736E6E"/>
<path d="M42.8116 75.0586C42.6828 75.178 42.4312 75.1225 42.2605 74.9334C42.0838 74.7449 42.0511 74.4924 42.1815 74.3714C42.3142 74.2519 42.5581 74.308 42.7348 74.4966C42.9115 74.6872 42.946 74.9374 42.8116 75.0586Z" fill="#736E6E"/>
<path d="M43.8753 76.6163C43.71 76.7318 43.4395 76.6238 43.2724 76.3832C43.1071 76.1426 43.1071 75.8539 43.2764 75.7384C43.4435 75.6229 43.71 75.727 43.8793 75.9653C44.0441 76.2099 44.0441 76.4986 43.8753 76.6163Z" fill="#736E6E"/>
<path d="M45.3324 78.1215C45.1845 78.2852 44.8694 78.2409 44.639 78.0178C44.403 77.8 44.3376 77.4903 44.4855 77.3267C44.6357 77.1631 44.9523 77.209 45.1845 77.4304C45.4187 77.6482 45.4899 77.9597 45.3324 78.1215Z" fill="#736E6E"/>
<path d="M47.3428 78.9956C47.2775 79.2073 46.9742 79.3035 46.6688 79.2134C46.3634 79.1207 46.164 78.8727 46.2255 78.6587C46.2887 78.4451 46.5938 78.345 46.9014 78.4412C47.2063 78.5335 47.4061 78.7798 47.3428 78.9956Z" fill="#736E6E"/>
<path d="M49.5513 79.1574C49.5587 79.3805 49.2995 79.5655 48.9789 79.5694C48.6565 79.5769 48.3951 79.3962 48.3916 79.1766C48.3916 78.9512 48.6451 78.7685 48.9675 78.7627C49.2882 78.7566 49.5513 78.9359 49.5513 79.1574Z" fill="#736E6E"/>
<path d="M51.6056 78.8069C51.644 79.0242 51.4211 79.2479 51.1026 79.3072C50.7893 79.365 50.4996 79.2303 50.4594 79.0146C50.4206 78.7915 50.6474 78.5679 50.9603 78.5101C51.2794 78.4548 51.5652 78.5856 51.6056 78.8069Z" fill="#736E6E"/>
</svg>
