<svg width="117" height="127" viewBox="0 0 117 127" fill="none" xmlns="http://www.w3.org/2000/svg">
<path d="M58.5 108L112 54.5L58.5 1L5 54.5L58.5 108Z" fill="white"/>
<path d="M5 61.0644L58.5 114.564L112 61.0644V54.5L58.5 108L5 54.5V61.0644Z" fill="white"/>
<path d="M5 54.5V61.0644L58.5 114.564L112 61.0644V54.5M5 54.5L58.5 108L112 54.5M5 54.5L58.5 1L112 54.5" stroke="#736E6E"/>
<path fill-rule="evenodd" clip-rule="evenodd" d="M58.4796 28C43.5812 28 31.5 40.1098 31.5 55.0492C31.5 67.0002 39.2304 77.1393 49.9504 80.7161C51.2985 80.9663 51.7938 80.1291 51.7938 79.4148C51.7938 78.77 51.7688 76.6388 51.7572 74.3787C44.2515 76.0151 42.6676 71.1872 42.6676 71.1872C41.4402 68.061 39.672 67.2294 39.672 67.2294C37.2239 65.5506 39.8565 65.585 39.8565 65.585C42.5655 65.7758 43.9922 68.3728 43.9922 68.3728C46.3985 72.5078 50.3038 71.3124 51.8434 70.6212C52.0857 68.8732 52.7845 67.6795 53.5564 67.0041C47.5638 66.3204 41.264 64.0008 41.264 53.6363C41.264 50.6833 42.3181 48.2702 44.0441 46.3759C43.764 45.6945 42.8404 42.9434 44.3055 39.2176C44.3055 39.2176 46.5712 38.491 51.7267 41.9906C53.879 41.3911 56.1869 41.0907 58.4798 41.0801C60.7725 41.0907 63.0823 41.3911 65.2386 41.9906C70.3883 38.4911 72.6505 39.2176 72.6505 39.2176C74.119 42.9436 73.1954 45.6945 72.9153 46.3759C74.6453 48.2702 75.6919 50.6833 75.6919 53.6363C75.6919 64.0256 69.3804 66.313 63.3725 66.9828C64.3402 67.8221 65.2024 69.4681 65.2024 71.9917C65.2024 75.611 65.1715 78.5238 65.1715 79.4148C65.1715 80.1347 65.6571 80.9781 67.0244 80.7127C77.7387 77.1319 85.4594 66.9963 85.4594 55.0492C85.4593 40.1098 73.3798 28 58.4796 28Z" fill="#736E6E"/>
<path d="M41.7186 66.8365C41.6592 66.9713 41.4481 67.0115 41.2562 66.9191C41.0603 66.8308 40.9508 66.6475 41.014 66.5128C41.0721 66.3746 41.2832 66.3361 41.4787 66.4283C41.6746 66.5167 41.7862 66.7017 41.7186 66.8365Z" fill="#736E6E"/>
<path d="M42.8116 68.0586C42.6828 68.178 42.4312 68.1225 42.2605 67.9334C42.0838 67.7449 42.0511 67.4924 42.1815 67.3714C42.3142 67.2519 42.5581 67.308 42.7348 67.4966C42.9115 67.6872 42.946 67.9374 42.8116 68.0586Z" fill="#736E6E"/>
<path d="M43.8753 69.6163C43.71 69.7318 43.4395 69.6238 43.2724 69.3832C43.1071 69.1426 43.1071 68.8539 43.2764 68.7384C43.4435 68.6229 43.71 68.727 43.8793 68.9653C44.0441 69.2099 44.0441 69.4986 43.8753 69.6163Z" fill="#736E6E"/>
<path d="M45.3324 71.1215C45.1845 71.2852 44.8694 71.2409 44.639 71.0178C44.403 70.8 44.3376 70.4903 44.4855 70.3267C44.6357 70.1631 44.9523 70.209 45.1845 70.4304C45.4187 70.6482 45.4899 70.9597 45.3324 71.1215Z" fill="#736E6E"/>
<path d="M47.3428 71.9956C47.2775 72.2073 46.9742 72.3035 46.6688 72.2134C46.3634 72.1207 46.164 71.8727 46.2255 71.6587C46.2887 71.4451 46.5938 71.345 46.9014 71.4412C47.2063 71.5335 47.4061 71.7798 47.3428 71.9956Z" fill="#736E6E"/>
<path d="M49.5513 72.1574C49.5587 72.3805 49.2995 72.5655 48.9789 72.5694C48.6565 72.5769 48.3951 72.3962 48.3916 72.1766C48.3916 71.9512 48.6451 71.7685 48.9675 71.7627C49.2882 71.7566 49.5513 71.9359 49.5513 72.1574Z" fill="#736E6E"/>
<path d="M51.6056 71.8069C51.644 72.0242 51.4211 72.2479 51.1026 72.3072C50.7893 72.365 50.4996 72.2303 50.4594 72.0146C50.4206 71.7915 50.6474 71.5679 50.9603 71.5101C51.2794 71.4548 51.5652 71.5856 51.6056 71.8069Z" fill="#736E6E"/>
<path d="M58.5 114.564C79.393 93.6714 112 61.0644 112 61.0644V54.5517L58.5 108V111.282C58.5 111.282 58.5 113.283 58.5 114.564Z" fill="#736E6E"/>
<path d="M58.5 108L5 54.5V61.0644C25.893 81.9575 37.607 93.6714 58.5 114.564C58.5 113.283 58.5 111.282 58.5 111.282V108Z" fill="#121111"/>
</svg>
