<svg>
    <path d="M521.425 19.3293H24.8596V344.503H521.425V19.3293Z" fill="#B81D40" stroke="#FE436D"/>
    <path d="M279.223 115.445L234.814 227.744L279.223 190.178L323.634 227.744L279.223 115.445Z" fill="#FE436D"/>
    <path d="M415.889 315.13C418.449 312.917 420.463 311.103 421.929 309.69C423.423 308.25 424.663 306.756 425.649 305.21C426.636 303.663 427.129 302.116 427.129 300.57C427.129 298.97 426.743 297.716 425.969 296.81C425.223 295.903 424.036 295.45 422.409 295.45C420.836 295.45 419.609 295.956 418.729 296.97C417.876 297.956 417.423 299.29 417.369 300.97H412.969C413.049 297.93 413.956 295.61 415.689 294.01C417.449 292.383 419.676 291.57 422.369 291.57C425.276 291.57 427.543 292.37 429.169 293.97C430.823 295.57 431.649 297.703 431.649 300.37C431.649 302.29 431.156 304.143 430.169 305.93C429.209 307.69 428.049 309.277 426.689 310.69C425.356 312.077 423.649 313.69 421.569 315.53L419.769 317.13H432.449V320.93H413.009V317.61L415.889 315.13ZM436.455 306.37C436.455 301.756 437.229 298.156 438.775 295.57C440.349 292.956 443.042 291.65 446.855 291.65C450.669 291.65 453.349 292.956 454.895 295.57C456.469 298.156 457.255 301.756 457.255 306.37C457.255 311.037 456.469 314.69 454.895 317.33C453.349 319.943 450.669 321.25 446.855 321.25C443.042 321.25 440.349 319.943 438.775 317.33C437.229 314.69 436.455 311.037 436.455 306.37ZM452.775 306.37C452.775 304.21 452.629 302.383 452.335 300.89C452.069 299.396 451.509 298.183 450.655 297.25C449.802 296.29 448.535 295.81 446.855 295.81C445.175 295.81 443.909 296.29 443.055 297.25C442.202 298.183 441.629 299.396 441.335 300.89C441.069 302.383 440.935 304.21 440.935 306.37C440.935 308.61 441.069 310.49 441.335 312.01C441.602 313.53 442.162 314.757 443.015 315.69C443.895 316.623 445.175 317.09 446.855 317.09C448.535 317.09 449.802 316.623 450.655 315.69C451.535 314.757 452.109 313.53 452.375 312.01C452.642 310.49 452.775 308.61 452.775 306.37ZM464.6 315.13C467.16 312.917 469.174 311.103 470.64 309.69C472.134 308.25 473.374 306.756 474.36 305.21C475.347 303.663 475.84 302.116 475.84 300.57C475.84 298.97 475.454 297.716 474.68 296.81C473.934 295.903 472.747 295.45 471.12 295.45C469.547 295.45 468.32 295.956 467.44 296.97C466.587 297.956 466.134 299.29 466.08 300.97H461.68C461.76 297.93 462.667 295.61 464.4 294.01C466.16 292.383 468.387 291.57 471.08 291.57C473.987 291.57 476.254 292.37 477.88 293.97C479.534 295.57 480.36 297.703 480.36 300.37C480.36 302.29 479.867 304.143 478.88 305.93C477.92 307.69 476.76 309.277 475.4 310.69C474.067 312.077 472.36 313.69 470.28 315.53L468.48 317.13H481.16V320.93H461.72V317.61L464.6 315.13ZM484.566 296.33V292.17H492.886V321.33H488.286V296.33H484.566Z" fill="white"/>
    <path d="M53.2402 79.6498H62.6402V83.3298H48.6802V55.5298H53.2402V79.6498ZM64.9336 72.2098C64.9336 69.9965 65.3869 68.0365 66.2936 66.3298C67.2269 64.6232 68.4803 63.3032 70.0536 62.3698C71.6536 61.4098 73.4136 60.9298 75.3336 60.9298C77.0669 60.9298 78.5736 61.2765 79.8536 61.9698C81.1603 62.6365 82.2003 63.4765 82.9736 64.4898V61.2898H87.5736V83.3298H82.9736V80.0498C82.2003 81.0898 81.1469 81.9565 79.8136 82.6498C78.4803 83.3432 76.9603 83.6898 75.2536 83.6898C73.3603 83.6898 71.6269 83.2098 70.0536 82.2498C68.4803 81.2632 67.2269 79.9032 66.2936 78.1698C65.3869 76.4098 64.9336 74.4232 64.9336 72.2098ZM82.9736 72.2898C82.9736 70.7698 82.6536 69.4498 82.0136 68.3298C81.4003 67.2098 80.5869 66.3565 79.5736 65.7698C78.5603 65.1832 77.4669 64.8898 76.2936 64.8898C75.1203 64.8898 74.0269 65.1832 73.0136 65.7698C72.0003 66.3298 71.1736 67.1698 70.5336 68.2898C69.9203 69.3832 69.6136 70.6898 69.6136 72.2098C69.6136 73.7298 69.9203 75.0632 70.5336 76.2098C71.1736 77.3565 72.0003 78.2365 73.0136 78.8498C74.0536 79.4365 75.1469 79.7298 76.2936 79.7298C77.4669 79.7298 78.5603 79.4365 79.5736 78.8498C80.5869 78.2632 81.4003 77.4098 82.0136 76.2898C82.6536 75.1432 82.9736 73.8098 82.9736 72.2898ZM98.123 64.5298C98.8963 63.5165 99.9497 62.6632 101.283 61.9698C102.616 61.2765 104.123 60.9298 105.803 60.9298C107.723 60.9298 109.47 61.4098 111.043 62.3698C112.643 63.3032 113.896 64.6232 114.803 66.3298C115.71 68.0365 116.163 69.9965 116.163 72.2098C116.163 74.4232 115.71 76.4098 114.803 78.1698C113.896 79.9032 112.643 81.2632 111.043 82.2498C109.47 83.2098 107.723 83.6898 105.803 83.6898C104.123 83.6898 102.63 83.3565 101.323 82.6898C100.016 81.9965 98.9497 81.1432 98.123 80.1298V93.8098H93.563V61.2898H98.123V64.5298ZM111.523 72.2098C111.523 70.6898 111.203 69.3832 110.563 68.2898C109.95 67.1698 109.123 66.3298 108.083 65.7698C107.07 65.1832 105.976 64.8898 104.803 64.8898C103.656 64.8898 102.563 65.1832 101.523 65.7698C100.51 66.3565 99.683 67.2098 99.043 68.3298C98.4297 69.4498 98.123 70.7698 98.123 72.2898C98.123 73.8098 98.4297 75.1432 99.043 76.2898C99.683 77.4098 100.51 78.2632 101.523 78.8498C102.563 79.4365 103.656 79.7298 104.803 79.7298C105.976 79.7298 107.07 79.4365 108.083 78.8498C109.123 78.2365 109.95 77.3565 110.563 76.2098C111.203 75.0632 111.523 73.7298 111.523 72.2098ZM128.672 83.6898C126.939 83.6898 125.379 83.3832 123.992 82.7698C122.632 82.1298 121.552 81.2765 120.752 80.2098C119.952 79.1165 119.526 77.9032 119.472 76.5698H124.192C124.272 77.5032 124.712 78.2898 125.512 78.9298C126.339 79.5432 127.366 79.8498 128.592 79.8498C129.872 79.8498 130.859 79.6098 131.552 79.1298C132.272 78.6232 132.632 77.9832 132.632 77.2098C132.632 76.3832 132.232 75.7698 131.432 75.3698C130.659 74.9698 129.419 74.5298 127.712 74.0498C126.059 73.5965 124.712 73.1565 123.672 72.7298C122.632 72.3032 121.726 71.6498 120.952 70.7698C120.206 69.8898 119.832 68.7298 119.832 67.2898C119.832 66.1165 120.179 65.0498 120.872 64.0898C121.566 63.1032 122.552 62.3298 123.832 61.7698C125.139 61.2098 126.632 60.9298 128.312 60.9298C130.819 60.9298 132.832 61.5698 134.352 62.8498C135.899 64.1032 136.726 65.8232 136.832 68.0098H132.272C132.192 67.0232 131.792 66.2365 131.072 65.6498C130.352 65.0632 129.379 64.7698 128.152 64.7698C126.952 64.7698 126.032 64.9965 125.392 65.4498C124.752 65.9032 124.432 66.5032 124.432 67.2498C124.432 67.8365 124.646 68.3298 125.072 68.7298C125.499 69.1298 126.019 69.4498 126.632 69.6898C127.246 69.9032 128.152 70.1832 129.352 70.5298C130.952 70.9565 132.259 71.3965 133.272 71.8498C134.312 72.2765 135.206 72.9165 135.952 73.7698C136.699 74.6232 137.086 75.7565 137.112 77.1698C137.112 78.4232 136.766 79.5432 136.072 80.5298C135.379 81.5165 134.392 82.2898 133.112 82.8498C131.859 83.4098 130.379 83.6898 128.672 83.6898Z" fill="white"/>
</svg>
