<svg>
    <path d="M520.925 19.33H24.3601V344.504H520.925V19.33Z" fill="#AF0054" stroke="#AF0054"/>
    <path d="M155.83 209.967V184.141H267.352L241.526 209.967H155.83Z" fill="#FF419C"/>
    <path d="M378.874 184.141V209.967H310.2L323.113 197.054L336.026 184.141H378.874Z" fill="#FF419C"/>
    <path fillRule="evenodd" clipRule="evenodd" d="M239.413 227.898C235.109 238.072 233.074 255.603 259.37 244.333L323.935 177.42C323.935 177.42 355.631 186.811 356.805 152.768C350.935 152.768 341.544 160.985 341.544 160.985C334.5 159.811 329.805 162.159 329.805 142.203L343.892 131.637C343.892 131.637 303.979 119.898 308.674 162.159L239.413 227.898ZM250.439 227.898C244.569 229.072 241.047 237.29 250.439 240.812C259.83 240.812 259.83 229.072 250.439 227.898Z" fill="#FF419C"/>
    <path d="M57.3974 52.5298C60.3574 52.5298 62.9441 53.1032 65.1574 54.2498C67.3974 55.3698 69.1174 56.9965 70.3174 59.1298C71.544 61.2365 72.1574 63.7032 72.1574 66.5298C72.1574 69.3565 71.544 71.8098 70.3174 73.8898C69.1174 75.9698 67.3974 77.5698 65.1574 78.6898C62.9441 79.7832 60.3574 80.3298 57.3974 80.3298H48.3174V52.5298H57.3974ZM57.3974 76.6098C60.6507 76.6098 63.1441 75.7298 64.8774 73.9698C66.6107 72.2098 67.4774 69.7298 67.4774 66.5298C67.4774 63.3032 66.6107 60.7832 64.8774 58.9698C63.1441 57.1565 60.6507 56.2498 57.3974 56.2498H52.8774V76.6098H57.3974ZM96.8768 68.7698C96.8768 69.5965 96.8234 70.3432 96.7168 71.0098H79.8768C80.0101 72.7698 80.6634 74.1832 81.8368 75.2498C83.0101 76.3165 84.4501 76.8498 86.1568 76.8498C88.6101 76.8498 90.3434 75.8232 91.3568 73.7698H96.2768C95.6101 75.7965 94.3968 77.4632 92.6368 78.7698C90.9034 80.0498 88.7434 80.6898 86.1568 80.6898C84.0501 80.6898 82.1568 80.2232 80.4768 79.2898C78.8234 78.3298 77.5168 76.9965 76.5568 75.2898C75.6234 73.5565 75.1568 71.5565 75.1568 69.2898C75.1568 67.0232 75.6101 65.0365 76.5168 63.3298C77.4501 61.5965 78.7434 60.2632 80.3968 59.3298C82.0768 58.3965 83.9968 57.9298 86.1568 57.9298C88.2368 57.9298 90.0901 58.3832 91.7168 59.2898C93.3434 60.1965 94.6101 61.4765 95.5168 63.1298C96.4234 64.7565 96.8768 66.6365 96.8768 68.7698ZM92.1168 67.3298C92.0901 65.6498 91.4901 64.3032 90.3168 63.2898C89.1434 62.2765 87.6901 61.7698 85.9568 61.7698C84.3834 61.7698 83.0368 62.2765 81.9168 63.2898C80.7968 64.2765 80.1301 65.6232 79.9168 67.3298H92.1168ZM99.8443 69.2898C99.8443 67.0232 100.298 65.0365 101.204 63.3298C102.138 61.5965 103.418 60.2632 105.044 59.3298C106.671 58.3965 108.538 57.9298 110.644 57.9298C113.311 57.9298 115.511 58.5698 117.244 59.8498C119.004 61.1032 120.191 62.9032 120.804 65.2498H115.884C115.484 64.1565 114.844 63.3032 113.964 62.6898C113.084 62.0765 111.978 61.7698 110.644 61.7698C108.778 61.7698 107.284 62.4365 106.164 63.7698C105.071 65.0765 104.524 66.9165 104.524 69.2898C104.524 71.6632 105.071 73.5165 106.164 74.8498C107.284 76.1832 108.778 76.8498 110.644 76.8498C113.284 76.8498 115.031 75.6898 115.884 73.3698H120.804C120.164 75.6098 118.964 77.3965 117.204 78.7298C115.444 80.0365 113.258 80.6898 110.644 80.6898C108.538 80.6898 106.671 80.2232 105.044 79.2898C103.418 78.3298 102.138 76.9965 101.204 75.2898C100.298 73.5565 99.8443 71.5565 99.8443 69.2898ZM123.829 69.2098C123.829 66.9965 124.282 65.0365 125.189 63.3298C126.122 61.6232 127.375 60.3032 128.949 59.3698C130.549 58.4098 132.309 57.9298 134.229 57.9298C135.962 57.9298 137.469 58.2765 138.749 58.9698C140.055 59.6365 141.095 60.4765 141.869 61.4898V58.2898H146.469V80.3298H141.869V77.0498C141.095 78.0898 140.042 78.9565 138.709 79.6498C137.375 80.3432 135.855 80.6898 134.149 80.6898C132.255 80.6898 130.522 80.2098 128.949 79.2498C127.375 78.2632 126.122 76.9032 125.189 75.1698C124.282 73.4098 123.829 71.4232 123.829 69.2098ZM141.869 69.2898C141.869 67.7698 141.549 66.4498 140.909 65.3298C140.295 64.2098 139.482 63.3565 138.469 62.7698C137.455 62.1832 136.362 61.8898 135.189 61.8898C134.015 61.8898 132.922 62.1832 131.909 62.7698C130.895 63.3298 130.069 64.1698 129.429 65.2898C128.815 66.3832 128.509 67.6898 128.509 69.2098C128.509 70.7298 128.815 72.0632 129.429 73.2098C130.069 74.3565 130.895 75.2365 131.909 75.8498C132.949 76.4365 134.042 76.7298 135.189 76.7298C136.362 76.7298 137.455 76.4365 138.469 75.8498C139.482 75.2632 140.295 74.4098 140.909 73.2898C141.549 72.1432 141.869 70.8098 141.869 69.2898ZM172.298 58.2898L158.778 90.6898H154.058L158.538 79.9698L149.858 58.2898H154.938L161.138 75.0898L167.578 58.2898H172.298ZM190.69 76.6498H200.09V80.3298H186.13V52.5298H190.69V76.6498ZM224.103 68.7698C224.103 69.5965 224.05 70.3432 223.943 71.0098H207.103C207.237 72.7698 207.89 74.1832 209.063 75.2498C210.237 76.3165 211.677 76.8498 213.383 76.8498C215.837 76.8498 217.57 75.8232 218.583 73.7698H223.503C222.837 75.7965 221.623 77.4632 219.863 78.7698C218.13 80.0498 215.97 80.6898 213.383 80.6898C211.277 80.6898 209.383 80.2232 207.703 79.2898C206.05 78.3298 204.743 76.9965 203.783 75.2898C202.85 73.5565 202.383 71.5565 202.383 69.2898C202.383 67.0232 202.837 65.0365 203.743 63.3298C204.677 61.5965 205.97 60.2632 207.623 59.3298C209.303 58.3965 211.223 57.9298 213.383 57.9298C215.463 57.9298 217.317 58.3832 218.943 59.2898C220.57 60.1965 221.837 61.4765 222.743 63.1298C223.65 64.7565 224.103 66.6365 224.103 68.7698ZM219.343 67.3298C219.317 65.6498 218.717 64.3032 217.543 63.2898C216.37 62.2765 214.917 61.7698 213.183 61.7698C211.61 61.7698 210.263 62.2765 209.143 63.2898C208.023 64.2765 207.357 65.6232 207.143 67.3298H219.343ZM237.111 76.2498L243.351 58.2898H248.191L239.791 80.3298H234.351L225.991 58.2898H230.871L237.111 76.2498ZM271.838 68.7698C271.838 69.5965 271.784 70.3432 271.678 71.0098H254.838C254.971 72.7698 255.624 74.1832 256.798 75.2498C257.971 76.3165 259.411 76.8498 261.118 76.8498C263.571 76.8498 265.304 75.8232 266.318 73.7698H271.238C270.571 75.7965 269.358 77.4632 267.598 78.7698C265.864 80.0498 263.704 80.6898 261.118 80.6898C259.011 80.6898 257.118 80.2232 255.438 79.2898C253.784 78.3298 252.478 76.9965 251.518 75.2898C250.584 73.5565 250.118 71.5565 250.118 69.2898C250.118 67.0232 250.571 65.0365 251.478 63.3298C252.411 61.5965 253.704 60.2632 255.358 59.3298C257.038 58.3965 258.958 57.9298 261.118 57.9298C263.198 57.9298 265.051 58.3832 266.678 59.2898C268.304 60.1965 269.571 61.4765 270.478 63.1298C271.384 64.7565 271.838 66.6365 271.838 68.7698ZM267.078 67.3298C267.051 65.6498 266.451 64.3032 265.278 63.2898C264.104 62.2765 262.651 61.7698 260.918 61.7698C259.344 61.7698 257.998 62.2765 256.878 63.2898C255.758 64.2765 255.091 65.6232 254.878 67.3298H267.078ZM280.885 50.7298V80.3298H276.325V50.7298H280.885ZM315.223 52.5298V56.2498H307.823V80.3298H303.263V56.2498H295.823V52.5298H315.223ZM329.401 80.6898C327.321 80.6898 325.441 80.2232 323.761 79.2898C322.081 78.3298 320.761 76.9965 319.801 75.2898C318.841 73.5565 318.361 71.5565 318.361 69.2898C318.361 67.0498 318.854 65.0632 319.841 63.3298C320.827 61.5965 322.174 60.2632 323.881 59.3298C325.587 58.3965 327.494 57.9298 329.601 57.9298C331.707 57.9298 333.614 58.3965 335.321 59.3298C337.027 60.2632 338.374 61.5965 339.361 63.3298C340.347 65.0632 340.841 67.0498 340.841 69.2898C340.841 71.5298 340.334 73.5165 339.321 75.2498C338.307 76.9832 336.921 78.3298 335.161 79.2898C333.427 80.2232 331.507 80.6898 329.401 80.6898ZM329.401 76.7298C330.574 76.7298 331.667 76.4498 332.681 75.8898C333.721 75.3298 334.561 74.4898 335.201 73.3698C335.841 72.2498 336.161 70.8898 336.161 69.2898C336.161 67.6898 335.854 66.3432 335.241 65.2498C334.627 64.1298 333.814 63.2898 332.801 62.7298C331.787 62.1698 330.694 61.8898 329.521 61.8898C328.347 61.8898 327.254 62.1698 326.241 62.7298C325.254 63.2898 324.467 64.1298 323.881 65.2498C323.294 66.3432 323.001 67.6898 323.001 69.2898C323.001 71.6632 323.601 73.5032 324.801 74.8098C326.027 76.0898 327.561 76.7298 329.401 76.7298ZM354.909 80.6898C352.829 80.6898 350.949 80.2232 349.269 79.2898C347.589 78.3298 346.269 76.9965 345.309 75.2898C344.349 73.5565 343.869 71.5565 343.869 69.2898C343.869 67.0498 344.362 65.0632 345.349 63.3298C346.335 61.5965 347.682 60.2632 349.389 59.3298C351.095 58.3965 353.002 57.9298 355.109 57.9298C357.215 57.9298 359.122 58.3965 360.829 59.3298C362.535 60.2632 363.882 61.5965 364.869 63.3298C365.855 65.0632 366.349 67.0498 366.349 69.2898C366.349 71.5298 365.842 73.5165 364.829 75.2498C363.815 76.9832 362.429 78.3298 360.669 79.2898C358.935 80.2232 357.015 80.6898 354.909 80.6898ZM354.909 76.7298C356.082 76.7298 357.175 76.4498 358.189 75.8898C359.229 75.3298 360.069 74.4898 360.709 73.3698C361.349 72.2498 361.669 70.8898 361.669 69.2898C361.669 67.6898 361.362 66.3432 360.749 65.2498C360.135 64.1298 359.322 63.2898 358.309 62.7298C357.295 62.1698 356.202 61.8898 355.029 61.8898C353.855 61.8898 352.762 62.1698 351.749 62.7298C350.762 63.2898 349.975 64.1298 349.389 65.2498C348.802 66.3432 348.509 67.6898 348.509 69.2898C348.509 71.6632 349.109 73.5032 350.309 74.8098C351.535 76.0898 353.069 76.7298 354.909 76.7298ZM375.416 50.7298V80.3298H370.856V50.7298H375.416Z" fill="white"/>
    <path d="M410.839 315.13C413.399 312.917 415.412 311.103 416.879 309.69C418.372 308.25 419.612 306.757 420.599 305.21C421.586 303.663 422.079 302.117 422.079 300.57C422.079 298.97 421.692 297.717 420.919 296.81C420.172 295.903 418.986 295.45 417.359 295.45C415.786 295.45 414.559 295.957 413.679 296.97C412.826 297.957 412.372 299.29 412.319 300.97H407.919C407.999 297.93 408.906 295.61 410.639 294.01C412.399 292.383 414.626 291.57 417.319 291.57C420.226 291.57 422.492 292.37 424.119 293.97C425.772 295.57 426.599 297.703 426.599 300.37C426.599 302.29 426.106 304.143 425.119 305.93C424.159 307.69 422.999 309.277 421.639 310.69C420.306 312.077 418.599 313.69 416.519 315.53L414.719 317.13H427.399V320.93H407.959V317.61L410.839 315.13ZM431.405 306.37C431.405 301.757 432.178 298.157 433.725 295.57C435.298 292.957 437.992 291.65 441.805 291.65C445.618 291.65 448.298 292.957 449.845 295.57C451.418 298.157 452.205 301.757 452.205 306.37C452.205 311.037 451.418 314.69 449.845 317.33C448.298 319.943 445.618 321.25 441.805 321.25C437.992 321.25 435.298 319.943 433.725 317.33C432.178 314.69 431.405 311.037 431.405 306.37ZM447.725 306.37C447.725 304.21 447.578 302.383 447.285 300.89C447.018 299.397 446.458 298.183 445.605 297.25C444.752 296.29 443.485 295.81 441.805 295.81C440.125 295.81 438.858 296.29 438.005 297.25C437.152 298.183 436.578 299.397 436.285 300.89C436.018 302.383 435.885 304.21 435.885 306.37C435.885 308.61 436.018 310.49 436.285 312.01C436.552 313.53 437.112 314.757 437.965 315.69C438.845 316.623 440.125 317.09 441.805 317.09C443.485 317.09 444.752 316.623 445.605 315.69C446.485 314.757 447.058 313.53 447.325 312.01C447.592 310.49 447.725 308.61 447.725 306.37ZM459.55 315.13C462.11 312.917 464.123 311.103 465.59 309.69C467.083 308.25 468.323 306.757 469.31 305.21C470.297 303.663 470.79 302.117 470.79 300.57C470.79 298.97 470.403 297.717 469.63 296.81C468.883 295.903 467.697 295.45 466.07 295.45C464.497 295.45 463.27 295.957 462.39 296.97C461.537 297.957 461.083 299.29 461.03 300.97H456.63C456.71 297.93 457.617 295.61 459.35 294.01C461.11 292.383 463.337 291.57 466.03 291.57C468.937 291.57 471.203 292.37 472.83 293.97C474.483 295.57 475.31 297.703 475.31 300.37C475.31 302.29 474.817 304.143 473.83 305.93C472.87 307.69 471.71 309.277 470.35 310.69C469.017 312.077 467.31 313.69 465.23 315.53L463.43 317.13H476.11V320.93H456.67V317.61L459.55 315.13ZM482.636 315.13C485.196 312.917 487.209 311.103 488.676 309.69C490.169 308.25 491.409 306.757 492.396 305.21C493.382 303.663 493.876 302.117 493.876 300.57C493.876 298.97 493.489 297.717 492.716 296.81C491.969 295.903 490.782 295.45 489.156 295.45C487.582 295.45 486.356 295.957 485.476 296.97C484.622 297.957 484.169 299.29 484.116 300.97H479.716C479.796 297.93 480.702 295.61 482.436 294.01C484.196 292.383 486.422 291.57 489.116 291.57C492.022 291.57 494.289 292.37 495.916 293.97C497.569 295.57 498.396 297.703 498.396 300.37C498.396 302.29 497.902 304.143 496.916 305.93C495.956 307.69 494.796 309.277 493.436 310.69C492.102 312.077 490.396 313.69 488.316 315.53L486.516 317.13H499.196V320.93H479.756V317.61L482.636 315.13Z" fill="white"/>
</svg>
