<svg>
    <path d="M520.925 19.33H24.3601V344.504H520.925V19.33Z" fill="#AF0054" stroke="#AF0054"/>
    <path d="M155.83 209.967V184.141H267.352L241.526 209.967H155.83Z" fill="#FF419C"/>
    <path d="M378.874 184.141V209.967H310.2L323.113 197.054L336.026 184.141H378.874Z" fill="#FF419C"/>
    <path fillRule="evenodd" clipRule="evenodd" d="M239.413 227.898C235.109 238.072 233.074 255.603 259.37 244.333L323.935 177.42C323.935 177.42 355.631 186.811 356.805 152.768C350.935 152.768 341.544 160.985 341.544 160.985C334.5 159.811 329.805 162.159 329.805 142.203L343.892 131.637C343.892 131.637 303.979 119.898 308.674 162.159L239.413 227.898ZM250.439 227.898C244.569 229.072 241.047 237.29 250.439 240.812C259.83 240.812 259.83 229.072 250.439 227.898Z" fill="#FF419C"/>
</svg>
