<svg width="545" height="368" viewBox="0 0 545 368" fill="none" xmlns="http://www.w3.org/2000/svg">
<path d="M520.565 21H24V346.174H520.565V21Z" fill="#AF6018" stroke="#FF9330"/>
<path d="M166.864 256C180.75 256 192.003 244.819 192.003 231.028C192.003 217.235 180.75 206.056 166.864 206.056C152.981 206.056 141.726 217.235 141.726 231.028C141.726 244.819 152.981 256 166.864 256Z" fill="#FF9330"/>
<path d="M456.865 230.228C456.865 225.939 455.93 221.903 453.901 218.189C451.869 214.476 449.291 211.529 445.65 209.352C442.009 207.177 438.011 206.088 433.403 206.088C428.794 206.088 424.539 207.207 420.801 209.417C417.062 211.658 414.129 214.667 412.035 218.509C409.922 222.347 408.825 226.654 408.844 231.028C408.844 235.543 409.908 239.736 412.035 243.546C414.103 247.29 417.141 250.418 420.833 252.607C424.572 254.848 428.794 255.97 433.403 255.97C437.173 255.97 440.589 255.231 443.748 253.759C446.753 252.361 449.423 250.342 451.58 247.838C453.706 245.371 454.9 243.194 455.705 240.28L444.328 240.505C443.748 241.466 442.846 242.618 441.944 243.323C440.879 244.154 439.622 244.922 438.108 245.371C436.658 245.788 435.079 246.108 433.208 246.108C430.726 246.108 428.472 245.5 426.441 244.283C424.409 243.065 422.8 241.305 421.638 238.999C420.841 237.422 420.318 235.724 420.091 233.974H456.8C456.832 232.852 456.865 231.316 456.865 230.228ZM420.511 225.425C420.776 224.405 421.177 223.425 421.703 222.511C422.96 220.237 424.604 218.574 426.633 217.452C428.665 216.332 430.921 215.789 433.37 215.789C435.497 215.789 437.496 216.236 439.365 217.1C441.234 217.966 442.749 219.15 443.908 220.624C445.07 222.094 445.714 223.695 445.875 225.457L420.511 225.425ZM348.283 256C344.095 256 340.324 254.88 336.908 252.671C333.49 250.43 330.816 247.421 328.882 243.643C326.948 239.865 325.981 235.638 325.981 231.06C325.981 226.482 326.948 222.32 328.914 218.509C330.881 214.699 333.522 211.658 336.939 209.449C340.324 207.207 344.095 206.12 348.253 206.12C350.83 206.12 353.248 206.503 355.44 207.272C357.664 208.039 360.048 209.578 361.725 210.986C363.367 212.363 364.753 214.252 365.333 217.037V207.526H375.938V254.59H365.333V246.2C364.238 248.635 363.432 249.978 361.272 251.708C359.536 253.13 357.547 254.216 355.407 254.91C353.183 255.615 350.83 256 348.283 256ZM350.927 245.755C353.506 245.755 355.858 245.115 357.986 243.834C360.12 242.552 361.859 240.713 363.014 238.517C364.238 236.278 364.851 233.781 364.851 231.06C364.851 228.337 364.238 225.904 363.014 223.665C361.789 221.424 360.113 219.629 357.954 218.318C355.825 217.005 353.473 216.365 350.927 216.365C348.381 216.365 346.029 216.973 343.933 218.221C341.811 219.471 340.064 221.261 338.873 223.407C337.616 225.616 337.003 228.178 337.003 231.092C337.003 234.004 337.616 236.663 338.873 238.872C340.13 241.081 341.806 242.809 343.933 243.993C346.061 245.179 348.413 245.755 350.927 245.755ZM163.481 177.593C159.29 177.593 155.52 176.474 152.103 174.264C148.687 172.023 146.011 169.012 144.079 165.234C142.145 161.458 141.178 157.231 141.178 152.653C141.178 148.074 142.145 143.913 144.112 140.103C146.078 136.292 148.752 133.251 152.136 131.04C155.522 128.801 159.292 127.713 163.448 127.713C166.027 127.713 168.411 128.096 170.635 128.865C172.859 129.633 175.278 131.169 176.92 132.579C178.562 133.956 179.951 135.843 180.529 138.631V129.089H191.134V176.153H180.531V167.763C179.436 170.198 178.629 171.542 176.47 173.271C174.737 174.7 172.746 175.787 170.603 176.474C168.306 177.231 165.9 177.609 163.481 177.593ZM166.157 167.349C168.734 167.349 171.087 166.708 173.212 165.427C175.346 164.145 177.086 162.306 178.242 160.111C179.466 157.839 180.079 155.374 180.079 152.653C180.099 150.07 179.456 147.524 178.209 145.256C176.985 143.015 175.31 141.222 173.149 139.909C171.044 138.6 168.608 137.912 166.124 137.926C163.578 137.926 161.224 138.534 159.13 139.782C157.008 141.032 155.261 142.822 154.07 144.968C152.813 147.178 152.201 149.739 152.201 152.653C152.201 155.565 152.813 158.224 154.07 160.433C155.327 162.674 157.004 164.37 159.13 165.554C161.277 166.743 163.697 167.361 166.155 167.347L166.157 167.349ZM273.124 151.822C273.124 147.532 272.192 143.496 270.161 139.782C268.129 136.069 265.55 133.157 261.909 130.946C258.268 128.771 254.27 127.681 249.662 127.681C245.054 127.681 240.799 128.801 237.06 131.01C233.322 133.251 230.391 136.26 228.294 140.103C226.183 143.941 225.085 148.247 225.103 152.621C225.103 157.134 226.168 161.329 228.294 165.139C230.363 168.884 233.4 172.012 237.093 174.2C240.831 176.441 245.02 177.561 249.662 177.561C253.433 177.561 256.882 176.824 260.008 175.352C263.013 173.953 265.683 171.934 267.839 169.429C269.968 166.964 271.16 164.787 271.965 161.873L260.588 162.096C260.008 163.057 259.106 164.211 258.171 164.916C257.107 165.748 255.85 166.515 254.335 166.964C252.886 167.381 251.306 167.701 249.437 167.701C246.956 167.701 244.699 167.091 242.668 165.874C240.639 164.658 239.027 162.898 237.833 160.592C237.035 159.015 236.512 157.316 236.286 155.565H272.997C273.125 154.446 273.124 152.907 273.124 151.82V151.822ZM236.771 147.018C237.041 145.99 237.442 145 237.963 144.072C239.22 141.798 240.862 140.135 242.895 139.013C244.924 137.893 247.181 137.35 249.662 137.35C251.791 137.35 253.788 137.797 255.657 138.663C257.526 139.527 259.043 140.711 260.2 142.183C261.362 143.655 262.005 145.288 262.167 147.016L236.771 147.018ZM380.514 207.528H391.214V216.044C391.988 214.284 392.986 212.746 394.18 211.497C395.383 210.233 396.844 209.24 398.466 208.585C400.11 207.912 401.947 207.56 403.946 207.56H408.973V217.1H404.493C401.947 217.1 399.69 217.71 397.756 218.926C395.822 220.143 394.308 221.935 393.245 224.271C392.181 226.609 391.634 229.459 391.634 232.756V254.655H380.481L380.514 207.528ZM215.467 111C211.759 111 208.891 111.896 206.991 113.626C205.122 115.354 204.153 117.851 204.153 121.053L204.09 129.121H194.517V138.598H204.058V176.218H215.048V138.564H224.588V129.119H215.046V122.332C215.046 121.436 215.143 120.89 215.368 120.634C215.69 120.252 216.495 120.187 217.205 120.187H224.584L224.653 111H215.467ZM112.494 177.593C106.789 177.593 102.018 176.633 98.1828 174.744C94.3491 172.855 91.5454 170.357 89.739 167.316C87.9365 164.352 86.989 160.952 87.0001 157.489H98.4747C98.468 158.059 98.5224 158.628 98.6369 159.186C98.9236 160.865 99.6827 162.429 100.826 163.697C102.019 165.01 103.598 166.068 105.564 166.835C107.531 167.604 109.818 167.989 112.429 167.989C115.555 167.989 118.166 167.637 120.228 166.962C122.292 166.291 123.837 165.234 124.87 163.891C125.9 162.545 126.417 160.785 126.417 158.703C126.417 156.878 125.835 155.342 124.676 154.125C123.516 152.909 121.905 151.916 119.843 151.147C117.779 150.38 115.137 149.707 111.977 149.131C107.563 148.203 103.695 147.113 100.374 145.834C97.1661 144.606 94.2952 142.642 91.9954 140.103C89.739 137.573 88.6098 134.307 88.6098 130.305C88.6098 126.815 89.4491 123.742 91.1581 121.086C92.8327 118.427 95.4439 116.315 98.9572 114.778C102.471 113.241 106.854 112.47 112.106 112.47C117.359 112.47 121.485 113.207 125.031 114.744C128.576 116.28 131.218 118.457 132.992 121.275C134.764 124.094 135.668 127.357 135.668 131.137H124.193C124.193 129.471 123.741 127.967 122.872 126.654C122 125.373 120.648 124.318 118.811 123.581C116.974 122.811 114.685 122.427 111.914 122.427C108.948 122.427 106.562 122.779 104.79 123.514C103.018 124.253 101.826 125.214 101.116 126.366C100.407 127.55 100.084 128.863 100.084 130.335C100.084 132.033 100.666 133.473 101.826 134.657C102.986 135.841 104.695 136.802 106.981 137.603C109.272 138.403 112.204 139.076 115.845 139.652C120.163 140.421 123.968 141.508 127.222 142.918C130.478 144.328 133.087 146.342 135.088 148.938C137.085 151.53 138.085 154.796 138.085 158.733C138.085 162.672 137.051 166.098 134.958 168.948C132.862 171.795 129.898 173.942 126.063 175.412C122.162 176.854 117.649 177.593 112.494 177.593ZM112.494 256C106.789 256 102.018 255.039 98.1828 253.15C94.3491 251.261 91.5454 248.764 89.739 245.723C87.9365 242.759 86.989 239.359 87.0001 235.895H98.4747C98.468 236.465 98.5224 237.034 98.6369 237.593C98.9236 239.272 99.6827 240.836 100.826 242.104C102.019 243.417 103.598 244.475 105.564 245.242C107.531 246.011 109.818 246.396 112.429 246.396C115.555 246.396 118.166 246.043 120.228 245.371C122.292 244.698 123.837 243.643 124.87 242.297C125.9 240.952 126.417 239.192 126.417 237.11C126.417 235.285 125.835 233.749 124.676 232.532C123.516 231.316 121.905 230.323 119.843 229.556C117.779 228.786 115.137 228.114 111.977 227.538C107.563 226.609 103.695 225.52 100.374 224.241C97.1661 223.012 94.2952 221.049 91.9954 218.509C89.739 215.98 88.6098 212.715 88.6098 208.712C88.6098 205.222 89.4491 202.149 91.1581 199.492C92.8327 196.834 95.4439 194.721 98.9572 193.185C102.471 191.648 106.854 190.879 112.106 190.879C117.359 190.879 121.517 191.648 125.063 193.185C128.609 194.721 131.25 196.898 133.024 199.716C134.796 202.535 135.7 205.798 135.7 209.578H124.226C124.226 207.912 123.774 206.408 122.904 205.127C122.032 203.846 120.68 202.791 118.843 202.054C117.006 201.285 114.718 200.9 111.946 200.9C108.98 200.9 106.594 201.252 104.822 201.987C103.05 202.727 101.826 203.685 101.149 204.839C100.439 206.023 100.117 207.336 100.117 208.809C100.117 210.506 100.697 211.978 101.858 213.13C103.018 214.315 104.727 215.275 107.014 216.044C109.305 216.812 112.236 217.484 115.877 218.093C120.195 218.862 123.999 219.949 127.255 221.359C130.51 222.769 133.12 224.783 135.119 227.379C137.118 229.97 138.117 233.237 138.117 237.174C138.117 241.113 137.083 244.539 134.989 247.389C132.895 250.236 129.931 252.383 126.095 253.853C122.162 255.263 117.651 256 112.494 256ZM242.411 216.971H251.919V207.495H242.411V189.536L231.26 196.451V207.495H213.241V200.741C213.241 199.845 213.337 199.299 213.564 199.043C213.886 198.661 214.691 198.596 215.401 198.596H222.78L222.845 189.439H213.661C209.953 189.439 207.084 190.335 205.183 192.065C203.314 193.793 202.347 196.29 202.347 199.492L202.282 207.495H192.711V216.973H202.251V254.59H213.239V216.971H231.256V236.661C231.256 241.462 231.708 245.145 233.095 247.866C234.32 250.299 236.286 252.699 238.67 253.757C240.894 254.749 243.665 254.558 246.534 254.558H251.947V245.177H248.855C247.534 245.177 246.372 245.113 245.375 244.634C244.375 244.15 243.57 243.321 242.923 242.102C242.279 240.886 242.441 239.222 242.441 237.108L242.409 216.969L242.411 216.971ZM255.722 207.528H267.712L276.993 237.333L277.83 240.185H277.96L278.831 237.398L287.823 207.56H296.072L304.743 237.08L305.71 240.185H305.837L306.934 236.886L316.215 207.528H327.98L311.994 254.592H301.681L291.818 224.112H291.786L281.828 254.592H271.675L255.722 207.528Z" fill="#FF9330"/>
</svg>
