<svg width="545" height="368" viewBox="0 0 545 368" fill="none" xmlns="http://www.w3.org/2000/svg">
<path d="M520.915 19.32H24.3501V344.494H520.915V19.32Z" fill="#911311" stroke="#FF3D3A"/>
<path d="M359.277 145.701C359.16 144.417 358.333 143.677 357.024 143.677C355.851 143.677 354.962 144.38 354.962 145.306C354.962 145.757 355.209 146.158 355.666 146.424C356.042 146.664 356.271 146.763 357.82 147.424C359.691 148.202 360.259 148.541 360.753 149.091C361.24 149.677 361.506 150.43 361.506 151.301C361.506 153.572 359.802 155.048 357.178 155.048C354.32 155.048 352.733 153.554 352.598 150.733H354.493C354.641 152.455 355.567 153.344 357.215 153.344C358.555 153.344 359.506 152.628 359.506 151.622C359.506 151.054 359.24 150.622 358.691 150.245C358.289 149.98 358.067 149.862 356.61 149.239C355.228 148.652 354.431 148.202 353.98 147.763C353.338 147.14 353.017 146.362 353.017 145.473C353.017 143.43 354.697 141.973 357.08 141.973C358.592 141.973 359.845 142.559 360.543 143.621C360.938 144.189 361.092 144.757 361.148 145.701H359.277Z" fill="#FF3D3A"/>
<path d="M365.639 148.445C365.639 151.489 366.923 153.366 369.041 153.366C371.121 153.366 372.43 151.489 372.43 148.501C372.43 145.532 371.121 143.661 369.041 143.661C366.96 143.661 365.639 145.532 365.639 148.445ZM374.473 148.501C374.473 152.415 372.294 155.045 369.041 155.045C365.75 155.045 363.596 152.44 363.596 148.427C363.596 144.606 365.83 141.976 369.041 141.976C372.294 141.976 374.473 144.606 374.473 148.501Z" fill="#FF3D3A"/>
<path d="M379.063 142.203L384.606 151.852V142.203H386.458V154.821H384.434L378.816 145.191V154.821H376.964V142.203H379.063Z" fill="#FF3D3A"/>
<path d="M390.979 142.203L393.8 147.629L396.578 142.203H398.751L394.745 149.691V154.821H392.794V149.691L388.769 142.203H390.979Z" fill="#FF3D3A"/>
<path d="M408.137 148.238C409.464 148.238 409.859 148.201 410.384 148.046C411.199 147.818 411.693 147.083 411.693 146.102C411.693 145.194 411.298 144.491 410.631 144.188C410.106 143.96 409.538 143.886 408.118 143.886H407.303V148.238H408.137ZM407.89 142.2C409.779 142.2 410.612 142.281 411.427 142.565C412.847 143.034 413.718 144.398 413.718 146.12C413.718 147.781 412.866 149.108 411.483 149.584C410.73 149.843 409.933 149.923 408.137 149.923H407.303V154.819H405.359V142.2H407.89Z" fill="#FF3D3A"/>
<path d="M415.798 142.201H417.767V154.82H415.798V142.201Z" fill="#FF3D3A"/>
<path d="M428.207 146.025C427.905 144.475 427.016 143.679 425.596 143.679C423.552 143.679 422.268 145.549 422.268 148.519C422.268 151.494 423.552 153.346 425.633 153.346C427.225 153.346 428.151 152.321 428.337 150.321H430.121C429.929 153.383 428.38 155.044 425.694 155.044C422.361 155.044 420.225 152.494 420.225 148.537C420.225 146.272 420.885 144.457 422.151 143.277C423.083 142.45 424.312 141.975 425.614 141.975C428.133 141.975 429.701 143.432 429.929 146.025H428.207Z" fill="#FF3D3A"/>
<path d="M439.671 142.203V143.888H436.344V154.821H434.393V143.888H431.103V142.203H439.671Z" fill="#FF3D3A"/>
<path d="M443.699 142.203V149.524C443.699 151.074 443.754 151.549 444.038 152.08C444.44 152.87 445.347 153.346 446.501 153.346C447.841 153.346 448.804 152.741 449.131 151.679C449.261 151.247 449.298 150.808 449.298 149.524V142.203H451.249V149.561C451.249 151.432 451.175 151.981 450.848 152.704C450.168 154.179 448.563 155.049 446.501 155.049C444.44 155.049 442.828 154.179 442.149 152.704C441.828 151.963 441.754 151.432 441.754 149.561V142.203H443.699Z" fill="#FF3D3A"/>
<path d="M456.827 148.067C458.192 148.067 458.605 148.029 459.118 147.838C459.889 147.554 460.346 146.857 460.346 145.931C460.346 145.134 459.988 144.511 459.365 144.208C458.834 143.943 458.42 143.887 456.735 143.887H455.957V148.067H456.827ZM456.716 142.202C458.815 142.202 459.611 142.313 460.457 142.714C461.649 143.282 462.371 144.492 462.371 145.949C462.371 147.591 461.556 148.783 459.97 149.431L463.069 154.82H460.76L457.908 149.752H455.957V154.82H454.012V142.202H456.716Z" fill="#FF3D3A"/>
<path d="M471.961 147.442V149.127H466.892V153.134H472.566V154.819H464.941V142.201H472.417V143.886H466.892V147.442H471.961Z" fill="#FF3D3A"/>
<path d="M481.068 145.701C480.957 144.417 480.124 143.677 478.815 143.677C477.642 143.677 476.753 144.38 476.753 145.306C476.753 145.757 477 146.158 477.451 146.424C477.834 146.664 478.056 146.763 479.612 147.424C481.482 148.202 482.05 148.541 482.544 149.091C483.038 149.677 483.303 150.43 483.303 151.301C483.303 153.572 481.599 155.048 478.97 155.048C476.111 155.048 474.525 153.554 474.389 150.733H476.284C476.432 152.455 477.358 153.344 479.007 153.344C480.352 153.344 481.297 152.628 481.297 151.622C481.297 151.054 481.025 150.622 480.482 150.245C480.081 149.98 479.859 149.862 478.402 149.239C477.019 148.652 476.222 148.202 475.772 147.763C475.13 147.14 474.809 146.362 474.809 145.473C474.809 143.43 476.488 141.973 478.871 141.973C480.383 141.973 481.636 142.559 482.334 143.621C482.735 144.189 482.883 144.757 482.939 145.701H481.068Z" fill="#FF3D3A"/>
<path d="M132.722 166.566L143.452 177.29L154.175 166.566L143.445 155.837L132.722 166.566ZM87.9099 211.385L98.6331 222.108L109.356 211.385L98.6331 200.656L87.9099 211.385ZM72.9704 226.318L83.6935 237.042L94.4167 226.318L83.6935 215.595L72.9704 226.318ZM162.601 136.687L173.325 147.41L184.048 136.687L173.325 125.964L162.601 136.687ZM147.662 151.627L158.385 162.356L169.108 151.627L158.385 140.898L147.662 151.627ZM174.683 201.73L178.609 187.08L163.96 183.154L160.033 197.804L174.683 201.73ZM195.092 207.193L199.018 192.544L184.369 188.618L180.442 203.273L195.092 207.193ZM61.9263 155.812L58 170.462L72.6494 174.388L76.5756 159.733L61.9263 155.812ZM93.0585 179.858L96.9848 165.202L82.3354 161.276L78.4091 175.931L93.0585 179.858ZM126.858 216.947L112.208 213.027L108.288 227.677L122.938 231.603L126.858 216.947ZM106.745 233.43L102.819 248.079L117.468 252.006L121.394 237.356L106.745 233.43ZM150.273 129.576L154.199 114.926L139.55 111L135.624 125.649L150.273 129.576ZM134.081 131.403L130.154 146.052L144.804 149.979L148.73 135.329L134.081 131.403ZM134.081 231.603L148.73 227.677L144.804 213.027L130.154 216.947L134.081 231.603ZM135.624 237.356L139.55 252.006L154.199 248.079L150.273 233.43L135.624 237.356ZM121.394 125.649L117.468 111L102.819 114.926L106.745 129.576L121.394 125.649ZM122.938 131.403L108.288 135.329L112.208 149.979L126.858 146.052L122.938 131.403ZM78.4091 187.08L82.3354 201.73L96.9848 197.804L93.0585 183.154L78.4091 187.08ZM58 192.544L61.9263 207.193L76.5756 203.273L72.6494 188.618L58 192.544ZM199.018 170.462L195.092 155.812L180.442 159.733L184.369 174.388L199.018 170.462ZM178.609 175.931L174.683 161.276L160.033 165.202L163.96 179.858L178.609 175.931ZM169.108 211.385L158.385 200.656L147.662 211.385L158.385 222.108L169.108 211.385ZM173.325 215.595L162.601 226.318L173.325 237.042L184.048 226.318L173.325 215.595ZM94.4167 136.687L83.6935 125.964L72.9704 136.687L83.6935 147.41L94.4167 136.687ZM98.6331 140.898L87.9099 151.627L98.6331 162.356L109.356 151.627L98.6331 140.898Z" fill="#FF3D3A"/>
<path d="M221.959 166.376H226.632V170.814H226.743C228.966 167.425 232.349 165.678 236.497 165.678C240.17 165.678 243.559 167.135 244.788 170.814C246.831 167.604 250.387 165.678 254.245 165.678C260.258 165.678 264.283 168.184 264.283 174.432V196.557H259.32V176.765C259.32 173.03 258.326 170.055 253.486 170.055C248.696 170.055 245.603 173.092 245.603 177.759V196.557H240.639V176.765C240.639 172.858 239.417 170.055 234.978 170.055C229.083 170.055 226.922 175.481 226.922 177.759V196.557H221.959V166.376Z" fill="#FF3D3A"/>
<path d="M286.118 180.972C284.192 182.373 280.457 182.429 277.13 183.015C273.858 183.596 271.055 184.762 271.055 188.442C271.055 191.714 273.858 192.88 276.895 192.88C283.433 192.88 286.118 188.794 286.118 186.053V180.972ZM294.174 196.442C293.298 196.967 292.186 197.257 290.612 197.257C288.044 197.257 286.408 195.856 286.408 192.59C283.667 195.8 279.988 197.257 275.784 197.257C270.296 197.257 265.802 194.806 265.802 188.794C265.802 181.966 270.882 180.503 276.018 179.509C281.507 178.459 286.174 178.811 286.174 175.076C286.174 170.755 282.612 170.057 279.463 170.057C275.259 170.057 272.166 171.335 271.932 175.774H266.968C267.258 168.304 273.043 165.674 279.753 165.674C285.186 165.674 291.081 166.903 291.081 173.965V189.497C291.081 191.831 291.081 192.88 292.656 192.88C293.063 192.88 293.532 192.819 294.174 192.59V196.442Z" fill="#FF3D3A"/>
<path d="M315.89 180.855C315.89 175.539 313.557 170.058 307.309 170.058C300.945 170.058 298.377 175.249 298.377 181.028C298.377 186.46 300.364 192.529 306.902 192.529C313.44 192.529 315.89 186.516 315.89 180.855ZM320.792 193.992C320.792 203.801 316.298 208.82 306.785 208.82C301.118 208.82 294.586 206.542 294.29 199.943H299.253C299.488 203.567 303.803 204.851 307.075 204.851C313.557 204.851 316.125 200.177 316.125 193.405V191.424H316.008C314.372 195.097 310.402 196.912 306.606 196.912C297.617 196.912 293.123 189.843 293.123 181.614C293.123 174.49 296.623 165.674 307.075 165.674C310.871 165.674 314.254 167.366 316.069 170.7H316.008H316.125V166.378H320.792V193.992Z" fill="#FF3D3A"/>
<path d="M345.137 178.577C344.903 173.849 341.341 170.052 336.439 170.052C331.241 170.052 328.148 173.966 327.803 178.577H345.137ZM349.922 186.985C348.582 193.64 343.798 197.258 337.019 197.258C327.389 197.258 322.833 190.603 322.543 181.38C322.543 172.33 328.5 165.675 336.729 165.675C347.415 165.675 350.681 175.657 350.391 182.954H327.803C327.624 188.208 330.599 192.881 337.199 192.881C341.285 192.881 344.144 190.893 345.02 186.985H349.922Z" fill="#FF3D3A"/>
<path d="M381.098 196.557H375.845L369.715 172.567H369.597L363.529 196.557H358.158L348.466 166.376H353.954L360.782 191.069H360.899L366.974 166.376H372.4L378.703 191.069H378.82L385.593 166.376H390.729L381.098 196.557Z" fill="#FF3D3A"/>
<path d="M403.516 192.881C408.714 192.881 412.918 188.794 412.918 181.497C412.918 174.139 408.714 170.052 403.516 170.052C398.324 170.052 394.12 174.139 394.12 181.497C394.12 188.794 398.324 192.881 403.516 192.881ZM403.516 165.675C413.091 165.675 418.172 172.62 418.172 181.497C418.172 190.313 413.091 197.258 403.516 197.258C393.941 197.258 388.861 190.313 388.861 181.497C388.861 172.62 393.941 165.675 403.516 165.675Z" fill="#FF3D3A"/>
<path d="M420.097 166.376H424.77V172.74H424.881C427.276 167.894 430.604 165.499 435.975 165.678V170.932C427.974 170.932 425.06 175.481 425.06 183.13V196.557H420.097V166.376Z" fill="#FF3D3A"/>
<path d="M437.783 154.875H442.747V179.569L456.519 166.376H463.18L451.21 177.352L464.051 196.558H457.748L447.42 180.797L442.747 185.118V196.558H437.783V154.875Z" fill="#FF3D3A"/>
<path d="M466.331 187.042C466.504 191.481 470.363 192.882 474.443 192.882C477.542 192.882 481.746 192.179 481.746 188.388C481.746 184.53 476.838 183.888 471.875 182.783C466.973 181.672 462.01 180.036 462.01 174.257C462.01 168.183 468.023 165.676 473.276 165.676C479.931 165.676 485.246 167.775 485.654 175.134H480.691C480.345 171.282 476.956 170.053 473.69 170.053C470.708 170.053 467.263 170.874 467.263 173.905C467.263 177.467 472.523 178.054 477.129 179.159C482.092 180.27 487 181.906 487 187.74C487 194.926 480.283 197.259 474.153 197.259C467.387 197.259 461.664 194.518 461.368 187.042H466.331Z" fill="#FF3D3A"/>
<path d="M214.194 196.558H219.157V166.376H214.194V196.558Z" fill="#FF3D3A"/>
<path d="M214.194 160.944H219.157V155.974H214.194V160.944Z" fill="#FF3D3A"/>
</svg>
