<svg width="545" height="368" viewBox="0 0 545 368" fill="none" xmlns="http://www.w3.org/2000/svg">
<path d="M8 3H504.565L521 19.4348V344.608H24.4348L8 328.174V3Z" fill="white"/>
<path d="M504.565 3H8V328.174M504.565 3V328.174H8M504.565 3L521 19.4348V344.608H24.4348L8 328.174" stroke="#FF3D3A"/>
<path d="M9 328.5L25 344.608C25 344.608 327.3 344.608 521 344.608C514.582 338.19 510.983 334.592 504.565 328.174C311.035 328.301 9 328.5 9 328.5Z" fill="#911311"/>
<path d="M521 344.608C521 217.62 521 19.4348 521 19.4348L504.565 3C504.565 3 504.565 201.185 504.565 328.174C510.983 334.592 514.582 338.19 521 344.608Z" fill="#FF3D3A"/>
<path d="M0 368V345H521.426V0H544.5V368H0Z" fill="white"/>
<path d="M345.277 129.701C345.16 128.417 344.333 127.677 343.024 127.677C341.851 127.677 340.962 128.38 340.962 129.306C340.962 129.757 341.209 130.158 341.666 130.424C342.042 130.664 342.271 130.763 343.82 131.424C345.691 132.202 346.259 132.541 346.753 133.091C347.24 133.677 347.506 134.43 347.506 135.301C347.506 137.572 345.802 139.048 343.178 139.048C340.32 139.048 338.733 137.554 338.598 134.733H340.493C340.641 136.455 341.567 137.344 343.215 137.344C344.555 137.344 345.506 136.628 345.506 135.622C345.506 135.054 345.24 134.622 344.691 134.245C344.289 133.98 344.067 133.862 342.61 133.239C341.227 132.652 340.431 132.202 339.98 131.763C339.338 131.14 339.017 130.362 339.017 129.473C339.017 127.43 340.696 125.973 343.079 125.973C344.592 125.973 345.845 126.559 346.543 127.621C346.938 128.189 347.092 128.757 347.148 129.701H345.277Z" fill="#FF3D3A"/>
<path d="M351.639 132.445C351.639 135.489 352.923 137.366 355.041 137.366C357.121 137.366 358.43 135.489 358.43 132.501C358.43 129.532 357.121 127.661 355.041 127.661C352.96 127.661 351.639 129.532 351.639 132.445ZM360.473 132.501C360.473 136.415 358.294 139.045 355.041 139.045C351.75 139.045 349.596 136.44 349.596 132.427C349.596 128.606 351.83 125.976 355.041 125.976C358.294 125.976 360.473 128.606 360.473 132.501Z" fill="#FF3D3A"/>
<path d="M365.063 126.203L370.606 135.852V126.203H372.458V138.821H370.434L364.816 129.191V138.821H362.964V126.203H365.063Z" fill="#FF3D3A"/>
<path d="M376.979 126.203L379.8 131.629L382.578 126.203H384.751L380.744 133.691V138.821H378.794V133.691L374.769 126.203H376.979Z" fill="#FF3D3A"/>
<path d="M394.137 132.238C395.464 132.238 395.859 132.201 396.384 132.046C397.199 131.818 397.693 131.083 397.693 130.102C397.693 129.194 397.298 128.491 396.631 128.188C396.106 127.96 395.538 127.886 394.118 127.886H393.303V132.238H394.137ZM393.89 126.2C395.779 126.2 396.612 126.281 397.427 126.565C398.847 127.034 399.718 128.398 399.718 130.12C399.718 131.781 398.866 133.108 397.483 133.584C396.73 133.843 395.933 133.923 394.137 133.923H393.303V138.819H391.359V126.2H393.89Z" fill="#FF3D3A"/>
<path d="M401.798 126.201H403.767V138.82H401.798V126.201Z" fill="#FF3D3A"/>
<path d="M414.207 130.025C413.905 128.475 413.016 127.679 411.596 127.679C409.552 127.679 408.268 129.549 408.268 132.519C408.268 135.494 409.552 137.346 411.633 137.346C413.226 137.346 414.152 136.321 414.337 134.321H416.121C415.929 137.383 414.38 139.044 411.695 139.044C408.361 139.044 406.225 136.494 406.225 132.537C406.225 130.272 406.886 128.457 408.151 127.277C409.083 126.45 410.312 125.975 411.614 125.975C414.133 125.975 415.701 127.432 415.929 130.025H414.207Z" fill="#FF3D3A"/>
<path d="M425.671 126.203V127.888H422.344V138.821H420.393V127.888H417.103V126.203H425.671Z" fill="#FF3D3A"/>
<path d="M429.699 126.203V133.524C429.699 135.074 429.754 135.549 430.038 136.08C430.44 136.87 431.347 137.346 432.502 137.346C433.841 137.346 434.804 136.741 435.131 135.679C435.261 135.247 435.298 134.808 435.298 133.524V126.203H437.249V133.561C437.249 135.432 437.175 135.981 436.848 136.704C436.169 138.179 434.563 139.049 432.502 139.049C430.44 139.049 428.828 138.179 428.149 136.704C427.828 135.963 427.754 135.432 427.754 133.561V126.203H429.699Z" fill="#FF3D3A"/>
<path d="M442.827 132.067C444.192 132.067 444.605 132.029 445.118 131.838C445.889 131.554 446.346 130.857 446.346 129.931C446.346 129.134 445.988 128.511 445.365 128.208C444.834 127.943 444.42 127.887 442.735 127.887H441.957V132.067H442.827ZM442.716 126.202C444.815 126.202 445.612 126.313 446.457 126.714C447.649 127.282 448.371 128.492 448.371 129.949C448.371 131.591 447.556 132.783 445.97 133.431L449.069 138.82H446.76L443.908 133.752H441.957V138.82H440.012V126.202H442.716Z" fill="#FF3D3A"/>
<path d="M457.96 131.442V133.127H452.892V137.134H458.565V138.819H450.941V126.201H458.417V127.886H452.892V131.442H457.96Z" fill="#FF3D3A"/>
<path d="M467.069 129.701C466.957 128.417 466.124 127.677 464.815 127.677C463.642 127.677 462.753 128.38 462.753 129.306C462.753 129.757 463 130.158 463.451 130.424C463.834 130.664 464.056 130.763 465.612 131.424C467.482 132.202 468.05 132.541 468.544 133.091C469.038 133.677 469.303 134.43 469.303 135.301C469.303 137.572 467.599 139.048 464.97 139.048C462.111 139.048 460.525 137.554 460.389 134.733H462.284C462.432 136.455 463.358 137.344 465.007 137.344C466.352 137.344 467.297 136.628 467.297 135.622C467.297 135.054 467.025 134.622 466.482 134.245C466.081 133.98 465.859 133.862 464.402 133.239C463.019 132.652 462.222 132.202 461.772 131.763C461.13 131.14 460.809 130.362 460.809 129.473C460.809 127.43 462.488 125.973 464.871 125.973C466.383 125.973 467.637 126.559 468.334 127.621C468.735 128.189 468.884 128.757 468.939 129.701H467.069Z" fill="#FF3D3A"/>
<path d="M118.722 150.566L129.452 161.29L140.175 150.566L129.445 139.837L118.722 150.566ZM73.9099 195.385L84.6331 206.108L95.3562 195.385L84.6331 184.656L73.9099 195.385ZM58.9704 210.318L69.6935 221.042L80.4167 210.318L69.6935 199.595L58.9704 210.318ZM148.601 120.687L159.325 131.41L170.048 120.687L159.325 109.964L148.601 120.687ZM133.662 135.627L144.385 146.356L155.108 135.627L144.385 124.898L133.662 135.627ZM160.683 185.73L164.609 171.081L149.96 167.154L146.033 181.804L160.683 185.73ZM181.092 191.193L185.018 176.544L170.369 172.618L166.442 187.273L181.092 191.193ZM47.9263 139.812L44 154.462L58.6494 158.388L62.5756 143.733L47.9263 139.812ZM79.0585 163.858L82.9848 149.202L68.3354 145.276L64.4091 159.931L79.0585 163.858ZM112.858 200.947L98.2083 197.027L94.2882 211.677L108.938 215.603L112.858 200.947ZM92.7449 217.43L88.8186 232.079L103.468 236.006L107.394 221.356L92.7449 217.43ZM136.273 113.576L140.199 98.9263L125.55 95L121.624 109.649L136.273 113.576ZM120.081 115.403L116.154 130.052L130.804 133.979L134.73 119.329L120.081 115.403ZM120.081 215.603L134.73 211.677L130.804 197.027L116.154 200.947L120.081 215.603ZM121.624 221.356L125.55 236.006L140.199 232.079L136.273 217.43L121.624 221.356ZM107.394 109.649L103.468 95L88.8186 98.9263L92.7449 113.576L107.394 109.649ZM108.938 115.403L94.2882 119.329L98.2083 133.979L112.858 130.052L108.938 115.403ZM64.4091 171.081L68.3354 185.73L82.9848 181.804L79.0585 167.154L64.4091 171.081ZM44 176.544L47.9263 191.193L62.5756 187.273L58.6494 172.618L44 176.544ZM185.018 154.462L181.092 139.812L166.442 143.733L170.369 158.388L185.018 154.462ZM164.609 159.931L160.683 145.276L146.033 149.202L149.96 163.858L164.609 159.931ZM155.108 195.385L144.385 184.656L133.662 195.385L144.385 206.108L155.108 195.385ZM159.325 199.595L148.601 210.318L159.325 221.042L170.048 210.318L159.325 199.595ZM80.4167 120.687L69.6935 109.964L58.9704 120.687L69.6935 131.41L80.4167 120.687ZM84.6331 124.898L73.9099 135.627L84.6331 146.356L95.3562 135.627L84.6331 124.898Z" fill="#FF3D3A"/>
<path d="M207.959 150.376H212.632V154.814H212.743C214.966 151.425 218.349 149.678 222.497 149.678C226.17 149.678 229.559 151.135 230.788 154.814C232.831 151.604 236.387 149.678 240.245 149.678C246.258 149.678 250.283 152.184 250.283 158.432V180.557H245.32V160.765C245.32 157.03 244.326 154.055 239.486 154.055C234.696 154.055 231.603 157.092 231.603 161.759V180.557H226.639V160.765C226.639 156.858 225.417 154.055 220.978 154.055C215.083 154.055 212.922 159.481 212.922 161.759V180.557H207.959V150.376Z" fill="#FF3D3A"/>
<path d="M272.118 164.972C270.192 166.373 266.457 166.429 263.13 167.015C259.858 167.596 257.055 168.762 257.055 172.442C257.055 175.714 259.858 176.88 262.895 176.88C269.433 176.88 272.118 172.794 272.118 170.053V164.972ZM280.174 180.442C279.298 180.967 278.187 181.257 276.612 181.257C274.044 181.257 272.408 179.856 272.408 176.59C269.667 179.8 265.988 181.257 261.784 181.257C256.296 181.257 251.802 178.806 251.802 172.794C251.802 165.966 256.882 164.503 262.018 163.509C267.507 162.459 272.174 162.811 272.174 159.076C272.174 154.755 268.612 154.057 265.463 154.057C261.259 154.057 258.166 155.335 257.932 159.774H252.968C253.258 152.304 259.043 149.674 265.753 149.674C271.186 149.674 277.081 150.903 277.081 157.965V173.497C277.081 175.831 277.081 176.88 278.656 176.88C279.063 176.88 279.532 176.819 280.174 176.59V180.442Z" fill="#FF3D3A"/>
<path d="M301.89 164.855C301.89 159.539 299.557 154.058 293.309 154.058C286.945 154.058 284.377 159.249 284.377 165.028C284.377 170.46 286.364 176.529 292.902 176.529C299.44 176.529 301.89 170.516 301.89 164.855ZM306.792 177.992C306.792 187.801 302.298 192.82 292.785 192.82C287.117 192.82 280.586 190.542 280.29 183.943H285.253C285.488 187.567 289.803 188.851 293.075 188.851C299.557 188.851 302.125 184.177 302.125 177.405V175.424H302.008C300.372 179.097 296.402 180.912 292.606 180.912C283.617 180.912 279.123 173.843 279.123 165.614C279.123 158.49 282.623 149.674 293.075 149.674C296.871 149.674 300.254 151.366 302.069 154.7H302.008H302.125V150.378H306.792V177.992Z" fill="#FF3D3A"/>
<path d="M331.138 162.577C330.903 157.849 327.341 154.052 322.439 154.052C317.241 154.052 314.148 157.966 313.803 162.577H331.138ZM335.922 170.985C334.582 177.64 329.798 181.258 323.02 181.258C313.389 181.258 308.833 174.603 308.543 165.38C308.543 156.33 314.5 149.675 322.729 149.675C333.416 149.675 336.681 159.657 336.391 166.954H313.803C313.624 172.208 316.599 176.881 323.199 176.881C327.285 176.881 330.144 174.893 331.02 170.985H335.922Z" fill="#FF3D3A"/>
<path d="M367.099 180.557H361.845L355.715 156.567H355.598L349.529 180.557H344.158L334.466 150.376H339.954L346.782 175.069H346.899L352.974 150.376H358.4L364.703 175.069H364.821L371.593 150.376H376.729L367.099 180.557Z" fill="#FF3D3A"/>
<path d="M389.516 176.881C394.714 176.881 398.918 172.794 398.918 165.497C398.918 158.139 394.714 154.052 389.516 154.052C384.324 154.052 380.12 158.139 380.12 165.497C380.12 172.794 384.324 176.881 389.516 176.881ZM389.516 149.675C399.091 149.675 404.172 156.62 404.172 165.497C404.172 174.313 399.091 181.258 389.516 181.258C379.941 181.258 374.861 174.313 374.861 165.497C374.861 156.62 379.941 149.675 389.516 149.675Z" fill="#FF3D3A"/>
<path d="M406.097 150.376H410.77V156.74H410.881C413.276 151.894 416.604 149.499 421.974 149.678V154.932C413.974 154.932 411.06 159.481 411.06 167.13V180.557H406.097V150.376Z" fill="#FF3D3A"/>
<path d="M423.783 138.875H428.747V163.569L442.519 150.376H449.18L437.21 161.352L450.051 180.558H443.748L433.42 164.797L428.747 169.118V180.558H423.783V138.875Z" fill="#FF3D3A"/>
<path d="M452.331 171.042C452.504 175.481 456.363 176.882 460.443 176.882C463.542 176.882 467.746 176.179 467.746 172.388C467.746 168.53 462.838 167.888 457.875 166.783C452.973 165.671 448.01 164.036 448.01 158.257C448.01 152.183 454.023 149.676 459.276 149.676C465.931 149.676 471.247 151.775 471.654 159.134H466.691C466.345 155.282 462.956 154.053 459.69 154.053C456.708 154.053 453.264 154.874 453.264 157.905C453.264 161.467 458.523 162.054 463.129 163.159C468.092 164.27 473 165.906 473 171.74C473 178.926 466.283 181.259 460.153 181.259C453.387 181.259 447.664 178.518 447.368 171.042H452.331Z" fill="#FF3D3A"/>
<path d="M200.194 180.558H205.158V150.376H200.194V180.558Z" fill="#FF3D3A"/>
<path d="M200.194 144.944H205.158V139.974H200.194V144.944Z" fill="#FF3D3A"/>
</svg>
