<svg>
    <path d="M520.565 18.9992H24V344.173H520.565V18.9992Z" fill="#183AB2" stroke="#3E68FF"/>
    <path fillRule="evenodd" clipRule="evenodd" d="M280.064 89.4365L222.843 182.638C200.591 235.236 241.628 273.672 275.441 274.251C310.121 276.273 357.804 248.529 338.153 185.528C309.253 136.109 280.064 89.4365 280.064 89.4365ZM249.982 196.529L279.689 148.142C279.689 148.142 294.843 172.373 309.846 198.029C320.048 230.738 295.293 245.141 277.288 244.091C259.734 243.791 238.429 223.835 249.982 196.529Z" fill="#3E68FF"/>
    <path d="M279.465 167.484L259.188 200.51C251.303 219.149 265.845 232.769 277.827 232.974C290.116 233.691 307.013 223.859 300.049 201.534C289.809 184.023 279.465 167.484 279.465 167.484Z" fill="#3E68FF"/>
</svg>
