<svg>
    <path d="M216.292 458C300.368 373.923 432.294 242.708 432.294 242.708L432.29 216.29L216.292 431.584V444.792C216.292 444.792 216.292 452.842 216.292 458Z" fill="#7C349E"/>
    <path d="M216.292 431.584L0.289551 216.29V242.697C84.3663 326.774 132.215 373.923 216.292 458C216.292 452.842 216.292 444.792 216.292 444.792V431.584Z" fill="#440861"/>
    <path d="M216.291 431.584L431.583 216.292L216.291 1L0.999512 216.292L216.291 431.584Z" stroke="#7C349E" fill='white'/>
    <path fillRule="evenodd" clipRule="evenodd" d="M231.945 102.098C223.005 102.247 211.432 106.561 198.621 119.373L108.144 209.849L93.2949 195L183.771 104.524C199.358 88.9374 215.852 81.3641 231.594 81.1009C247.387 80.8368 260.937 87.9766 270.194 98.8784C288.611 120.57 290.299 157.133 263.34 184.092L255.916 176.668L248.491 169.243C267.76 149.974 265.486 125.78 254.185 112.47C248.583 105.871 240.835 101.949 231.945 102.098ZM255.916 176.668C248.491 169.243 248.491 169.243 248.491 169.243L248.49 169.244L248.486 169.248L170.563 247.171C155.941 261.793 148.698 277.486 148.198 292.529C147.696 307.604 154.033 320.812 164.208 329.938C184.697 348.315 219.425 349.522 246.17 322.777L337.5 231.448L330.076 224.022L322.65 216.598L231.321 307.928C211.837 327.412 189.77 324.656 178.23 314.305C172.39 309.067 168.903 301.721 169.186 293.228C169.47 284.703 173.619 273.814 185.413 262.02L263.339 184.094L263.34 184.092C263.34 184.092 263.34 184.092 255.916 176.668Z" fill="#7C349E"/>
    <path d="M85.5314 245.283C100.813 245.283 113.202 232.895 113.202 217.613C113.202 202.331 100.813 189.942 85.5314 189.942C70.2494 189.942 57.8608 202.331 57.8608 217.613C57.8608 232.895 70.2494 245.283 85.5314 245.283Z" stroke="#7C349E" strokeWidth="21"/>
    <path d="M347.051 234.717C362.333 234.717 374.722 222.328 374.722 207.046C374.722 191.764 362.333 179.376 347.051 179.376C331.769 179.376 319.381 191.764 319.381 207.046C319.381 222.328 331.769 234.717 347.051 234.717Z" stroke="#7C349E" strokeWidth="21"/>
</svg>